solid Default
  facet normal 0.000000e+00 1.000000e+00 0.000000e+00
    outer loop
      vertex -4.864382e+00 6.349999e+00 1.288052e+01
      vertex -3.175000e+00 6.349999e+00 1.429808e+01
      vertex -1.102666e+00 6.349999e+00 1.505235e+01
    endloop
  endfacet
  facet normal 2.460003e-16 1.000000e+00 -1.420283e-16
    outer loop
      vertex -3.175000e+00 6.349999e+00 3.299557e+00
      vertex 5.967048e+00 6.349999e+00 6.626990e+00
      vertex 4.864382e+00 6.349999e+00 4.717117e+00
    endloop
  endfacet
  facet normal 0.000000e+00 1.000000e+00 0.000000e+00
    outer loop
      vertex -6.350000e+00 6.349999e+00 8.798818e+00
      vertex 3.175000e+00 6.349999e+00 1.429808e+01
      vertex 4.864382e+00 6.349999e+00 1.288052e+01
    endloop
  endfacet
  facet normal 0.000000e+00 1.000000e+00 0.000000e+00
    outer loop
      vertex -1.102666e+00 6.349999e+00 1.505235e+01
      vertex 1.102666e+00 6.349999e+00 1.505235e+01
      vertex -4.864382e+00 6.349999e+00 1.288052e+01
    endloop
  endfacet
  facet normal 0.000000e+00 1.000000e+00 0.000000e+00
    outer loop
      vertex 3.175000e+00 6.349999e+00 1.429808e+01
      vertex -6.350000e+00 6.349999e+00 8.798818e+00
      vertex -5.967049e+00 6.349999e+00 1.097065e+01
    endloop
  endfacet
  facet normal 1.104784e-16 1.000000e+00 1.316631e-16
    outer loop
      vertex 6.350000e+00 6.349999e+00 8.798818e+00
      vertex -3.175000e+00 6.349999e+00 3.299557e+00
      vertex -4.864382e+00 6.349999e+00 4.717117e+00
    endloop
  endfacet
  facet normal 2.797412e-16 1.000000e+00 -7.685827e-16
    outer loop
      vertex -3.175000e+00 6.349999e+00 3.299557e+00
      vertex 3.175000e+00 6.349999e+00 3.299557e+00
      vertex 1.102666e+00 6.349999e+00 2.545289e+00
    endloop
  endfacet
  facet normal 2.076316e-16 1.000000e+00 -3.661104e-17
    outer loop
      vertex -3.175000e+00 6.349999e+00 3.299557e+00
      vertex 6.350000e+00 6.349999e+00 8.798818e+00
      vertex 5.967048e+00 6.349999e+00 6.626990e+00
    endloop
  endfacet
  facet normal 0.000000e+00 1.000000e+00 0.000000e+00
    outer loop
      vertex 4.864382e+00 6.349999e+00 1.288052e+01
      vertex 5.967048e+00 6.349999e+00 1.097065e+01
      vertex -6.350000e+00 6.349999e+00 8.798818e+00
    endloop
  endfacet
  facet normal 0.000000e+00 1.000000e+00 0.000000e+00
    outer loop
      vertex -5.967049e+00 6.349999e+00 1.097065e+01
      vertex -4.864382e+00 6.349999e+00 1.288052e+01
      vertex 3.175000e+00 6.349999e+00 1.429808e+01
    endloop
  endfacet
  facet normal -1.488472e-16 1.000000e+00 8.441544e-16
    outer loop
      vertex -4.864382e+00 6.349999e+00 4.717117e+00
      vertex -5.967049e+00 6.349999e+00 6.626990e+00
      vertex 6.350000e+00 6.349999e+00 8.798818e+00
    endloop
  endfacet
  facet normal 2.797412e-16 1.000000e+00 -3.333826e-16
    outer loop
      vertex 4.864382e+00 6.349999e+00 4.717117e+00
      vertex 3.175000e+00 6.349999e+00 3.299557e+00
      vertex -3.175000e+00 6.349999e+00 3.299557e+00
    endloop
  endfacet
  facet normal 0.000000e+00 1.000000e+00 0.000000e+00
    outer loop
      vertex 1.102666e+00 6.349999e+00 1.505235e+01
      vertex 3.175000e+00 6.349999e+00 1.429808e+01
      vertex -4.864382e+00 6.349999e+00 1.288052e+01
    endloop
  endfacet
  facet normal 8.054828e-16 1.000000e+00 2.213046e-15
    outer loop
      vertex 1.102666e+00 6.349999e+00 2.545289e+00
      vertex -1.102666e+00 6.349999e+00 2.545289e+00
      vertex -3.175000e+00 6.349999e+00 3.299557e+00
    endloop
  endfacet
  facet normal 0.000000e+00 1.000000e+00 0.000000e+00
    outer loop
      vertex -5.967049e+00 6.349999e+00 6.626990e+00
      vertex -6.350000e+00 6.349999e+00 8.798818e+00
      vertex 6.350000e+00 6.349999e+00 8.798818e+00
    endloop
  endfacet
  facet normal 0.000000e+00 1.000000e+00 0.000000e+00
    outer loop
      vertex 5.967048e+00 6.349999e+00 1.097065e+01
      vertex 6.350000e+00 6.349999e+00 8.798818e+00
      vertex -6.350000e+00 6.349999e+00 8.798818e+00
    endloop
  endfacet
  facet normal 3.420202e-01 -1.533413e-16 9.396926e-01
    outer loop
      vertex -3.175000e+00 2.540000e+01 3.299557e+00
      vertex -3.175000e+00 6.349999e+00 3.299557e+00
      vertex -1.102666e+00 6.349999e+00 2.545289e+00
    endloop
  endfacet
  facet normal -2.617819e-15 -1.864942e-16 1.000000e+00
    outer loop
      vertex 1.102666e+00 6.349999e+00 2.545289e+00
      vertex 1.102666e+00 2.540000e+01 2.545289e+00
      vertex -1.102666e+00 2.540000e+01 2.545289e+00
    endloop
  endfacet
  facet normal -3.420202e-01 -1.746309e-16 9.396926e-01
    outer loop
      vertex 3.175000e+00 2.540000e+01 3.299557e+00
      vertex 1.102666e+00 2.540000e+01 2.545289e+00
      vertex 1.102666e+00 6.349999e+00 2.545289e+00
    endloop
  endfacet
  facet normal -6.427876e-01 -1.071471e-16 7.660444e-01
    outer loop
      vertex 4.864382e+00 6.349999e+00 4.717117e+00
      vertex 4.864382e+00 2.540000e+01 4.717117e+00
      vertex 3.175000e+00 2.540000e+01 3.299557e+00
    endloop
  endfacet
  facet normal -8.660254e-01 -9.324708e-17 5.000000e-01
    outer loop
      vertex 5.967048e+00 6.349999e+00 6.626990e+00
      vertex 5.967048e+00 2.540000e+01 6.626990e+00
      vertex 4.864382e+00 2.540000e+01 4.717117e+00
    endloop
  endfacet
  facet normal -9.848077e-01 -3.238437e-17 1.736482e-01
    outer loop
      vertex 6.350000e+00 6.349999e+00 8.798818e+00
      vertex 6.350000e+00 2.540000e+01 8.798818e+00
      vertex 5.967048e+00 2.540000e+01 6.626990e+00
    endloop
  endfacet
  facet normal -9.848077e-01 3.238437e-17 -1.736482e-01
    outer loop
      vertex 5.967048e+00 6.349999e+00 1.097065e+01
      vertex 5.967048e+00 2.540000e+01 1.097065e+01
      vertex 6.350000e+00 2.540000e+01 8.798818e+00
    endloop
  endfacet
  facet normal -8.660254e-01 9.324708e-17 -5.000000e-01
    outer loop
      vertex 4.864382e+00 6.349999e+00 1.288052e+01
      vertex 4.864382e+00 2.540000e+01 1.288052e+01
      vertex 5.967048e+00 2.540000e+01 1.097065e+01
    endloop
  endfacet
  facet normal -6.427876e-01 7.143141e-17 -7.660444e-01
    outer loop
      vertex 3.175000e+00 6.349999e+00 1.429808e+01
      vertex 3.175000e+00 2.540000e+01 1.429808e+01
      vertex 4.864382e+00 2.540000e+01 1.288052e+01
    endloop
  endfacet
  facet normal -3.420202e-01 7.683759e-17 -9.396926e-01
    outer loop
      vertex 1.102666e+00 2.540000e+01 1.505235e+01
      vertex 3.175000e+00 2.540000e+01 1.429808e+01
      vertex 3.175000e+00 6.349999e+00 1.429808e+01
    endloop
  endfacet
  facet normal 1.610966e-15 1.864942e-16 -1.000000e+00
    outer loop
      vertex -1.102666e+00 6.349999e+00 1.505235e+01
      vertex -1.102666e+00 2.540000e+01 1.505235e+01
      vertex 1.102666e+00 2.540000e+01 1.505235e+01
    endloop
  endfacet
  facet normal 3.420202e-01 1.752472e-16 -9.396926e-01
    outer loop
      vertex -1.102666e+00 2.540000e+01 1.505235e+01
      vertex -1.102666e+00 6.349999e+00 1.505235e+01
      vertex -3.175000e+00 6.349999e+00 1.429808e+01
    endloop
  endfacet
  facet normal 6.427876e-01 1.397047e-16 -7.660444e-01
    outer loop
      vertex -4.864382e+00 2.540000e+01 1.288052e+01
      vertex -3.175000e+00 2.540000e+01 1.429808e+01
      vertex -3.175000e+00 6.349999e+00 1.429808e+01
    endloop
  endfacet
  facet normal 8.660254e-01 1.327195e-16 -5.000000e-01
    outer loop
      vertex -5.967049e+00 2.540000e+01 1.097065e+01
      vertex -4.864382e+00 2.540000e+01 1.288052e+01
      vertex -4.864382e+00 6.349999e+00 1.288052e+01
    endloop
  endfacet
  facet normal 9.848077e-01 3.143356e-17 -1.736482e-01
    outer loop
      vertex -6.350000e+00 2.540000e+01 8.798818e+00
      vertex -5.967049e+00 2.540000e+01 1.097065e+01
      vertex -5.967049e+00 6.349999e+00 1.097065e+01
    endloop
  endfacet
  facet normal 9.848077e-01 -3.143356e-17 1.736482e-01
    outer loop
      vertex -5.967049e+00 2.540000e+01 6.626990e+00
      vertex -6.350000e+00 2.540000e+01 8.798818e+00
      vertex -6.350000e+00 6.349999e+00 8.798818e+00
    endloop
  endfacet
  facet normal 8.660254e-01 -7.683759e-17 5.000000e-01
    outer loop
      vertex -4.864382e+00 2.540000e+01 4.717117e+00
      vertex -5.967049e+00 2.540000e+01 6.626990e+00
      vertex -5.967049e+00 6.349999e+00 6.626990e+00
    endloop
  endfacet
  facet normal 6.427876e-01 -1.327195e-16 7.660444e-01
    outer loop
      vertex -3.175000e+00 2.540000e+01 3.299557e+00
      vertex -4.864382e+00 2.540000e+01 4.717117e+00
      vertex -4.864382e+00 6.349999e+00 4.717117e+00
    endloop
  endfacet
  facet normal 6.427876e-01 -1.257342e-16 7.660444e-01
    outer loop
      vertex -4.864382e+00 6.349999e+00 4.717117e+00
      vertex -3.175000e+00 6.349999e+00 3.299557e+00
      vertex -3.175000e+00 2.540000e+01 3.299557e+00
    endloop
  endfacet
  facet normal 8.660254e-01 -1.047785e-16 5.000000e-01
    outer loop
      vertex -5.967049e+00 6.349999e+00 6.626990e+00
      vertex -4.864382e+00 6.349999e+00 4.717117e+00
      vertex -4.864382e+00 2.540000e+01 4.717117e+00
    endloop
  endfacet
  facet normal 9.848077e-01 -2.444832e-17 1.736482e-01
    outer loop
      vertex -6.350000e+00 6.349999e+00 8.798818e+00
      vertex -5.967049e+00 6.349999e+00 6.626990e+00
      vertex -5.967049e+00 2.540000e+01 6.626990e+00
    endloop
  endfacet
  facet normal 9.848077e-01 3.143356e-17 -1.736482e-01
    outer loop
      vertex -5.967049e+00 6.349999e+00 1.097065e+01
      vertex -6.350000e+00 6.349999e+00 8.798818e+00
      vertex -6.350000e+00 2.540000e+01 8.798818e+00
    endloop
  endfacet
  facet normal 8.660254e-01 9.779330e-17 -5.000000e-01
    outer loop
      vertex -4.864382e+00 6.349999e+00 1.288052e+01
      vertex -5.967049e+00 6.349999e+00 1.097065e+01
      vertex -5.967049e+00 2.540000e+01 1.097065e+01
    endloop
  endfacet
  facet normal 6.427876e-01 2.165423e-16 -7.660444e-01
    outer loop
      vertex -3.175000e+00 6.349999e+00 1.429808e+01
      vertex -4.864382e+00 6.349999e+00 1.288052e+01
      vertex -4.864382e+00 2.540000e+01 1.288052e+01
    endloop
  endfacet
  facet normal 3.420202e-01 1.752472e-16 -9.396926e-01
    outer loop
      vertex -3.175000e+00 6.349999e+00 1.429808e+01
      vertex -3.175000e+00 2.540000e+01 1.429808e+01
      vertex -1.102666e+00 2.540000e+01 1.505235e+01
    endloop
  endfacet
  facet normal 1.610966e-15 1.864942e-16 -1.000000e+00
    outer loop
      vertex 1.102666e+00 2.540000e+01 1.505235e+01
      vertex 1.102666e+00 6.349999e+00 1.505235e+01
      vertex -1.102666e+00 6.349999e+00 1.505235e+01
    endloop
  endfacet
  facet normal -3.420202e-01 1.746309e-16 -9.396926e-01
    outer loop
      vertex 3.175000e+00 6.349999e+00 1.429808e+01
      vertex 1.102666e+00 6.349999e+00 1.505235e+01
      vertex 1.102666e+00 2.540000e+01 1.505235e+01
    endloop
  endfacet
  facet normal -6.427876e-01 1.428628e-16 -7.660444e-01
    outer loop
      vertex 4.864382e+00 2.540000e+01 1.288052e+01
      vertex 4.864382e+00 6.349999e+00 1.288052e+01
      vertex 3.175000e+00 6.349999e+00 1.429808e+01
    endloop
  endfacet
  facet normal -8.660254e-01 9.324708e-17 -5.000000e-01
    outer loop
      vertex 5.967048e+00 2.540000e+01 1.097065e+01
      vertex 5.967048e+00 6.349999e+00 1.097065e+01
      vertex 4.864382e+00 6.349999e+00 1.288052e+01
    endloop
  endfacet
  facet normal -9.848077e-01 3.238437e-17 -1.736482e-01
    outer loop
      vertex 6.350000e+00 2.540000e+01 8.798818e+00
      vertex 6.350000e+00 6.349999e+00 8.798818e+00
      vertex 5.967048e+00 6.349999e+00 1.097065e+01
    endloop
  endfacet
  facet normal -9.848077e-01 -3.238437e-17 1.736482e-01
    outer loop
      vertex 5.967048e+00 2.540000e+01 6.626990e+00
      vertex 5.967048e+00 6.349999e+00 6.626990e+00
      vertex 6.350000e+00 6.349999e+00 8.798818e+00
    endloop
  endfacet
  facet normal -8.660254e-01 -6.993531e-17 5.000000e-01
    outer loop
      vertex 4.864382e+00 2.540000e+01 4.717117e+00
      vertex 4.864382e+00 6.349999e+00 4.717117e+00
      vertex 5.967048e+00 6.349999e+00 6.626990e+00
    endloop
  endfacet
  facet normal -6.427876e-01 -1.250050e-16 7.660444e-01
    outer loop
      vertex 3.175000e+00 2.540000e+01 3.299557e+00
      vertex 3.175000e+00 6.349999e+00 3.299557e+00
      vertex 4.864382e+00 6.349999e+00 4.717117e+00
    endloop
  endfacet
  facet normal -3.420202e-01 -1.466899e-16 9.396926e-01
    outer loop
      vertex 1.102666e+00 6.349999e+00 2.545289e+00
      vertex 3.175000e+00 6.349999e+00 3.299557e+00
      vertex 3.175000e+00 2.540000e+01 3.299557e+00
    endloop
  endfacet
  facet normal -2.416448e-15 -1.631824e-16 1.000000e+00
    outer loop
      vertex -1.102666e+00 2.540000e+01 2.545289e+00
      vertex -1.102666e+00 6.349999e+00 2.545289e+00
      vertex 1.102666e+00 6.349999e+00 2.545289e+00
    endloop
  endfacet
  facet normal 3.420202e-01 -1.533413e-16 9.396926e-01
    outer loop
      vertex -1.102666e+00 6.349999e+00 2.545289e+00
      vertex -1.102666e+00 2.540000e+01 2.545289e+00
      vertex -3.175000e+00 2.540000e+01 3.299557e+00
    endloop
  endfacet
  facet normal 6.480463e-16 1.000000e+00 2.962197e-17
    outer loop
      vertex 1.016000e+01 2.540000e+01 8.798818e+00
      vertex 5.080000e+00 2.540000e+01 1.734723e-14
      vertex 4.864382e+00 2.540000e+01 4.717117e+00
    endloop
  endfacet
  facet normal 0.000000e+00 1.000000e+00 0.000000e+00
    outer loop
      vertex 5.080000e+00 2.540000e+01 1.759764e+01
      vertex 1.016000e+01 2.540000e+01 8.798818e+00
      vertex 5.967048e+00 2.540000e+01 1.097065e+01
    endloop
  endfacet
  facet normal 1.208798e-15 1.000000e+00 -6.978999e-16
    outer loop
      vertex 4.864382e+00 2.540000e+01 4.717117e+00
      vertex 5.967048e+00 2.540000e+01 6.626990e+00
      vertex 1.016000e+01 2.540000e+01 8.798818e+00
    endloop
  endfacet
  facet normal 0.000000e+00 1.000000e+00 0.000000e+00
    outer loop
      vertex 5.080000e+00 2.540000e+01 1.734723e-14
      vertex 1.102666e+00 2.540000e+01 2.545289e+00
      vertex 3.175000e+00 2.540000e+01 3.299557e+00
    endloop
  endfacet
  facet normal 0.000000e+00 1.000000e+00 0.000000e+00
    outer loop
      vertex 5.080000e+00 2.540000e+01 1.759764e+01
      vertex 4.864382e+00 2.540000e+01 1.288052e+01
      vertex 3.175000e+00 2.540000e+01 1.429808e+01
    endloop
  endfacet
  facet normal 0.000000e+00 1.000000e+00 0.000000e+00
    outer loop
      vertex 1.016000e+01 2.540000e+01 8.798818e+00
      vertex 6.350000e+00 2.540000e+01 8.798818e+00
      vertex 5.967048e+00 2.540000e+01 1.097065e+01
    endloop
  endfacet
  facet normal 0.000000e+00 1.000000e+00 0.000000e+00
    outer loop
      vertex 3.175000e+00 2.540000e+01 3.299557e+00
      vertex 4.864382e+00 2.540000e+01 4.717117e+00
      vertex 5.080000e+00 2.540000e+01 1.734723e-14
    endloop
  endfacet
  facet normal 0.000000e+00 1.000000e+00 0.000000e+00
    outer loop
      vertex 5.080000e+00 2.540000e+01 1.734723e-14
      vertex -5.080000e+00 2.540000e+01 4.336809e-15
      vertex -1.102666e+00 2.540000e+01 2.545289e+00
    endloop
  endfacet
  facet normal 0.000000e+00 1.000000e+00 0.000000e+00
    outer loop
      vertex 5.967048e+00 2.540000e+01 1.097065e+01
      vertex 4.864382e+00 2.540000e+01 1.288052e+01
      vertex 5.080000e+00 2.540000e+01 1.759764e+01
    endloop
  endfacet
  facet normal 0.000000e+00 1.000000e+00 0.000000e+00
    outer loop
      vertex -1.102666e+00 2.540000e+01 2.545289e+00
      vertex 1.102666e+00 2.540000e+01 2.545289e+00
      vertex 5.080000e+00 2.540000e+01 1.734723e-14
    endloop
  endfacet
  facet normal 0.000000e+00 1.000000e+00 0.000000e+00
    outer loop
      vertex -1.016000e+01 2.540000e+01 8.798818e+00
      vertex -5.967049e+00 2.540000e+01 1.097065e+01
      vertex -6.350000e+00 2.540000e+01 8.798818e+00
    endloop
  endfacet
  facet normal -5.607517e-16 1.000000e+00 7.275219e-16
    outer loop
      vertex -1.016000e+01 2.540000e+01 8.798818e+00
      vertex -5.080000e+00 2.540000e+01 1.759764e+01
      vertex -4.864382e+00 2.540000e+01 1.288052e+01
    endloop
  endfacet
  facet normal 7.569962e-30 1.000000e+00 1.635817e-15
    outer loop
      vertex 5.967048e+00 2.540000e+01 6.626990e+00
      vertex 6.350000e+00 2.540000e+01 8.798818e+00
      vertex 1.016000e+01 2.540000e+01 8.798818e+00
    endloop
  endfacet
  facet normal 0.000000e+00 1.000000e+00 0.000000e+00
    outer loop
      vertex -5.080000e+00 2.540000e+01 4.336809e-15
      vertex -4.864382e+00 2.540000e+01 4.717117e+00
      vertex -3.175000e+00 2.540000e+01 3.299557e+00
    endloop
  endfacet
  facet normal 0.000000e+00 1.000000e+00 0.000000e+00
    outer loop
      vertex -1.016000e+01 2.540000e+01 8.798818e+00
      vertex -5.967049e+00 2.540000e+01 6.626990e+00
      vertex -4.864382e+00 2.540000e+01 4.717117e+00
    endloop
  endfacet
  facet normal 0.000000e+00 1.000000e+00 0.000000e+00
    outer loop
      vertex -4.864382e+00 2.540000e+01 1.288052e+01
      vertex -5.967049e+00 2.540000e+01 1.097065e+01
      vertex -1.016000e+01 2.540000e+01 8.798818e+00
    endloop
  endfacet
  facet normal 0.000000e+00 1.000000e+00 0.000000e+00
    outer loop
      vertex -3.175000e+00 2.540000e+01 3.299557e+00
      vertex -1.102666e+00 2.540000e+01 2.545289e+00
      vertex -5.080000e+00 2.540000e+01 4.336809e-15
    endloop
  endfacet
  facet normal 0.000000e+00 1.000000e+00 0.000000e+00
    outer loop
      vertex -6.350000e+00 2.540000e+01 8.798818e+00
      vertex -5.967049e+00 2.540000e+01 6.626990e+00
      vertex -1.016000e+01 2.540000e+01 8.798818e+00
    endloop
  endfacet
  facet normal 0.000000e+00 1.000000e+00 0.000000e+00
    outer loop
      vertex -5.080000e+00 2.540000e+01 1.759764e+01
      vertex -1.102666e+00 2.540000e+01 1.505235e+01
      vertex -3.175000e+00 2.540000e+01 1.429808e+01
    endloop
  endfacet
  facet normal 0.000000e+00 1.000000e+00 0.000000e+00
    outer loop
      vertex 5.080000e+00 2.540000e+01 1.759764e+01
      vertex 1.102666e+00 2.540000e+01 1.505235e+01
      vertex -1.102666e+00 2.540000e+01 1.505235e+01
    endloop
  endfacet
  facet normal 0.000000e+00 1.000000e+00 0.000000e+00
    outer loop
      vertex -4.864382e+00 2.540000e+01 4.717117e+00
      vertex -5.080000e+00 2.540000e+01 4.336809e-15
      vertex -1.016000e+01 2.540000e+01 8.798818e+00
    endloop
  endfacet
  facet normal 0.000000e+00 1.000000e+00 0.000000e+00
    outer loop
      vertex -1.102666e+00 2.540000e+01 1.505235e+01
      vertex -5.080000e+00 2.540000e+01 1.759764e+01
      vertex 5.080000e+00 2.540000e+01 1.759764e+01
    endloop
  endfacet
  facet normal 1.416659e-15 1.000000e+00 8.179087e-16
    outer loop
      vertex -3.175000e+00 2.540000e+01 1.429808e+01
      vertex -4.864382e+00 2.540000e+01 1.288052e+01
      vertex -5.080000e+00 2.540000e+01 1.759764e+01
    endloop
  endfacet
  facet normal 0.000000e+00 1.000000e+00 0.000000e+00
    outer loop
      vertex 3.175000e+00 2.540000e+01 1.429808e+01
      vertex 1.102666e+00 2.540000e+01 1.505235e+01
      vertex 5.080000e+00 2.540000e+01 1.759764e+01
    endloop
  endfacet
  facet normal -8.660254e-01 -8.968101e-17 5.000000e-01
    outer loop
      vertex -5.080000e+00 2.540000e+01 1.759764e+01
      vertex -1.016000e+01 2.540000e+01 8.798818e+00
      vertex -1.016000e+01 -4.768372e-07 8.798818e+00
    endloop
  endfacet
  facet normal -8.660254e-01 -1.195747e-16 5.000000e-01
    outer loop
      vertex -1.016000e+01 -4.768372e-07 8.798818e+00
      vertex -5.080000e+00 -4.768372e-07 1.759764e+01
      vertex -5.080000e+00 2.540000e+01 1.759764e+01
    endloop
  endfacet
  facet normal -8.660254e-01 1.564472e-16 -5.000000e-01
    outer loop
      vertex -5.080000e+00 2.540000e+01 3.910798e-15
      vertex -5.080000e+00 -4.768372e-07 1.442372e-14
      vertex -1.016000e+01 -4.768372e-07 8.798818e+00
    endloop
  endfacet
  facet normal -8.660254e-01 1.195747e-16 -5.000000e-01
    outer loop
      vertex -5.080000e+00 -4.768372e-07 1.442372e-14
      vertex -7.982857e+00 -1.451429e+01 5.027896e+00
      vertex -1.016000e+01 -4.768372e-07 8.798818e+00
    endloop
  endfacet
  facet normal -8.660254e-01 2.447736e-16 -5.000000e-01
    outer loop
      vertex -1.016000e+01 -4.768372e-07 8.798818e+00
      vertex -1.016000e+01 2.540000e+01 8.798818e+00
      vertex -5.080000e+00 2.540000e+01 3.910798e-15
    endloop
  endfacet
  facet normal 1.221245e-15 1.836970e-16 -1.000000e+00
    outer loop
      vertex 5.080000e+00 -4.768372e-07 1.273695e-14
      vertex -5.080000e+00 -4.768372e-07 3.290960e-16
      vertex -5.080000e+00 2.540000e+01 4.995000e-15
    endloop
  endfacet
  facet normal 1.221245e-15 1.836970e-16 -1.000000e+00
    outer loop
      vertex -5.080000e+00 2.540000e+01 4.995000e-15
      vertex 5.080000e+00 2.540000e+01 1.740285e-14
      vertex 5.080000e+00 -4.768372e-07 1.273695e-14
    endloop
  endfacet
  facet normal 1.221245e-15 1.836970e-16 -1.000000e+00
    outer loop
      vertex 5.080000e+00 -4.768372e-07 1.273695e-14
      vertex 7.257137e-01 -1.451429e+01 4.753066e-15
      vertex -5.080000e+00 -4.768372e-07 3.290960e-16
    endloop
  endfacet
  facet normal 8.660254e-01 8.290254e-17 -5.000000e-01
    outer loop
      vertex 1.016000e+01 2.540000e+01 8.798818e+00
      vertex 1.016000e+01 -4.768372e-07 8.798818e+00
      vertex 5.080000e+00 -4.768372e-07 1.251168e-14
    endloop
  endfacet
  facet normal 8.660254e-01 1.039056e-16 -5.000000e-01
    outer loop
      vertex 5.080000e+00 -4.768372e-07 1.251168e-14
      vertex 5.080000e+00 2.540000e+01 1.317497e-14
      vertex 1.016000e+01 2.540000e+01 8.798818e+00
    endloop
  endfacet
  facet normal 8.660254e-01 -2.989367e-17 5.000000e-01
    outer loop
      vertex 5.080000e+00 -4.768372e-07 1.759764e+01
      vertex 1.016000e+01 -4.768372e-07 8.798818e+00
      vertex 1.016000e+01 2.540000e+01 8.798818e+00
    endloop
  endfacet
  facet normal 8.660254e-01 -2.092557e-16 5.000000e-01
    outer loop
      vertex 5.080000e+00 -4.768372e-07 1.759764e+01
      vertex 7.982857e+00 -1.451429e+01 1.256974e+01
      vertex 1.016000e+01 -4.768372e-07 8.798818e+00
    endloop
  endfacet
  facet normal 8.660254e-01 -8.968101e-17 5.000000e-01
    outer loop
      vertex 1.016000e+01 2.540000e+01 8.798818e+00
      vertex 5.080000e+00 2.540000e+01 1.759764e+01
      vertex 5.080000e+00 -4.768372e-07 1.759764e+01
    endloop
  endfacet
  facet normal -1.049030e-15 -1.398706e-16 1.000000e+00
    outer loop
      vertex -5.080000e+00 2.540000e+01 1.759764e+01
      vertex -5.080000e+00 -4.768372e-07 1.759764e+01
      vertex 5.080000e+00 -4.768372e-07 1.759764e+01
    endloop
  endfacet
  facet normal -1.049030e-15 -1.398706e-16 1.000000e+00
    outer loop
      vertex 5.080000e+00 -4.768372e-07 1.759764e+01
      vertex 5.080000e+00 2.540000e+01 1.759764e+01
      vertex -5.080000e+00 2.540000e+01 1.759764e+01
    endloop
  endfacet
  facet normal -1.049030e-15 -3.147089e-16 1.000000e+00
    outer loop
      vertex -5.080000e+00 -4.768372e-07 1.759764e+01
      vertex -7.257147e-01 -1.451429e+01 1.759764e+01
      vertex 5.080000e+00 -4.768372e-07 1.759764e+01
    endloop
  endfacet
  facet normal 4.902903e-01 -1.961161e-01 8.492078e-01
    outer loop
      vertex -7.257147e-01 -1.451429e+01 1.759764e+01
      vertex 6.350002e-01 -2.540000e+01 1.429808e+01
      vertex 4.445000e+00 -2.540000e+01 1.209838e+01
    endloop
  endfacet
  facet normal 4.902903e-01 -1.961161e-01 8.492078e-01
    outer loop
      vertex 4.445000e+00 -2.540000e+01 1.209838e+01
      vertex 7.982857e+00 -1.451429e+01 1.256974e+01
      vertex -7.257147e-01 -1.451429e+01 1.759764e+01
    endloop
  endfacet
  facet normal 4.902903e-01 -1.961161e-01 8.492078e-01
    outer loop
      vertex 7.982857e+00 -1.451429e+01 1.256974e+01
      vertex 5.080000e+00 -4.768372e-07 1.759764e+01
      vertex -7.257147e-01 -1.451429e+01 1.759764e+01
    endloop
  endfacet
  facet normal -4.902903e-01 -1.961161e-01 -8.492078e-01
    outer loop
      vertex -7.982857e+00 -1.451429e+01 5.027896e+00
      vertex 7.257137e-01 -1.451429e+01 8.673617e-15
      vertex -6.350002e-01 -2.540000e+01 3.299557e+00
    endloop
  endfacet
  facet normal -4.902903e-01 -1.961161e-01 -8.492078e-01
    outer loop
      vertex -6.350002e-01 -2.540000e+01 3.299557e+00
      vertex -4.445000e+00 -2.540000e+01 5.499261e+00
      vertex -7.982857e+00 -1.451429e+01 5.027896e+00
    endloop
  endfacet
  facet normal -4.902903e-01 -1.961161e-01 -8.492078e-01
    outer loop
      vertex -7.982857e+00 -1.451429e+01 5.027896e+00
      vertex -5.080000e+00 -4.768372e-07 8.673617e-15
      vertex 7.257137e-01 -1.451429e+01 8.673617e-15
    endloop
  endfacet
  facet normal -1.748383e-16 -1.000000e+00 -3.028288e-16
    outer loop
      vertex 6.350002e-01 -2.540000e+01 1.429808e+01
      vertex -4.445000e+00 -2.540000e+01 5.499261e+00
      vertex -6.350002e-01 -2.540000e+01 3.299557e+00
    endloop
  endfacet
  facet normal -1.748383e-16 -1.000000e+00 -3.028288e-16
    outer loop
      vertex -6.350002e-01 -2.540000e+01 3.299557e+00
      vertex 4.445000e+00 -2.540000e+01 1.209838e+01
      vertex 6.350002e-01 -2.540000e+01 1.429808e+01
    endloop
  endfacet
  facet normal -8.381981e-01 -2.514594e-01 4.839339e-01
    outer loop
      vertex -7.982857e+00 -1.451429e+01 5.027896e+00
      vertex -5.622229e+00 -1.582029e+01 8.438004e+00
      vertex -5.640871e+00 -1.532116e+01 8.665069e+00
    endloop
  endfacet
  facet normal -8.381981e-01 -2.514594e-01 4.839339e-01
    outer loop
      vertex -7.982857e+00 -1.451429e+01 5.027896e+00
      vertex -5.366152e+00 -1.695841e+01 8.290159e+00
      vertex -5.494190e+00 -1.638935e+01 8.364082e+00
    endloop
  endfacet
  facet normal -8.381981e-01 -2.514594e-01 4.839339e-01
    outer loop
      vertex -4.445000e+00 -2.540000e+01 5.499261e+00
      vertex -4.929785e+00 -1.801589e+01 8.496486e+00
      vertex -5.160187e+00 -1.745754e+01 8.387546e+00
    endloop
  endfacet
  facet normal -8.381981e-01 -2.514594e-01 4.839339e-01
    outer loop
      vertex -7.982857e+00 -1.451429e+01 5.027896e+00
      vertex -5.661728e+00 -1.476281e+01 8.919072e+00
      vertex -5.582275e+00 -1.438014e+01 9.255531e+00
    endloop
  endfacet
  facet normal -8.381981e-01 -2.514594e-01 4.839339e-01
    outer loop
      vertex -5.494190e+00 -1.638935e+01 8.364082e+00
      vertex -5.622229e+00 -1.582029e+01 8.438004e+00
      vertex -7.982857e+00 -1.451429e+01 5.027896e+00
    endloop
  endfacet
  facet normal -8.381981e-01 -2.514594e-01 4.839339e-01
    outer loop
      vertex -5.160187e+00 -1.745754e+01 8.387546e+00
      vertex -7.982857e+00 -1.451429e+01 5.027896e+00
      vertex -4.445000e+00 -2.540000e+01 5.499261e+00
    endloop
  endfacet
  facet normal -8.381981e-01 -2.514594e-01 4.839339e-01
    outer loop
      vertex -5.582275e+00 -1.438014e+01 9.255531e+00
      vertex -1.016000e+01 -4.768372e-07 8.798818e+00
      vertex -7.982857e+00 -1.451429e+01 5.027896e+00
    endloop
  endfacet
  facet normal -8.381981e-01 -2.514594e-01 4.839339e-01
    outer loop
      vertex -5.160187e+00 -1.745754e+01 8.387546e+00
      vertex -5.366152e+00 -1.695841e+01 8.290159e+00
      vertex -7.982857e+00 -1.451429e+01 5.027896e+00
    endloop
  endfacet
  facet normal -8.381981e-01 -2.514594e-01 4.839339e-01
    outer loop
      vertex -5.640871e+00 -1.532116e+01 8.665069e+00
      vertex -5.661728e+00 -1.476281e+01 8.919072e+00
      vertex -7.982857e+00 -1.451429e+01 5.027896e+00
    endloop
  endfacet
  facet normal -8.381981e-01 -2.514594e-01 4.839339e-01
    outer loop
      vertex -4.445000e+00 -2.540000e+01 5.499261e+00
      vertex -4.378658e+00 -1.885395e+01 9.015596e+00
      vertex -4.678129e+00 -1.839857e+01 8.733522e+00
    endloop
  endfacet
  facet normal -8.381981e-01 -2.514594e-01 4.839339e-01
    outer loop
      vertex 6.350002e-01 -2.540000e+01 1.429808e+01
      vertex -7.257147e-01 -1.451429e+01 1.759764e+01
      vertex -2.223921e+00 -1.745754e+01 1.347331e+01
    endloop
  endfacet
  facet normal -8.381981e-01 -2.514594e-01 4.839339e-01
    outer loop
      vertex -4.678129e+00 -1.839857e+01 8.733522e+00
      vertex -4.929785e+00 -1.801589e+01 8.496486e+00
      vertex -4.445000e+00 -2.540000e+01 5.499261e+00
    endloop
  endfacet
  facet normal -8.381981e-01 -2.514594e-01 4.839339e-01
    outer loop
      vertex -4.445000e+00 -2.540000e+01 5.499261e+00
      vertex -3.786072e+00 -1.938397e+01 9.766580e+00
      vertex -4.105253e+00 -1.909849e+01 9.362082e+00
    endloop
  endfacet
  facet normal -8.381981e-01 -2.514594e-01 4.839339e-01
    outer loop
      vertex -7.257147e-01 -1.451429e+01 1.759764e+01
      vertex -2.242564e+00 -1.695841e+01 1.370037e+01
      vertex -2.223921e+00 -1.745754e+01 1.347331e+01
    endloop
  endfacet
  facet normal -8.381981e-01 -2.514594e-01 4.839339e-01
    outer loop
      vertex -7.257147e-01 -1.451429e+01 1.759764e+01
      vertex -2.935007e+00 -1.476281e+01 1.364189e+01
      vertex -2.704605e+00 -1.532116e+01 1.375083e+01
    endloop
  endfacet
  facet normal -8.381981e-01 -2.514594e-01 4.839339e-01
    outer loop
      vertex -7.257147e-01 -1.451429e+01 1.759764e+01
      vertex -5.080000e+00 -4.768372e-07 1.759764e+01
      vertex -3.186663e+00 -1.438014e+01 1.340485e+01
    endloop
  endfacet
  facet normal -8.381981e-01 -2.514594e-01 4.839339e-01
    outer loop
      vertex -1.016000e+01 -4.768372e-07 8.798818e+00
      vertex -5.487728e+00 -1.392475e+01 9.655918e+00
      vertex -5.324366e+00 -1.368021e+01 1.006594e+01
    endloop
  endfacet
  facet normal -8.381981e-01 -2.514594e-01 4.839339e-01
    outer loop
      vertex -4.105253e+00 -1.909849e+01 9.362082e+00
      vertex -4.378658e+00 -1.885395e+01 9.015596e+00
      vertex -4.445000e+00 -2.540000e+01 5.499261e+00
    endloop
  endfacet
  facet normal -8.381981e-01 -2.514594e-01 4.839339e-01
    outer loop
      vertex 6.350002e-01 -2.540000e+01 1.429808e+01
      vertex -2.203065e+00 -1.801589e+01 1.321930e+01
      vertex -2.282516e+00 -1.839857e+01 1.288284e+01
    endloop
  endfacet
  facet normal -8.381981e-01 -2.514594e-01 4.839339e-01
    outer loop
      vertex -7.257147e-01 -1.451429e+01 1.759764e+01
      vertex -2.370603e+00 -1.638935e+01 1.377429e+01
      vertex -2.242564e+00 -1.695841e+01 1.370037e+01
    endloop
  endfacet
  facet normal -8.381981e-01 -2.514594e-01 4.839339e-01
    outer loop
      vertex -2.704605e+00 -1.532116e+01 1.375083e+01
      vertex -2.498640e+00 -1.582029e+01 1.384822e+01
      vertex -7.257147e-01 -1.451429e+01 1.759764e+01
    endloop
  endfacet
  facet normal -8.381981e-01 -2.514594e-01 4.839339e-01
    outer loop
      vertex -5.080000e+00 -4.768372e-07 1.759764e+01
      vertex -3.486134e+00 -1.392475e+01 1.312278e+01
      vertex -3.186663e+00 -1.438014e+01 1.340485e+01
    endloop
  endfacet
  facet normal -8.381981e-01 -2.514594e-01 4.839339e-01
    outer loop
      vertex -5.582275e+00 -1.438014e+01 9.255531e+00
      vertex -5.487728e+00 -1.392475e+01 9.655918e+00
      vertex -1.016000e+01 -4.768372e-07 8.798818e+00
    endloop
  endfacet
  facet normal -8.381981e-01 -2.514594e-01 4.839339e-01
    outer loop
      vertex -4.445000e+00 -2.540000e+01 5.499261e+00
      vertex -3.218021e+00 -1.956435e+01 1.065674e+01
      vertex -3.510780e+00 -1.947139e+01 1.019798e+01
    endloop
  endfacet
  facet normal -8.381981e-01 -2.514594e-01 4.839339e-01
    outer loop
      vertex 6.350002e-01 -2.540000e+01 1.429808e+01
      vertex -2.967095e+00 -1.947139e+01 1.113966e+01
      vertex -3.218021e+00 -1.956435e+01 1.065674e+01
    endloop
  endfacet
  facet normal -8.381981e-01 -2.514594e-01 4.839339e-01
    outer loop
      vertex 6.350002e-01 -2.540000e+01 1.429808e+01
      vertex -2.377065e+00 -1.885395e+01 1.248246e+01
      vertex -2.540427e+00 -1.909849e+01 1.207244e+01
    endloop
  endfacet
  facet normal -8.381981e-01 -2.514594e-01 4.839339e-01
    outer loop
      vertex -2.223921e+00 -1.745754e+01 1.347331e+01
      vertex -2.203065e+00 -1.801589e+01 1.321930e+01
      vertex 6.350002e-01 -2.540000e+01 1.429808e+01
    endloop
  endfacet
  facet normal -8.381981e-01 -2.514594e-01 4.839339e-01
    outer loop
      vertex -3.186663e+00 -1.438014e+01 1.340485e+01
      vertex -2.935007e+00 -1.476281e+01 1.364189e+01
      vertex -7.257147e-01 -1.451429e+01 1.759764e+01
    endloop
  endfacet
  facet normal -8.381981e-01 -2.514594e-01 4.839339e-01
    outer loop
      vertex -5.080000e+00 -4.768372e-07 1.759764e+01
      vertex -4.078720e+00 -1.339473e+01 1.237180e+01
      vertex -3.759539e+00 -1.368021e+01 1.277629e+01
    endloop
  endfacet
  facet normal -8.381981e-01 -2.514594e-01 4.839339e-01
    outer loop
      vertex -5.080000e+00 -4.768372e-07 1.759764e+01
      vertex -1.016000e+01 -4.768372e-07 8.798818e+00
      vertex -4.646770e+00 -1.321435e+01 1.148163e+01
    endloop
  endfacet
  facet normal -8.381981e-01 -2.514594e-01 4.839339e-01
    outer loop
      vertex -1.016000e+01 -4.768372e-07 8.798818e+00
      vertex -5.133650e+00 -1.339473e+01 1.054460e+01
      vertex -4.897697e+00 -1.330732e+01 1.099871e+01
    endloop
  endfacet
  facet normal -8.381981e-01 -2.514594e-01 4.839339e-01
    outer loop
      vertex -3.510780e+00 -1.947139e+01 1.019798e+01
      vertex -3.786072e+00 -1.938397e+01 9.766580e+00
      vertex -4.445000e+00 -2.540000e+01 5.499261e+00
    endloop
  endfacet
  facet normal -8.381981e-01 -2.514594e-01 4.839339e-01
    outer loop
      vertex 6.350002e-01 -2.540000e+01 1.429808e+01
      vertex -2.731142e+00 -1.938397e+01 1.159377e+01
      vertex -2.967095e+00 -1.947139e+01 1.113966e+01
    endloop
  endfacet
  facet normal -8.381981e-01 -2.514594e-01 4.839339e-01
    outer loop
      vertex -2.282516e+00 -1.839857e+01 1.288284e+01
      vertex -2.377065e+00 -1.885395e+01 1.248246e+01
      vertex 6.350002e-01 -2.540000e+01 1.429808e+01
    endloop
  endfacet
  facet normal -8.381981e-01 -2.514594e-01 4.839339e-01
    outer loop
      vertex -3.759539e+00 -1.368021e+01 1.277629e+01
      vertex -3.486134e+00 -1.392475e+01 1.312278e+01
      vertex -5.080000e+00 -4.768372e-07 1.759764e+01
    endloop
  endfacet
  facet normal -8.381981e-01 -2.514594e-01 4.839339e-01
    outer loop
      vertex -4.646770e+00 -1.321435e+01 1.148163e+01
      vertex -4.354012e+00 -1.330732e+01 1.194040e+01
      vertex -5.080000e+00 -4.768372e-07 1.759764e+01
    endloop
  endfacet
  facet normal -8.381981e-01 -2.514594e-01 4.839339e-01
    outer loop
      vertex -5.324366e+00 -1.368021e+01 1.006594e+01
      vertex -5.133650e+00 -1.339473e+01 1.054460e+01
      vertex -1.016000e+01 -4.768372e-07 8.798818e+00
    endloop
  endfacet
  facet normal -8.381981e-01 -2.514594e-01 4.839339e-01
    outer loop
      vertex -2.540427e+00 -1.909849e+01 1.207244e+01
      vertex -2.731142e+00 -1.938397e+01 1.159377e+01
      vertex 6.350002e-01 -2.540000e+01 1.429808e+01
    endloop
  endfacet
  facet normal -8.381981e-01 -2.514594e-01 4.839339e-01
    outer loop
      vertex -4.354012e+00 -1.330732e+01 1.194040e+01
      vertex -4.078720e+00 -1.339473e+01 1.237180e+01
      vertex -5.080000e+00 -4.768372e-07 1.759764e+01
    endloop
  endfacet
  facet normal -8.381981e-01 -2.514594e-01 4.839339e-01
    outer loop
      vertex -3.218021e+00 -1.956435e+01 1.065674e+01
      vertex -4.445000e+00 -2.540000e+01 5.499261e+00
      vertex 6.350002e-01 -2.540000e+01 1.429808e+01
    endloop
  endfacet
  facet normal -8.381981e-01 -2.514594e-01 4.839339e-01
    outer loop
      vertex -4.897697e+00 -1.330732e+01 1.099871e+01
      vertex -4.646770e+00 -1.321435e+01 1.148163e+01
      vertex -1.016000e+01 -4.768372e-07 8.798818e+00
    endloop
  endfacet
  facet normal -8.381981e-01 -2.514594e-01 4.839339e-01
    outer loop
      vertex -2.498640e+00 -1.582029e+01 1.384822e+01
      vertex -2.370603e+00 -1.638935e+01 1.377429e+01
      vertex -7.257147e-01 -1.451429e+01 1.759764e+01
    endloop
  endfacet
  facet normal 8.381981e-01 -2.514594e-01 -4.839339e-01
    outer loop
      vertex 7.982857e+00 -1.451429e+01 1.256974e+01
      vertex 5.622228e+00 -1.582029e+01 9.159632e+00
      vertex 5.640871e+00 -1.532116e+01 8.932568e+00
    endloop
  endfacet
  facet normal 8.381981e-01 -2.514594e-01 -4.839339e-01
    outer loop
      vertex 7.982857e+00 -1.451429e+01 1.256974e+01
      vertex 5.366151e+00 -1.695841e+01 9.307477e+00
      vertex 5.494190e+00 -1.638935e+01 9.233554e+00
    endloop
  endfacet
  facet normal 8.381981e-01 -2.514594e-01 -4.839339e-01
    outer loop
      vertex 4.445000e+00 -2.540000e+01 1.209838e+01
      vertex 4.929785e+00 -1.801589e+01 9.101151e+00
      vertex 5.160186e+00 -1.745754e+01 9.210091e+00
    endloop
  endfacet
  facet normal 8.381981e-01 -2.514594e-01 -4.839339e-01
    outer loop
      vertex 5.494190e+00 -1.638935e+01 9.233554e+00
      vertex 5.622228e+00 -1.582029e+01 9.159632e+00
      vertex 7.982857e+00 -1.451429e+01 1.256974e+01
    endloop
  endfacet
  facet normal 8.381981e-01 -2.514594e-01 -4.839339e-01
    outer loop
      vertex 5.160186e+00 -1.745754e+01 9.210091e+00
      vertex 7.982857e+00 -1.451429e+01 1.256974e+01
      vertex 4.445000e+00 -2.540000e+01 1.209838e+01
    endloop
  endfacet
  facet normal 8.381981e-01 -2.514594e-01 -4.839339e-01
    outer loop
      vertex 7.982857e+00 -1.451429e+01 1.256974e+01
      vertex 5.661727e+00 -1.476281e+01 8.678564e+00
      vertex 5.582275e+00 -1.438014e+01 8.342105e+00
    endloop
  endfacet
  facet normal 8.381981e-01 -2.514594e-01 -4.839339e-01
    outer loop
      vertex 5.160186e+00 -1.745754e+01 9.210091e+00
      vertex 5.366151e+00 -1.695841e+01 9.307477e+00
      vertex 7.982857e+00 -1.451429e+01 1.256974e+01
    endloop
  endfacet
  facet normal 8.381981e-01 -2.514594e-01 -4.839339e-01
    outer loop
      vertex 4.445000e+00 -2.540000e+01 1.209838e+01
      vertex 4.378657e+00 -1.885395e+01 8.582040e+00
      vertex 4.678129e+00 -1.839857e+01 8.864114e+00
    endloop
  endfacet
  facet normal 8.381981e-01 -2.514594e-01 -4.839339e-01
    outer loop
      vertex 5.582275e+00 -1.438014e+01 8.342105e+00
      vertex 1.016000e+01 -4.768372e-07 8.798818e+00
      vertex 7.982857e+00 -1.451429e+01 1.256974e+01
    endloop
  endfacet
  facet normal 8.381981e-01 -2.514594e-01 -4.839339e-01
    outer loop
      vertex 4.678129e+00 -1.839857e+01 8.864114e+00
      vertex 4.929785e+00 -1.801589e+01 9.101151e+00
      vertex 4.445000e+00 -2.540000e+01 1.209838e+01
    endloop
  endfacet
  facet normal 8.381981e-01 -2.514594e-01 -4.839339e-01
    outer loop
      vertex 7.257137e-01 -1.451429e+01 0.000000e+00
      vertex 5.080000e+00 -4.768372e-07 0.000000e+00
      vertex 3.186663e+00 -1.438014e+01 4.192782e+00
    endloop
  endfacet
  facet normal 8.381981e-01 -2.514594e-01 -4.839339e-01
    outer loop
      vertex 5.640871e+00 -1.532116e+01 8.932568e+00
      vertex 5.661727e+00 -1.476281e+01 8.678564e+00
      vertex 7.982857e+00 -1.451429e+01 1.256974e+01
    endloop
  endfacet
  facet normal 8.381981e-01 -2.514594e-01 -4.839339e-01
    outer loop
      vertex 4.445000e+00 -2.540000e+01 1.209838e+01
      vertex 3.786072e+00 -1.938397e+01 7.831057e+00
      vertex 4.105252e+00 -1.909849e+01 8.235554e+00
    endloop
  endfacet
  facet normal 8.381981e-01 -2.514594e-01 -4.839339e-01
    outer loop
      vertex -6.350002e-01 -2.540000e+01 3.299557e+00
      vertex 7.257137e-01 -1.451429e+01 0.000000e+00
      vertex 2.223921e+00 -1.745754e+01 4.124329e+00
    endloop
  endfacet
  facet normal 8.381981e-01 -2.514594e-01 -4.839339e-01
    outer loop
      vertex 7.257137e-01 -1.451429e+01 0.000000e+00
      vertex 2.935006e+00 -1.476281e+01 3.955746e+00
      vertex 2.704605e+00 -1.532116e+01 3.846806e+00
    endloop
  endfacet
  facet normal 8.381981e-01 -2.514594e-01 -4.839339e-01
    outer loop
      vertex 5.080000e+00 -4.768372e-07 0.000000e+00
      vertex 3.486134e+00 -1.392475e+01 4.474857e+00
      vertex 3.186663e+00 -1.438014e+01 4.192782e+00
    endloop
  endfacet
  facet normal 8.381981e-01 -2.514594e-01 -4.839339e-01
    outer loop
      vertex 1.016000e+01 -4.768372e-07 8.798818e+00
      vertex 5.487727e+00 -1.392475e+01 7.941718e+00
      vertex 5.324365e+00 -1.368021e+01 7.531699e+00
    endloop
  endfacet
  facet normal 8.381981e-01 -2.514594e-01 -4.839339e-01
    outer loop
      vertex 4.105252e+00 -1.909849e+01 8.235554e+00
      vertex 4.378657e+00 -1.885395e+01 8.582040e+00
      vertex 4.445000e+00 -2.540000e+01 1.209838e+01
    endloop
  endfacet
  facet normal 8.381981e-01 -2.514594e-01 -4.839339e-01
    outer loop
      vertex 4.445000e+00 -2.540000e+01 1.209838e+01
      vertex -6.350002e-01 -2.540000e+01 3.299557e+00
      vertex 3.218020e+00 -1.956435e+01 6.940893e+00
    endloop
  endfacet
  facet normal 8.381981e-01 -2.514594e-01 -4.839339e-01
    outer loop
      vertex 7.257137e-01 -1.451429e+01 0.000000e+00
      vertex 2.242564e+00 -1.695841e+01 3.897265e+00
      vertex 2.223921e+00 -1.745754e+01 4.124329e+00
    endloop
  endfacet
  facet normal 8.381981e-01 -2.514594e-01 -4.839339e-01
    outer loop
      vertex 7.257137e-01 -1.451429e+01 0.000000e+00
      vertex 2.498640e+00 -1.582029e+01 3.749419e+00
      vertex 2.370603e+00 -1.638935e+01 3.823342e+00
    endloop
  endfacet
  facet normal 8.381981e-01 -2.514594e-01 -4.839339e-01
    outer loop
      vertex 3.186663e+00 -1.438014e+01 4.192782e+00
      vertex 2.935006e+00 -1.476281e+01 3.955746e+00
      vertex 7.257137e-01 -1.451429e+01 0.000000e+00
    endloop
  endfacet
  facet normal 8.381981e-01 -2.514594e-01 -4.839339e-01
    outer loop
      vertex 5.080000e+00 -4.768372e-07 0.000000e+00
      vertex 4.078720e+00 -1.339473e+01 5.225840e+00
      vertex 3.759540e+00 -1.368021e+01 4.821342e+00
    endloop
  endfacet
  facet normal 8.381981e-01 -2.514594e-01 -4.839339e-01
    outer loop
      vertex 1.016000e+01 -4.768372e-07 8.798818e+00
      vertex 4.897696e+00 -1.330732e+01 6.598925e+00
      vertex 4.646770e+00 -1.321435e+01 6.116004e+00
    endloop
  endfacet
  facet normal 8.381981e-01 -2.514594e-01 -4.839339e-01
    outer loop
      vertex 5.582275e+00 -1.438014e+01 8.342105e+00
      vertex 5.487727e+00 -1.392475e+01 7.941718e+00
      vertex 1.016000e+01 -4.768372e-07 8.798818e+00
    endloop
  endfacet
  facet normal 8.381981e-01 -2.514594e-01 -4.839339e-01
    outer loop
      vertex 3.218020e+00 -1.956435e+01 6.940893e+00
      vertex 3.510780e+00 -1.947139e+01 7.399662e+00
      vertex 4.445000e+00 -2.540000e+01 1.209838e+01
    endloop
  endfacet
  facet normal 8.381981e-01 -2.514594e-01 -4.839339e-01
    outer loop
      vertex -6.350002e-01 -2.540000e+01 3.299557e+00
      vertex 2.203065e+00 -1.801589e+01 4.378333e+00
      vertex 2.282516e+00 -1.839857e+01 4.714791e+00
    endloop
  endfacet
  facet normal 8.381981e-01 -2.514594e-01 -4.839339e-01
    outer loop
      vertex 2.370603e+00 -1.638935e+01 3.823342e+00
      vertex 2.242564e+00 -1.695841e+01 3.897265e+00
      vertex 7.257137e-01 -1.451429e+01 0.000000e+00
    endloop
  endfacet
  facet normal 8.381981e-01 -2.514594e-01 -4.839339e-01
    outer loop
      vertex 3.759540e+00 -1.368021e+01 4.821342e+00
      vertex 3.486134e+00 -1.392475e+01 4.474857e+00
      vertex 5.080000e+00 -4.768372e-07 0.000000e+00
    endloop
  endfacet
  facet normal 8.381981e-01 -2.514594e-01 -4.839339e-01
    outer loop
      vertex 5.080000e+00 -4.768372e-07 0.000000e+00
      vertex 4.646770e+00 -1.321435e+01 6.116004e+00
      vertex 4.354012e+00 -1.330732e+01 5.657235e+00
    endloop
  endfacet
  facet normal 8.381981e-01 -2.514594e-01 -4.839339e-01
    outer loop
      vertex 1.016000e+01 -4.768372e-07 8.798818e+00
      vertex 5.133650e+00 -1.339473e+01 7.053032e+00
      vertex 4.897696e+00 -1.330732e+01 6.598925e+00
    endloop
  endfacet
  facet normal 8.381981e-01 -2.514594e-01 -4.839339e-01
    outer loop
      vertex 3.510780e+00 -1.947139e+01 7.399662e+00
      vertex 3.786072e+00 -1.938397e+01 7.831057e+00
      vertex 4.445000e+00 -2.540000e+01 1.209838e+01
    endloop
  endfacet
  facet normal 8.381981e-01 -2.514594e-01 -4.839339e-01
    outer loop
      vertex -6.350002e-01 -2.540000e+01 3.299557e+00
      vertex 2.377065e+00 -1.885395e+01 5.115178e+00
      vertex 2.540427e+00 -1.909849e+01 5.525197e+00
    endloop
  endfacet
  facet normal 8.381981e-01 -2.514594e-01 -4.839339e-01
    outer loop
      vertex 2.223921e+00 -1.745754e+01 4.124329e+00
      vertex 2.203065e+00 -1.801589e+01 4.378333e+00
      vertex -6.350002e-01 -2.540000e+01 3.299557e+00
    endloop
  endfacet
  facet normal 8.381981e-01 -2.514594e-01 -4.839339e-01
    outer loop
      vertex 4.354012e+00 -1.330732e+01 5.657235e+00
      vertex 4.078720e+00 -1.339473e+01 5.225840e+00
      vertex 5.080000e+00 -4.768372e-07 0.000000e+00
    endloop
  endfacet
  facet normal 8.381981e-01 -2.514594e-01 -4.839339e-01
    outer loop
      vertex 5.324365e+00 -1.368021e+01 7.531699e+00
      vertex 5.133650e+00 -1.339473e+01 7.053032e+00
      vertex 1.016000e+01 -4.768372e-07 8.798818e+00
    endloop
  endfacet
  facet normal 8.381981e-01 -2.514594e-01 -4.839339e-01
    outer loop
      vertex -6.350002e-01 -2.540000e+01 3.299557e+00
      vertex 2.731141e+00 -1.938397e+01 6.003865e+00
      vertex 2.967095e+00 -1.947139e+01 6.457972e+00
    endloop
  endfacet
  facet normal 8.381981e-01 -2.514594e-01 -4.839339e-01
    outer loop
      vertex 2.282516e+00 -1.839857e+01 4.714791e+00
      vertex 2.377065e+00 -1.885395e+01 5.115178e+00
      vertex -6.350002e-01 -2.540000e+01 3.299557e+00
    endloop
  endfacet
  facet normal 8.381981e-01 -2.514594e-01 -4.839339e-01
    outer loop
      vertex 4.646770e+00 -1.321435e+01 6.116004e+00
      vertex 5.080000e+00 -4.768372e-07 0.000000e+00
      vertex 1.016000e+01 -4.768372e-07 8.798818e+00
    endloop
  endfacet
  facet normal 8.381981e-01 -2.514594e-01 -4.839339e-01
    outer loop
      vertex 2.540427e+00 -1.909849e+01 5.525197e+00
      vertex 2.731141e+00 -1.938397e+01 6.003865e+00
      vertex -6.350002e-01 -2.540000e+01 3.299557e+00
    endloop
  endfacet
  facet normal 8.381981e-01 -2.514594e-01 -4.839339e-01
    outer loop
      vertex 2.967095e+00 -1.947139e+01 6.457972e+00
      vertex 3.218020e+00 -1.956435e+01 6.940893e+00
      vertex -6.350002e-01 -2.540000e+01 3.299557e+00
    endloop
  endfacet
  facet normal 8.381981e-01 -2.514594e-01 -4.839339e-01
    outer loop
      vertex 2.704605e+00 -1.532116e+01 3.846806e+00
      vertex 2.498640e+00 -1.582029e+01 3.749419e+00
      vertex 7.257137e-01 -1.451429e+01 0.000000e+00
    endloop
  endfacet
  facet normal 8.427089e-02 9.856945e-01 1.459615e-01
    outer loop
      vertex 2.731141e+00 -1.938397e+01 6.003865e+00
      vertex -3.786072e+00 -1.938397e+01 9.766580e+00
      vertex -3.510780e+00 -1.947139e+01 1.019798e+01
    endloop
  endfacet
  facet normal 2.442628e-01 8.725496e-01 4.230756e-01
    outer loop
      vertex 2.731141e+00 -1.938397e+01 6.003865e+00
      vertex -4.105253e+00 -1.909849e+01 9.362082e+00
      vertex -3.786072e+00 -1.938397e+01 9.766580e+00
    endloop
  endfacet
  facet normal 8.427089e-02 9.856945e-01 1.459615e-01
    outer loop
      vertex -3.510780e+00 -1.947139e+01 1.019798e+01
      vertex 2.967095e+00 -1.947139e+01 6.457972e+00
      vertex 2.731141e+00 -1.938397e+01 6.003865e+00
    endloop
  endfacet
  facet normal 2.442628e-01 8.725496e-01 4.230756e-01
    outer loop
      vertex -4.378658e+00 -1.885395e+01 9.015596e+00
      vertex -4.105253e+00 -1.909849e+01 9.362082e+00
      vertex 2.540427e+00 -1.909849e+01 5.525197e+00
    endloop
  endfacet
  facet normal 3.781110e-01 6.543151e-01 6.549075e-01
    outer loop
      vertex 2.377065e+00 -1.885395e+01 5.115178e+00
      vertex -4.678129e+00 -1.839857e+01 8.733522e+00
      vertex -4.378658e+00 -1.885395e+01 9.015596e+00
    endloop
  endfacet
  facet normal 2.442628e-01 8.725496e-01 4.230756e-01
    outer loop
      vertex 2.540427e+00 -1.909849e+01 5.525197e+00
      vertex 2.377065e+00 -1.885395e+01 5.115178e+00
      vertex -4.378658e+00 -1.885395e+01 9.015596e+00
    endloop
  endfacet
  facet normal 3.781110e-01 6.543151e-01 6.549075e-01
    outer loop
      vertex -4.929785e+00 -1.801589e+01 8.496486e+00
      vertex -4.678129e+00 -1.839857e+01 8.733522e+00
      vertex 2.282516e+00 -1.839857e+01 4.714791e+00
    endloop
  endfacet
  facet normal 3.781110e-01 6.543151e-01 6.549075e-01
    outer loop
      vertex 2.282516e+00 -1.839857e+01 4.714791e+00
      vertex 2.203065e+00 -1.801589e+01 4.378333e+00
      vertex -4.929785e+00 -1.801589e+01 8.496486e+00
    endloop
  endfacet
  facet normal 4.681191e-01 3.513660e-01 8.108060e-01
    outer loop
      vertex 2.223921e+00 -1.745754e+01 4.124329e+00
      vertex -5.160187e+00 -1.745754e+01 8.387546e+00
      vertex -4.929785e+00 -1.801589e+01 8.496486e+00
    endloop
  endfacet
  facet normal 4.681191e-01 3.513660e-01 8.108060e-01
    outer loop
      vertex -5.366152e+00 -1.695841e+01 8.290159e+00
      vertex -5.160187e+00 -1.745754e+01 8.387546e+00
      vertex 2.223921e+00 -1.745754e+01 4.124329e+00
    endloop
  endfacet
  facet normal 4.681191e-01 3.513660e-01 8.108060e-01
    outer loop
      vertex 2.223921e+00 -1.745754e+01 4.124329e+00
      vertex 2.242564e+00 -1.695841e+01 3.897265e+00
      vertex -5.366152e+00 -1.695841e+01 8.290159e+00
    endloop
  endfacet
  facet normal 5.000000e-01 0.000000e+00 8.660254e-01
    outer loop
      vertex 2.370603e+00 -1.638935e+01 3.823342e+00
      vertex -5.494190e+00 -1.638935e+01 8.364082e+00
      vertex -5.366152e+00 -1.695841e+01 8.290159e+00
    endloop
  endfacet
  facet normal 5.000000e-01 -4.510117e-15 8.660254e-01
    outer loop
      vertex 2.498640e+00 -1.582029e+01 3.749419e+00
      vertex -5.622229e+00 -1.582029e+01 8.438004e+00
      vertex -5.494190e+00 -1.638935e+01 8.364082e+00
    endloop
  endfacet
  facet normal 4.681191e-01 -3.513660e-01 8.108060e-01
    outer loop
      vertex 2.498640e+00 -1.582029e+01 3.749419e+00
      vertex -5.640871e+00 -1.532116e+01 8.665069e+00
      vertex -5.622229e+00 -1.582029e+01 8.438004e+00
    endloop
  endfacet
  facet normal 5.000000e-01 -2.706070e-15 8.660254e-01
    outer loop
      vertex -5.494190e+00 -1.638935e+01 8.364082e+00
      vertex 2.370603e+00 -1.638935e+01 3.823342e+00
      vertex 2.498640e+00 -1.582029e+01 3.749419e+00
    endloop
  endfacet
  facet normal 4.681191e-01 -3.513660e-01 8.108060e-01
    outer loop
      vertex 2.935006e+00 -1.476281e+01 3.955746e+00
      vertex -5.661728e+00 -1.476281e+01 8.919072e+00
      vertex -5.640871e+00 -1.532116e+01 8.665069e+00
    endloop
  endfacet
  facet normal 4.681191e-01 -3.513660e-01 8.108060e-01
    outer loop
      vertex -5.640871e+00 -1.532116e+01 8.665069e+00
      vertex 2.704605e+00 -1.532116e+01 3.846806e+00
      vertex 2.935006e+00 -1.476281e+01 3.955746e+00
    endloop
  endfacet
  facet normal 3.781110e-01 -6.543151e-01 6.549075e-01
    outer loop
      vertex 3.186663e+00 -1.438014e+01 4.192782e+00
      vertex -5.582275e+00 -1.438014e+01 9.255531e+00
      vertex -5.661728e+00 -1.476281e+01 8.919072e+00
    endloop
  endfacet
  facet normal 3.781110e-01 -6.543151e-01 6.549075e-01
    outer loop
      vertex -5.487728e+00 -1.392475e+01 9.655918e+00
      vertex -5.582275e+00 -1.438014e+01 9.255531e+00
      vertex 3.186663e+00 -1.438014e+01 4.192782e+00
    endloop
  endfacet
  facet normal 2.442628e-01 -8.725496e-01 4.230756e-01
    outer loop
      vertex 3.486134e+00 -1.392475e+01 4.474857e+00
      vertex -5.324366e+00 -1.368021e+01 1.006594e+01
      vertex -5.487728e+00 -1.392475e+01 9.655918e+00
    endloop
  endfacet
  facet normal 3.781110e-01 -6.543151e-01 6.549075e-01
    outer loop
      vertex 3.186663e+00 -1.438014e+01 4.192782e+00
      vertex 3.486134e+00 -1.392475e+01 4.474857e+00
      vertex -5.487728e+00 -1.392475e+01 9.655918e+00
    endloop
  endfacet
  facet normal 2.442628e-01 -8.725496e-01 4.230756e-01
    outer loop
      vertex 4.078720e+00 -1.339473e+01 5.225840e+00
      vertex -5.133650e+00 -1.339473e+01 1.054460e+01
      vertex -5.324366e+00 -1.368021e+01 1.006594e+01
    endloop
  endfacet
  facet normal 8.427089e-02 -9.856945e-01 1.459615e-01
    outer loop
      vertex 4.078720e+00 -1.339473e+01 5.225840e+00
      vertex -4.897697e+00 -1.330732e+01 1.099871e+01
      vertex -5.133650e+00 -1.339473e+01 1.054460e+01
    endloop
  endfacet
  facet normal 2.442628e-01 -8.725496e-01 4.230756e-01
    outer loop
      vertex -5.324366e+00 -1.368021e+01 1.006594e+01
      vertex 3.759540e+00 -1.368021e+01 4.821342e+00
      vertex 4.078720e+00 -1.339473e+01 5.225840e+00
    endloop
  endfacet
  facet normal -8.427089e-02 -9.856945e-01 -1.459615e-01
    outer loop
      vertex 4.646770e+00 -1.321435e+01 6.116004e+00
      vertex 4.897696e+00 -1.330732e+01 6.598925e+00
      vertex -4.354012e+00 -1.330732e+01 1.194040e+01
    endloop
  endfacet
  facet normal 8.427089e-02 -9.856945e-01 1.459615e-01
    outer loop
      vertex 4.646770e+00 -1.321435e+01 6.116004e+00
      vertex -4.646770e+00 -1.321435e+01 1.148163e+01
      vertex -4.897697e+00 -1.330732e+01 1.099871e+01
    endloop
  endfacet
  facet normal 8.427089e-02 -9.856945e-01 1.459615e-01
    outer loop
      vertex -4.897697e+00 -1.330732e+01 1.099871e+01
      vertex 4.354012e+00 -1.330732e+01 5.657235e+00
      vertex 4.646770e+00 -1.321435e+01 6.116004e+00
    endloop
  endfacet
  facet normal -2.442628e-01 -8.725496e-01 -4.230756e-01
    outer loop
      vertex 5.133650e+00 -1.339473e+01 7.053032e+00
      vertex 5.324365e+00 -1.368021e+01 7.531699e+00
      vertex -3.759539e+00 -1.368021e+01 1.277629e+01
    endloop
  endfacet
  facet normal -2.442628e-01 -8.725496e-01 -4.230756e-01
    outer loop
      vertex -3.759539e+00 -1.368021e+01 1.277629e+01
      vertex -4.078720e+00 -1.339473e+01 1.237180e+01
      vertex 5.133650e+00 -1.339473e+01 7.053032e+00
    endloop
  endfacet
  facet normal -8.427089e-02 -9.856945e-01 -1.459615e-01
    outer loop
      vertex -4.354012e+00 -1.330732e+01 1.194040e+01
      vertex 4.897696e+00 -1.330732e+01 6.598925e+00
      vertex 5.133650e+00 -1.339473e+01 7.053032e+00
    endloop
  endfacet
  facet normal -3.781110e-01 -6.543151e-01 -6.549075e-01
    outer loop
      vertex -3.486134e+00 -1.392475e+01 1.312278e+01
      vertex 5.487727e+00 -1.392475e+01 7.941718e+00
      vertex 5.582275e+00 -1.438014e+01 8.342105e+00
    endloop
  endfacet
  facet normal -2.442628e-01 -8.725496e-01 -4.230756e-01
    outer loop
      vertex -3.486134e+00 -1.392475e+01 1.312278e+01
      vertex 5.324365e+00 -1.368021e+01 7.531699e+00
      vertex 5.487727e+00 -1.392475e+01 7.941718e+00
    endloop
  endfacet
  facet normal -3.781110e-01 -6.543151e-01 -6.549075e-01
    outer loop
      vertex 5.582275e+00 -1.438014e+01 8.342105e+00
      vertex -3.186663e+00 -1.438014e+01 1.340485e+01
      vertex -3.486134e+00 -1.392475e+01 1.312278e+01
    endloop
  endfacet
  facet normal -4.681191e-01 -3.513660e-01 -8.108060e-01
    outer loop
      vertex 5.661727e+00 -1.476281e+01 8.678564e+00
      vertex 5.640871e+00 -1.532116e+01 8.932568e+00
      vertex -2.704605e+00 -1.532116e+01 1.375083e+01
    endloop
  endfacet
  facet normal -4.681191e-01 -3.513660e-01 -8.108060e-01
    outer loop
      vertex -2.704605e+00 -1.532116e+01 1.375083e+01
      vertex -2.935007e+00 -1.476281e+01 1.364189e+01
      vertex 5.661727e+00 -1.476281e+01 8.678564e+00
    endloop
  endfacet
  facet normal -3.781110e-01 -6.543151e-01 -6.549075e-01
    outer loop
      vertex -3.186663e+00 -1.438014e+01 1.340485e+01
      vertex 5.582275e+00 -1.438014e+01 8.342105e+00
      vertex 5.661727e+00 -1.476281e+01 8.678564e+00
    endloop
  endfacet
  facet normal -5.000000e-01 2.706070e-15 -8.660254e-01
    outer loop
      vertex -2.498640e+00 -1.582029e+01 1.384822e+01
      vertex 5.622228e+00 -1.582029e+01 9.159632e+00
      vertex 5.494190e+00 -1.638935e+01 9.233554e+00
    endloop
  endfacet
  facet normal -4.681191e-01 -3.513660e-01 -8.108060e-01
    outer loop
      vertex -2.498640e+00 -1.582029e+01 1.384822e+01
      vertex 5.640871e+00 -1.532116e+01 8.932568e+00
      vertex 5.622228e+00 -1.582029e+01 9.159632e+00
    endloop
  endfacet
  facet normal -5.000000e-01 -9.020233e-16 -8.660254e-01
    outer loop
      vertex 5.494190e+00 -1.638935e+01 9.233554e+00
      vertex -2.370603e+00 -1.638935e+01 1.377429e+01
      vertex -2.498640e+00 -1.582029e+01 1.384822e+01
    endloop
  endfacet
  facet normal -4.681191e-01 3.513660e-01 -8.108060e-01
    outer loop
      vertex 5.366151e+00 -1.695841e+01 9.307477e+00
      vertex 5.160186e+00 -1.745754e+01 9.210091e+00
      vertex -2.223921e+00 -1.745754e+01 1.347331e+01
    endloop
  endfacet
  facet normal -4.681191e-01 3.513660e-01 -8.108060e-01
    outer loop
      vertex -2.223921e+00 -1.745754e+01 1.347331e+01
      vertex -2.242564e+00 -1.695841e+01 1.370037e+01
      vertex 5.366151e+00 -1.695841e+01 9.307477e+00
    endloop
  endfacet
  facet normal -5.000000e-01 -2.619706e-15 -8.660254e-01
    outer loop
      vertex -2.370603e+00 -1.638935e+01 1.377429e+01
      vertex 5.494190e+00 -1.638935e+01 9.233554e+00
      vertex 5.366151e+00 -1.695841e+01 9.307477e+00
    endloop
  endfacet
  facet normal -3.781110e-01 6.543151e-01 -6.549075e-01
    outer loop
      vertex -2.203065e+00 -1.801589e+01 1.321930e+01
      vertex 4.929785e+00 -1.801589e+01 9.101151e+00
      vertex 4.678129e+00 -1.839857e+01 8.864114e+00
    endloop
  endfacet
  facet normal -4.681191e-01 3.513660e-01 -8.108060e-01
    outer loop
      vertex -2.203065e+00 -1.801589e+01 1.321930e+01
      vertex 5.160186e+00 -1.745754e+01 9.210091e+00
      vertex 4.929785e+00 -1.801589e+01 9.101151e+00
    endloop
  endfacet
  facet normal -3.781110e-01 6.543151e-01 -6.549075e-01
    outer loop
      vertex 4.678129e+00 -1.839857e+01 8.864114e+00
      vertex -2.282516e+00 -1.839857e+01 1.288284e+01
      vertex -2.203065e+00 -1.801589e+01 1.321930e+01
    endloop
  endfacet
  facet normal -2.442628e-01 8.725496e-01 -4.230756e-01
    outer loop
      vertex 4.378657e+00 -1.885395e+01 8.582040e+00
      vertex 4.105252e+00 -1.909849e+01 8.235554e+00
      vertex -2.540427e+00 -1.909849e+01 1.207244e+01
    endloop
  endfacet
  facet normal -2.442628e-01 8.725496e-01 -4.230756e-01
    outer loop
      vertex -2.540427e+00 -1.909849e+01 1.207244e+01
      vertex -2.377065e+00 -1.885395e+01 1.248246e+01
      vertex 4.378657e+00 -1.885395e+01 8.582040e+00
    endloop
  endfacet
  facet normal -3.781110e-01 6.543151e-01 -6.549075e-01
    outer loop
      vertex -2.282516e+00 -1.839857e+01 1.288284e+01
      vertex 4.678129e+00 -1.839857e+01 8.864114e+00
      vertex 4.378657e+00 -1.885395e+01 8.582040e+00
    endloop
  endfacet
  facet normal -8.427089e-02 9.856945e-01 -1.459615e-01
    outer loop
      vertex 3.786072e+00 -1.938397e+01 7.831057e+00
      vertex 3.510780e+00 -1.947139e+01 7.399662e+00
      vertex -2.967095e+00 -1.947139e+01 1.113966e+01
    endloop
  endfacet
  facet normal -8.427089e-02 9.856945e-01 -1.459615e-01
    outer loop
      vertex -2.967095e+00 -1.947139e+01 1.113966e+01
      vertex -2.731142e+00 -1.938397e+01 1.159377e+01
      vertex 3.786072e+00 -1.938397e+01 7.831057e+00
    endloop
  endfacet
  facet normal -2.442628e-01 8.725496e-01 -4.230756e-01
    outer loop
      vertex -2.540427e+00 -1.909849e+01 1.207244e+01
      vertex 4.105252e+00 -1.909849e+01 8.235554e+00
      vertex 3.786072e+00 -1.938397e+01 7.831057e+00
    endloop
  endfacet
  facet normal -8.427089e-02 9.856945e-01 -1.459615e-01
    outer loop
      vertex 3.510780e+00 -1.947139e+01 7.399662e+00
      vertex 3.218020e+00 -1.956435e+01 6.940893e+00
      vertex -3.218021e+00 -1.956435e+01 1.065674e+01
    endloop
  endfacet
  facet normal 8.427089e-02 9.856945e-01 1.459615e-01
    outer loop
      vertex 2.967095e+00 -1.947139e+01 6.457972e+00
      vertex -3.510780e+00 -1.947139e+01 1.019798e+01
      vertex -3.218021e+00 -1.956435e+01 1.065674e+01
    endloop
  endfacet
  facet normal 8.427089e-02 9.856945e-01 1.459615e-01
    outer loop
      vertex -3.218021e+00 -1.956435e+01 1.065674e+01
      vertex 3.218020e+00 -1.956435e+01 6.940893e+00
      vertex 2.967095e+00 -1.947139e+01 6.457972e+00
    endloop
  endfacet
  facet normal -8.427089e-02 9.856945e-01 -1.459615e-01
    outer loop
      vertex -3.218021e+00 -1.956435e+01 1.065674e+01
      vertex -2.967095e+00 -1.947139e+01 1.113966e+01
      vertex 3.510780e+00 -1.947139e+01 7.399662e+00
    endloop
  endfacet
  facet normal -2.442628e-01 8.725496e-01 -4.230756e-01
    outer loop
      vertex -2.731142e+00 -1.938397e+01 1.159377e+01
      vertex -2.540427e+00 -1.909849e+01 1.207244e+01
      vertex 3.786072e+00 -1.938397e+01 7.831057e+00
    endloop
  endfacet
  facet normal -3.781110e-01 6.543151e-01 -6.549075e-01
    outer loop
      vertex -2.377065e+00 -1.885395e+01 1.248246e+01
      vertex -2.282516e+00 -1.839857e+01 1.288284e+01
      vertex 4.378657e+00 -1.885395e+01 8.582040e+00
    endloop
  endfacet
  facet normal -4.681191e-01 3.513660e-01 -8.108060e-01
    outer loop
      vertex -2.203065e+00 -1.801589e+01 1.321930e+01
      vertex -2.223921e+00 -1.745754e+01 1.347331e+01
      vertex 5.160186e+00 -1.745754e+01 9.210091e+00
    endloop
  endfacet
  facet normal -5.000000e-01 1.820991e-15 -8.660254e-01
    outer loop
      vertex -2.242564e+00 -1.695841e+01 1.370037e+01
      vertex -2.370603e+00 -1.638935e+01 1.377429e+01
      vertex 5.366151e+00 -1.695841e+01 9.307477e+00
    endloop
  endfacet
  facet normal -4.681191e-01 -3.513660e-01 -8.108060e-01
    outer loop
      vertex -2.498640e+00 -1.582029e+01 1.384822e+01
      vertex -2.704605e+00 -1.532116e+01 1.375083e+01
      vertex 5.640871e+00 -1.532116e+01 8.932568e+00
    endloop
  endfacet
  facet normal -3.781110e-01 -6.543151e-01 -6.549075e-01
    outer loop
      vertex -2.935007e+00 -1.476281e+01 1.364189e+01
      vertex -3.186663e+00 -1.438014e+01 1.340485e+01
      vertex 5.661727e+00 -1.476281e+01 8.678564e+00
    endloop
  endfacet
  facet normal -2.442628e-01 -8.725496e-01 -4.230756e-01
    outer loop
      vertex -3.486134e+00 -1.392475e+01 1.312278e+01
      vertex -3.759539e+00 -1.368021e+01 1.277629e+01
      vertex 5.324365e+00 -1.368021e+01 7.531699e+00
    endloop
  endfacet
  facet normal -8.427089e-02 -9.856945e-01 -1.459615e-01
    outer loop
      vertex -4.078720e+00 -1.339473e+01 1.237180e+01
      vertex -4.354012e+00 -1.330732e+01 1.194040e+01
      vertex 5.133650e+00 -1.339473e+01 7.053032e+00
    endloop
  endfacet
  facet normal -8.427089e-02 -9.856945e-01 -1.459615e-01
    outer loop
      vertex -4.354012e+00 -1.330732e+01 1.194040e+01
      vertex -4.646770e+00 -1.321435e+01 1.148163e+01
      vertex 4.646770e+00 -1.321435e+01 6.116004e+00
    endloop
  endfacet
  facet normal 8.427089e-02 -9.856945e-01 1.459615e-01
    outer loop
      vertex 4.078720e+00 -1.339473e+01 5.225840e+00
      vertex 4.354012e+00 -1.330732e+01 5.657235e+00
      vertex -4.897697e+00 -1.330732e+01 1.099871e+01
    endloop
  endfacet
  facet normal 2.442628e-01 -8.725496e-01 4.230756e-01
    outer loop
      vertex 3.486134e+00 -1.392475e+01 4.474857e+00
      vertex 3.759540e+00 -1.368021e+01 4.821342e+00
      vertex -5.324366e+00 -1.368021e+01 1.006594e+01
    endloop
  endfacet
  facet normal 3.781110e-01 -6.543151e-01 6.549075e-01
    outer loop
      vertex 2.935006e+00 -1.476281e+01 3.955746e+00
      vertex 3.186663e+00 -1.438014e+01 4.192782e+00
      vertex -5.661728e+00 -1.476281e+01 8.919072e+00
    endloop
  endfacet
  facet normal 4.681191e-01 -3.513660e-01 8.108060e-01
    outer loop
      vertex 2.498640e+00 -1.582029e+01 3.749419e+00
      vertex 2.704605e+00 -1.532116e+01 3.846806e+00
      vertex -5.640871e+00 -1.532116e+01 8.665069e+00
    endloop
  endfacet
  facet normal 5.000000e-01 -1.835330e-15 8.660254e-01
    outer loop
      vertex 2.242564e+00 -1.695841e+01 3.897265e+00
      vertex 2.370603e+00 -1.638935e+01 3.823342e+00
      vertex -5.366152e+00 -1.695841e+01 8.290159e+00
    endloop
  endfacet
  facet normal 4.681191e-01 3.513660e-01 8.108060e-01
    outer loop
      vertex 2.203065e+00 -1.801589e+01 4.378333e+00
      vertex 2.223921e+00 -1.745754e+01 4.124329e+00
      vertex -4.929785e+00 -1.801589e+01 8.496486e+00
    endloop
  endfacet
  facet normal 3.781110e-01 6.543151e-01 6.549075e-01
    outer loop
      vertex 2.377065e+00 -1.885395e+01 5.115178e+00
      vertex 2.282516e+00 -1.839857e+01 4.714791e+00
      vertex -4.678129e+00 -1.839857e+01 8.733522e+00
    endloop
  endfacet
  facet normal 2.442628e-01 8.725496e-01 4.230756e-01
    outer loop
      vertex 2.731141e+00 -1.938397e+01 6.003865e+00
      vertex 2.540427e+00 -1.909849e+01 5.525197e+00
      vertex -4.105253e+00 -1.909849e+01 9.362082e+00
    endloop
  endfacet
endsolid Default
