solid Default
  facet normal -8.957379e-01 1.073399e-01 -4.314300e-01
    outer loop
      vertex -2.167303e+01 1.728151e+01 2.284552e+01
      vertex -1.256955e+01 8.844150e+00 1.845654e+00
      vertex -2.167303e+01 1.728151e+01 2.284555e+01
    endloop
  endfacet
  facet normal -8.957379e-01 1.073399e-01 -4.314300e-01
    outer loop
      vertex -2.167303e+01 1.728151e+01 2.284555e+01
      vertex -1.256955e+01 8.844150e+00 1.845654e+00
      vertex -1.481300e+01 -9.881058e+00 1.844721e+00
    endloop
  endfacet
  facet normal -8.957379e-01 1.073399e-01 -4.314300e-01
    outer loop
      vertex -1.935418e+01 -3.425182e+00 1.287934e+01
      vertex -1.481300e+01 -9.881058e+00 1.844721e+00
      vertex -2.565223e+01 -1.593131e+01 2.284382e+01
    endloop
  endfacet
  facet normal -8.957379e-01 1.073399e-01 -4.314300e-01
    outer loop
      vertex -2.149857e+01 4.160795e-01 1.828726e+01
      vertex -2.167303e+01 1.728151e+01 2.284555e+01
      vertex -1.850737e+01 3.642593e+00 1.287970e+01
    endloop
  endfacet
  facet normal -8.957379e-01 1.073399e-01 -4.314300e-01
    outer loop
      vertex -2.149857e+01 4.160795e-01 1.828726e+01
      vertex -2.031612e+01 -1.702066e+00 1.530524e+01
      vertex -2.565223e+01 -1.593131e+01 2.284382e+01
    endloop
  endfacet
  facet normal -8.957379e-01 1.073399e-01 -4.314300e-01
    outer loop
      vertex -2.031612e+01 -1.702066e+00 1.530524e+01
      vertex -1.935418e+01 -3.425182e+00 1.287934e+01
      vertex -2.565223e+01 -1.593131e+01 2.284382e+01
    endloop
  endfacet
  facet normal -8.957379e-01 1.073399e-01 -4.314300e-01
    outer loop
      vertex -1.850737e+01 3.642593e+00 1.287970e+01
      vertex -1.481300e+01 -9.881058e+00 1.844721e+00
      vertex -1.785357e+01 -2.023735e-02 1.061101e+01
    endloop
  endfacet
  facet normal -8.957379e-01 1.073399e-01 -4.314300e-01
    outer loop
      vertex -2.167303e+01 1.728151e+01 2.284555e+01
      vertex -1.481300e+01 -9.881058e+00 1.844721e+00
      vertex -1.850737e+01 3.642593e+00 1.287970e+01
    endloop
  endfacet
  facet normal -8.957379e-01 1.073399e-01 -4.314300e-01
    outer loop
      vertex -2.167303e+01 1.728151e+01 2.284555e+01
      vertex -2.149857e+01 4.160795e-01 1.828726e+01
      vertex -2.565223e+01 -1.593131e+01 2.284382e+01
    endloop
  endfacet
  facet normal -8.957379e-01 1.073399e-01 -4.314300e-01
    outer loop
      vertex -1.785357e+01 -2.023735e-02 1.061101e+01
      vertex -1.481300e+01 -9.881058e+00 1.844721e+00
      vertex -1.935418e+01 -3.425182e+00 1.287934e+01
    endloop
  endfacet
  facet normal -8.144380e-01 9.754742e-02 5.719923e-01
    outer loop
      vertex -2.167303e+01 1.728151e+01 2.284555e+01
      vertex -1.729003e+01 4.956034e+00 3.118829e+01
      vertex -1.317148e+01 9.398831e+00 3.629494e+01
    endloop
  endfacet
  facet normal -8.144380e-01 9.754742e-02 5.719923e-01
    outer loop
      vertex -2.149900e+01 4.157376e-01 2.596955e+01
      vertex -1.729003e+01 4.956034e+00 3.118829e+01
      vertex -2.167303e+01 1.728151e+01 2.284555e+01
    endloop
  endfacet
  facet normal -8.144380e-01 9.754742e-02 5.719923e-01
    outer loop
      vertex -2.149900e+01 4.157376e-01 2.596955e+01
      vertex -2.167303e+01 1.728151e+01 2.284555e+01
      vertex -2.565223e+01 -1.593131e+01 2.284382e+01
    endloop
  endfacet
  facet normal -8.144380e-01 9.754742e-02 5.719923e-01
    outer loop
      vertex -2.149900e+01 4.157376e-01 2.596955e+01
      vertex -2.565223e+01 -1.593131e+01 2.284382e+01
      vertex -1.552934e+01 -1.028136e+01 3.629395e+01
    endloop
  endfacet
  facet normal -3.444939e-01 -7.444215e-01 5.719795e-01
    outer loop
      vertex 4.705348e+00 -2.997899e+01 2.284485e+01
      vertex 4.705362e+00 -2.997899e+01 2.284486e+01
      vertex -2.565223e+01 -1.593131e+01 2.284382e+01
    endloop
  endfacet
  facet normal -3.444945e-01 -7.444211e-01 5.719797e-01
    outer loop
      vertex -9.558409e+00 -2.097749e+01 2.596925e+01
      vertex 4.705362e+00 -2.997899e+01 2.284486e+01
      vertex 2.459037e+00 -1.860532e+01 3.629452e+01
    endloop
  endfacet
  facet normal -3.444945e-01 -7.444211e-01 5.719797e-01
    outer loop
      vertex -2.565223e+01 -1.593131e+01 2.284382e+01
      vertex 4.705362e+00 -2.997899e+01 2.284486e+01
      vertex -9.558409e+00 -2.097749e+01 2.596925e+01
    endloop
  endfacet
  facet normal -3.444945e-01 -7.444211e-01 5.719797e-01
    outer loop
      vertex -2.565223e+01 -1.593131e+01 2.284382e+01
      vertex -1.257623e+01 -1.557139e+01 3.118762e+01
      vertex -1.552934e+01 -1.028136e+01 3.629395e+01
    endloop
  endfacet
  facet normal -3.444945e-01 -7.444211e-01 5.719797e-01
    outer loop
      vertex -1.257623e+01 -1.557139e+01 3.118762e+01
      vertex -2.565223e+01 -1.593131e+01 2.284382e+01
      vertex -9.558409e+00 -2.097749e+01 2.596925e+01
    endloop
  endfacet
  facet normal -1.588988e-01 8.046724e-01 5.720607e-01
    outer loop
      vertex 1.114380e+01 2.376031e+01 2.284765e+01
      vertex -4.842696e+00 1.838279e+01 2.597127e+01
      vertex 7.760836e-01 1.578242e+01 3.118978e+01
    endloop
  endfacet
  facet normal -1.588988e-01 8.046724e-01 5.720607e-01
    outer loop
      vertex -1.317148e+01 9.398831e+00 3.629494e+01
      vertex -4.842696e+00 1.838279e+01 2.597127e+01
      vertex -2.167303e+01 1.728151e+01 2.284552e+01
    endloop
  endfacet
  facet normal -1.588988e-01 8.046724e-01 5.720607e-01
    outer loop
      vertex 6.274139e+00 1.323781e+01 3.629615e+01
      vertex 1.114380e+01 2.376031e+01 2.284765e+01
      vertex 7.760836e-01 1.578242e+01 3.118978e+01
    endloop
  endfacet
  facet normal -1.588988e-01 8.046724e-01 5.720607e-01
    outer loop
      vertex 1.114380e+01 2.376031e+01 2.284765e+01
      vertex 1.114379e+01 2.376032e+01 2.284761e+01
      vertex -4.842696e+00 1.838279e+01 2.597127e+01
    endloop
  endfacet
  facet normal -1.588988e-01 8.046724e-01 5.720607e-01
    outer loop
      vertex 1.114379e+01 2.376032e+01 2.284761e+01
      vertex -2.167303e+01 1.728151e+01 2.284552e+01
      vertex -4.842696e+00 1.838279e+01 2.597127e+01
    endloop
  endfacet
  facet normal -1.588988e-01 8.046724e-01 5.720607e-01
    outer loop
      vertex -2.167303e+01 1.728151e+01 2.284552e+01
      vertex -2.167303e+01 1.728151e+01 2.284555e+01
      vertex -1.317148e+01 9.398831e+00 3.629494e+01
    endloop
  endfacet
  facet normal -3.788491e-01 -8.187368e-01 -4.314435e-01
    outer loop
      vertex 2.302487e+00 -1.780115e+01 1.845281e+00
      vertex 4.705348e+00 -2.997899e+01 2.284485e+01
      vertex -1.481300e+01 -9.881058e+00 1.844721e+00
    endloop
  endfacet
  facet normal -3.788491e-01 -8.187368e-01 -4.314435e-01
    outer loop
      vertex -9.557989e+00 -2.097718e+01 1.828697e+01
      vertex 4.705348e+00 -2.997899e+01 2.284485e+01
      vertex -2.565223e+01 -1.593131e+01 2.284382e+01
    endloop
  endfacet
  facet normal -3.788491e-01 -8.187368e-01 -4.314435e-01
    outer loop
      vertex -7.177869e+00 -2.050716e+01 1.530509e+01
      vertex 4.705348e+00 -2.997899e+01 2.284485e+01
      vertex -9.557989e+00 -2.097718e+01 1.828697e+01
    endloop
  endfacet
  facet normal -3.788491e-01 -8.187368e-01 -4.314435e-01
    outer loop
      vertex -1.170181e+01 -1.713540e+01 1.287914e+01
      vertex -9.557989e+00 -2.097718e+01 1.828697e+01
      vertex -2.565223e+01 -1.593131e+01 2.284382e+01
    endloop
  endfacet
  facet normal -3.788491e-01 -8.187368e-01 -4.314435e-01
    outer loop
      vertex -5.241643e+00 -2.012488e+01 1.287933e+01
      vertex 4.705348e+00 -2.997899e+01 2.284485e+01
      vertex -7.177869e+00 -2.050716e+01 1.530509e+01
    endloop
  endfacet
  facet normal -3.788491e-01 -8.187368e-01 -4.314435e-01
    outer loop
      vertex -1.481300e+01 -9.881058e+00 1.844721e+00
      vertex 4.705348e+00 -2.997899e+01 2.284485e+01
      vertex -5.241643e+00 -2.012488e+01 1.287933e+01
    endloop
  endfacet
  facet normal -3.788491e-01 -8.187368e-01 -4.314435e-01
    outer loop
      vertex -1.481300e+01 -9.881058e+00 1.844721e+00
      vertex -5.241643e+00 -2.012488e+01 1.287933e+01
      vertex -8.016062e+00 -1.764554e+01 1.061067e+01
    endloop
  endfacet
  facet normal -3.788491e-01 -8.187368e-01 -4.314435e-01
    outer loop
      vertex -1.481300e+01 -9.881058e+00 1.844721e+00
      vertex -1.170181e+01 -1.713540e+01 1.287914e+01
      vertex -2.565223e+01 -1.593131e+01 2.284382e+01
    endloop
  endfacet
  facet normal -3.788491e-01 -8.187368e-01 -4.314435e-01
    outer loop
      vertex -1.170181e+01 -1.713540e+01 1.287914e+01
      vertex -1.481300e+01 -9.881058e+00 1.844721e+00
      vertex -8.016062e+00 -1.764554e+01 1.061067e+01
    endloop
  endfacet
  facet normal 5.600554e-05 4.493292e-05 -1.000000e+00
    outer loop
      vertex 5.932507e+00 1.249697e+01 1.846820e+00
      vertex 1.512392e+01 -3.970760e+00 1.846649e+00
      vertex -1.256955e+01 8.844150e+00 1.845654e+00
    endloop
  endfacet
  facet normal 5.600554e-05 4.493292e-05 -1.000000e+00
    outer loop
      vertex -2.058971e+00 -4.772870e+00 1.845654e+00
      vertex 1.512392e+01 -3.970760e+00 1.846649e+00
      vertex 2.302487e+00 -1.780115e+01 1.845281e+00
    endloop
  endfacet
  facet normal 5.600554e-05 4.493292e-05 -1.000000e+00
    outer loop
      vertex -1.256955e+01 8.844150e+00 1.845654e+00
      vertex 2.302487e+00 -1.780115e+01 1.845281e+00
      vertex -1.481300e+01 -9.881058e+00 1.844721e+00
    endloop
  endfacet
  facet normal 5.600554e-05 4.493292e-05 -1.000000e+00
    outer loop
      vertex 1.385508e+00 -4.092847e+00 1.845889e+00
      vertex 1.512392e+01 -3.970760e+00 1.846649e+00
      vertex -2.058971e+00 -4.772870e+00 1.845654e+00
    endloop
  endfacet
  facet normal 5.600554e-05 4.493292e-05 -1.000000e+00
    outer loop
      vertex -1.256955e+01 8.844150e+00 1.845654e+00
      vertex -2.058971e+00 -4.772870e+00 1.845654e+00
      vertex 2.302487e+00 -1.780115e+01 1.845281e+00
    endloop
  endfacet
  facet normal 5.600554e-05 4.493292e-05 -1.000000e+00
    outer loop
      vertex 1.803157e+00 -6.068020e-01 1.846026e+00
      vertex 1.512392e+01 -3.970760e+00 1.846649e+00
      vertex 1.385508e+00 -4.092847e+00 1.845889e+00
    endloop
  endfacet
  facet normal 5.600554e-05 4.493292e-05 -1.000000e+00
    outer loop
      vertex -1.256955e+01 8.844150e+00 1.845654e+00
      vertex 1.512392e+01 -3.970760e+00 1.846649e+00
      vertex 1.803157e+00 -6.068020e-01 1.846026e+00
    endloop
  endfacet
  facet normal 5.600554e-05 4.493292e-05 -1.000000e+00
    outer loop
      vertex -1.256955e+01 8.844150e+00 1.845654e+00
      vertex 1.803157e+00 -6.068020e-01 1.846026e+00
      vertex -1.383202e+00 8.676591e-01 1.845882e+00
    endloop
  endfacet
  facet normal 5.600554e-05 4.493292e-05 -1.000000e+00
    outer loop
      vertex -1.256955e+01 8.844150e+00 1.845654e+00
      vertex -3.770121e+00 -1.707110e+00 1.845654e+00
      vertex -2.058971e+00 -4.772870e+00 1.845654e+00
    endloop
  endfacet
  facet normal 5.600554e-05 4.493292e-05 -1.000000e+00
    outer loop
      vertex -3.770121e+00 -1.707110e+00 1.845654e+00
      vertex -1.256955e+01 8.844150e+00 1.845654e+00
      vertex -1.383202e+00 8.676591e-01 1.845882e+00
    endloop
  endfacet
  facet normal -1.747142e-01 8.851030e-01 -4.313557e-01
    outer loop
      vertex 1.114379e+01 2.376032e+01 2.284761e+01
      vertex 5.932507e+00 1.249697e+01 1.846820e+00
      vertex -1.256955e+01 8.844150e+00 1.845654e+00
    endloop
  endfacet
  facet normal -1.747142e-01 8.851030e-01 -4.313557e-01
    outer loop
      vertex -8.493536e-01 1.653589e+01 1.288125e+01
      vertex 1.114379e+01 2.376032e+01 2.284761e+01
      vertex -1.256955e+01 8.844150e+00 1.845654e+00
    endloop
  endfacet
  facet normal -1.747142e-01 8.851030e-01 -4.313557e-01
    outer loop
      vertex -2.167303e+01 1.728151e+01 2.284552e+01
      vertex -7.832890e+00 1.515710e+01 1.288075e+01
      vertex -1.256955e+01 8.844150e+00 1.845654e+00
    endloop
  endfacet
  facet normal -1.747142e-01 8.851030e-01 -4.313557e-01
    outer loop
      vertex -7.832890e+00 1.515710e+01 1.288075e+01
      vertex -4.130901e+00 1.478241e+01 1.061235e+01
      vertex -1.256955e+01 8.844150e+00 1.845654e+00
    endloop
  endfacet
  facet normal -1.747142e-01 8.851030e-01 -4.313557e-01
    outer loop
      vertex -4.130901e+00 1.478241e+01 1.061235e+01
      vertex -8.493536e-01 1.653589e+01 1.288125e+01
      vertex -1.256955e+01 8.844150e+00 1.845654e+00
    endloop
  endfacet
  facet normal -1.747142e-01 8.851030e-01 -4.313557e-01
    outer loop
      vertex -2.167303e+01 1.728151e+01 2.284552e+01
      vertex 1.114379e+01 2.376032e+01 2.284761e+01
      vertex -4.842273e+00 1.838320e+01 1.828900e+01
    endloop
  endfacet
  facet normal -1.747142e-01 8.851030e-01 -4.313557e-01
    outer loop
      vertex -2.167303e+01 1.728151e+01 2.284552e+01
      vertex -6.491363e+00 1.660428e+01 1.530676e+01
      vertex -7.832890e+00 1.515710e+01 1.288075e+01
    endloop
  endfacet
  facet normal -1.747142e-01 8.851030e-01 -4.313557e-01
    outer loop
      vertex -2.167303e+01 1.728151e+01 2.284552e+01
      vertex -4.842273e+00 1.838320e+01 1.828900e+01
      vertex -6.491363e+00 1.660428e+01 1.530676e+01
    endloop
  endfacet
  facet normal -1.747142e-01 8.851030e-01 -4.313557e-01
    outer loop
      vertex -8.493536e-01 1.653589e+01 1.288125e+01
      vertex -4.842273e+00 1.838320e+01 1.828900e+01
      vertex 1.114379e+01 2.376032e+01 2.284761e+01
    endloop
  endfacet
  facet normal -8.731939e-01 -4.873729e-01 -7.061278e-05
    outer loop
      vertex -2.031612e+01 -1.702066e+00 1.530524e+01
      vertex -2.149857e+01 4.160795e-01 1.828726e+01
      vertex -2.149827e+01 4.163258e-01 1.287932e+01
    endloop
  endfacet
  facet normal -8.731944e-01 -4.873722e-01 -7.045992e-05
    outer loop
      vertex -2.031612e+01 -1.702066e+00 1.530524e+01
      vertex -2.149827e+01 4.163258e-01 1.287932e+01
      vertex -1.935418e+01 -3.425182e+00 1.287934e+01
    endloop
  endfacet
  facet normal -7.333508e-01 6.798505e-01 -9.984168e-06
    outer loop
      vertex -2.149827e+01 4.163258e-01 1.287932e+01
      vertex -2.149857e+01 4.160795e-01 1.828726e+01
      vertex -1.850737e+01 3.642593e+00 1.287970e+01
    endloop
  endfacet
  facet normal -4.451448e-01 4.127465e-01 -7.946612e-01
    outer loop
      vertex -1.785357e+01 -2.023735e-02 1.061101e+01
      vertex -2.149827e+01 4.163258e-01 1.287932e+01
      vertex -1.850737e+01 3.642593e+00 1.287970e+01
    endloop
  endfacet
  facet normal -5.300389e-01 -2.958288e-01 -7.946975e-01
    outer loop
      vertex -1.935418e+01 -3.425182e+00 1.287934e+01
      vertex -2.149827e+01 4.163258e-01 1.287932e+01
      vertex -1.785357e+01 -2.023735e-02 1.061101e+01
    endloop
  endfacet
  facet normal -8.731939e-01 -4.873729e-01 -7.061278e-05
    outer loop
      vertex -2.149963e+01 4.152188e-01 3.737935e+01
      vertex -1.552934e+01 -1.028136e+01 3.629395e+01
      vertex -9.559036e+00 -2.097807e+01 3.737908e+01
    endloop
  endfacet
  facet normal -8.731939e-01 -4.873729e-01 -7.061278e-05
    outer loop
      vertex -2.149963e+01 4.152188e-01 3.737935e+01
      vertex -2.149900e+01 4.157376e-01 2.596955e+01
      vertex -1.552934e+01 -1.028136e+01 3.629395e+01
    endloop
  endfacet
  facet normal -8.731939e-01 -4.873729e-01 -7.061278e-05
    outer loop
      vertex -1.257623e+01 -1.557139e+01 3.118762e+01
      vertex -9.559036e+00 -2.097807e+01 3.737908e+01
      vertex -1.552934e+01 -1.028136e+01 3.629395e+01
    endloop
  endfacet
  facet normal -7.333498e-01 6.798515e-01 -1.009158e-05
    outer loop
      vertex -2.149963e+01 4.152188e-01 3.737935e+01
      vertex -4.843328e+00 1.838232e+01 3.738108e+01
      vertex -1.317148e+01 9.398831e+00 3.629494e+01
    endloop
  endfacet
  facet normal -7.333498e-01 6.798515e-01 -1.009158e-05
    outer loop
      vertex -2.149963e+01 4.152188e-01 3.737935e+01
      vertex -1.317148e+01 9.398831e+00 3.629494e+01
      vertex -1.729003e+01 4.956034e+00 3.118829e+01
    endloop
  endfacet
  facet normal -7.333498e-01 6.798515e-01 -1.009158e-05
    outer loop
      vertex -1.317148e+01 9.398831e+00 3.629494e+01
      vertex -4.843328e+00 1.838232e+01 3.738108e+01
      vertex -4.842696e+00 1.838279e+01 2.597127e+01
    endloop
  endfacet
  facet normal -7.333508e-01 6.798505e-01 -9.984168e-06
    outer loop
      vertex -2.149900e+01 4.157376e-01 2.596955e+01
      vertex -2.149963e+01 4.152188e-01 3.737935e+01
      vertex -1.729003e+01 4.956034e+00 3.118829e+01
    endloop
  endfacet
  facet normal -8.731944e-01 -4.873722e-01 -7.045992e-05
    outer loop
      vertex -9.559036e+00 -2.097807e+01 3.737908e+01
      vertex -1.257623e+01 -1.557139e+01 3.118762e+01
      vertex -9.558409e+00 -2.097749e+01 2.596925e+01
    endloop
  endfacet
  facet normal 1.936873e-01 -9.810633e-01 -3.393656e-05
    outer loop
      vertex -9.559036e+00 -2.097807e+01 3.737908e+01
      vertex 2.459037e+00 -1.860532e+01 3.629452e+01
      vertex 1.447704e+01 -1.623272e+01 3.738063e+01
    endloop
  endfacet
  facet normal 1.936873e-01 -9.810633e-01 -3.393656e-05
    outer loop
      vertex -9.559036e+00 -2.097807e+01 3.737908e+01
      vertex -9.558409e+00 -2.097749e+01 2.596925e+01
      vertex 2.459037e+00 -1.860532e+01 3.629452e+01
    endloop
  endfacet
  facet normal 1.936873e-01 -9.810633e-01 -3.393656e-05
    outer loop
      vertex 8.403095e+00 -1.743160e+01 3.118872e+01
      vertex 1.447704e+01 -1.623272e+01 3.738063e+01
      vertex 2.459037e+00 -1.860532e+01 3.629452e+01
    endloop
  endfacet
  facet normal 6.014857e-01 -5.576590e-01 5.720414e-01
    outer loop
      vertex 4.705362e+00 -2.997899e+01 2.284486e+01
      vertex 2.744654e+01 -5.448223e+00 2.284722e+01
      vertex 2.744654e+01 -5.448213e+00 2.284722e+01
    endloop
  endfacet
  facet normal 6.014848e-01 -5.576603e-01 5.720410e-01
    outer loop
      vertex 1.447766e+01 -1.623225e+01 2.597078e+01
      vertex 4.705362e+00 -2.997899e+01 2.284486e+01
      vertex 2.744654e+01 -5.448213e+00 2.284722e+01
    endloop
  endfacet
  facet normal 6.014848e-01 -5.576603e-01 5.720410e-01
    outer loop
      vertex 1.593426e+01 -4.069656e+00 3.629595e+01
      vertex 1.447766e+01 -1.623225e+01 2.597078e+01
      vertex 2.744654e+01 -5.448213e+00 2.284722e+01
    endloop
  endfacet
  facet normal 6.014848e-01 -5.576603e-01 5.720410e-01
    outer loop
      vertex 2.459037e+00 -1.860532e+01 3.629452e+01
      vertex 4.705362e+00 -2.997899e+01 2.284486e+01
      vertex 8.403095e+00 -1.743160e+01 3.118872e+01
    endloop
  endfacet
  facet normal 6.014848e-01 -5.576603e-01 5.720410e-01
    outer loop
      vertex 1.447766e+01 -1.623225e+01 2.597078e+01
      vertex 8.403095e+00 -1.743160e+01 3.118872e+01
      vertex 4.705362e+00 -2.997899e+01 2.284486e+01
    endloop
  endfacet
  facet normal 6.616290e-01 -6.133198e-01 -4.313768e-01
    outer loop
      vertex 2.302487e+00 -1.780115e+01 1.845281e+00
      vertex 1.512392e+01 -3.970760e+00 1.846649e+00
      vertex 2.744654e+01 -5.448223e+00 2.284722e+01
    endloop
  endfacet
  facet normal 6.616289e-01 -6.133204e-01 -4.313761e-01
    outer loop
      vertex 4.705348e+00 -2.997899e+01 2.284485e+01
      vertex 2.302487e+00 -1.780115e+01 1.845281e+00
      vertex 4.705362e+00 -2.997899e+01 2.284486e+01
    endloop
  endfacet
  facet normal 6.616290e-01 -6.133198e-01 -4.313768e-01
    outer loop
      vertex 1.500170e+01 -1.186345e+01 1.288083e+01
      vertex 2.302487e+00 -1.780115e+01 1.845281e+00
      vertex 2.744654e+01 -5.448223e+00 2.284722e+01
    endloop
  endfacet
  facet normal 6.616290e-01 -6.133198e-01 -4.313768e-01
    outer loop
      vertex 4.705362e+00 -2.997899e+01 2.284486e+01
      vertex 2.302487e+00 -1.780115e+01 1.845281e+00
      vertex 1.016230e+01 -1.708370e+01 1.288032e+01
    endloop
  endfacet
  facet normal 6.616290e-01 -6.133198e-01 -4.313768e-01
    outer loop
      vertex 4.705362e+00 -2.997899e+01 2.284486e+01
      vertex 1.447809e+01 -1.623184e+01 1.828851e+01
      vertex 2.744654e+01 -5.448223e+00 2.284722e+01
    endloop
  endfacet
  facet normal 6.616290e-01 -6.133198e-01 -4.313768e-01
    outer loop
      vertex 4.705362e+00 -2.997899e+01 2.284486e+01
      vertex 1.016230e+01 -1.708370e+01 1.288032e+01
      vertex 1.447809e+01 -1.623184e+01 1.828851e+01
    endloop
  endfacet
  facet normal 6.616290e-01 -6.133198e-01 -4.313768e-01
    outer loop
      vertex 1.476682e+01 -1.382305e+01 1.530661e+01
      vertex 1.500170e+01 -1.186345e+01 1.288083e+01
      vertex 2.744654e+01 -5.448223e+00 2.284722e+01
    endloop
  endfacet
  facet normal 6.616290e-01 -6.133198e-01 -4.313768e-01
    outer loop
      vertex 1.178662e+01 -1.373604e+01 1.061198e+01
      vertex 2.302487e+00 -1.780115e+01 1.845281e+00
      vertex 1.500170e+01 -1.186345e+01 1.288083e+01
    endloop
  endfacet
  facet normal 6.616290e-01 -6.133198e-01 -4.313768e-01
    outer loop
      vertex 1.447809e+01 -1.623184e+01 1.828851e+01
      vertex 1.476682e+01 -1.382305e+01 1.530661e+01
      vertex 2.744654e+01 -5.448223e+00 2.284722e+01
    endloop
  endfacet
  facet normal 6.616290e-01 -6.133198e-01 -4.313768e-01
    outer loop
      vertex 1.178662e+01 -1.373604e+01 1.061198e+01
      vertex 1.016230e+01 -1.708370e+01 1.288032e+01
      vertex 2.302487e+00 -1.780115e+01 1.845281e+00
    endloop
  endfacet
  facet normal 7.877914e-01 4.397119e-01 -4.313215e-01
    outer loop
      vertex 1.114380e+01 2.376031e+01 2.284765e+01
      vertex 2.744654e+01 -5.448213e+00 2.284722e+01
      vertex 2.744654e+01 -5.448223e+00 2.284722e+01
    endloop
  endfacet
  facet normal 7.877921e-01 4.397110e-01 -4.313210e-01
    outer loop
      vertex 5.932507e+00 1.249697e+01 1.846820e+00
      vertex 1.114380e+01 2.376031e+01 2.284765e+01
      vertex 1.512392e+01 -3.970760e+00 1.846649e+00
    endloop
  endfacet
  facet normal 7.877921e-01 4.397110e-01 -4.313210e-01
    outer loop
      vertex 1.739258e+01 8.094174e+00 1.828978e+01
      vertex 1.114380e+01 2.376031e+01 2.284765e+01
      vertex 2.744654e+01 -5.448223e+00 2.284722e+01
    endloop
  endfacet
  facet normal 7.877921e-01 4.397110e-01 -4.313210e-01
    outer loop
      vertex 1.114379e+01 2.376032e+01 2.284761e+01
      vertex 1.114380e+01 2.376031e+01 2.284765e+01
      vertex 5.932507e+00 1.249697e+01 1.846820e+00
    endloop
  endfacet
  facet normal 7.877921e-01 4.397110e-01 -4.313210e-01
    outer loop
      vertex 1.512392e+01 -3.970760e+00 1.846649e+00
      vertex 1.114380e+01 2.376031e+01 2.284765e+01
      vertex 1.340020e+01 9.941991e+00 1.288174e+01
    endloop
  endfacet
  facet normal 7.877921e-01 4.397110e-01 -4.313210e-01
    outer loop
      vertex 1.512392e+01 -3.970760e+00 1.846649e+00
      vertex 1.340020e+01 9.941991e+00 1.288174e+01
      vertex 1.418779e+01 6.305555e+00 1.061304e+01
    endloop
  endfacet
  facet normal 7.877921e-01 4.397110e-01 -4.313210e-01
    outer loop
      vertex 1.512392e+01 -3.970760e+00 1.846649e+00
      vertex 1.686949e+01 3.726304e+00 1.288165e+01
      vertex 2.744654e+01 -5.448223e+00 2.284722e+01
    endloop
  endfacet
  facet normal 7.877921e-01 4.397110e-01 -4.313210e-01
    outer loop
      vertex 1.512392e+01 -3.970760e+00 1.846649e+00
      vertex 1.418779e+01 6.305555e+00 1.061304e+01
      vertex 1.686949e+01 3.726304e+00 1.288165e+01
    endloop
  endfacet
  facet normal 7.877921e-01 4.397110e-01 -4.313210e-01
    outer loop
      vertex 1.519113e+01 9.113057e+00 1.530767e+01
      vertex 1.114380e+01 2.376031e+01 2.284765e+01
      vertex 1.739258e+01 8.094174e+00 1.828978e+01
    endloop
  endfacet
  facet normal 7.877921e-01 4.397110e-01 -4.313210e-01
    outer loop
      vertex 1.340020e+01 9.941991e+00 1.288174e+01
      vertex 1.114380e+01 2.376031e+01 2.284765e+01
      vertex 1.519113e+01 9.113057e+00 1.530767e+01
    endloop
  endfacet
  facet normal 7.877921e-01 4.397110e-01 -4.313210e-01
    outer loop
      vertex 1.686949e+01 3.726304e+00 1.288165e+01
      vertex 1.739258e+01 8.094174e+00 1.828978e+01
      vertex 2.744654e+01 -5.448223e+00 2.284722e+01
    endloop
  endfacet
  facet normal 7.161890e-01 3.997312e-01 5.720913e-01
    outer loop
      vertex 1.739214e+01 8.093836e+00 2.597205e+01
      vertex 1.665530e+01 1.946043e+00 3.119007e+01
      vertex 1.593426e+01 -4.069656e+00 3.629595e+01
    endloop
  endfacet
  facet normal 7.161888e-01 3.997310e-01 5.720915e-01
    outer loop
      vertex 1.114380e+01 2.376031e+01 2.284765e+01
      vertex 1.739214e+01 8.093836e+00 2.597205e+01
      vertex 2.744654e+01 -5.448213e+00 2.284722e+01
    endloop
  endfacet
  facet normal 7.161888e-01 3.997310e-01 5.720915e-01
    outer loop
      vertex 2.744654e+01 -5.448213e+00 2.284722e+01
      vertex 1.739214e+01 8.093836e+00 2.597205e+01
      vertex 1.593426e+01 -4.069656e+00 3.629595e+01
    endloop
  endfacet
  facet normal 7.161888e-01 3.997310e-01 5.720915e-01
    outer loop
      vertex 6.274139e+00 1.323781e+01 3.629615e+01
      vertex 1.739214e+01 8.093836e+00 2.597205e+01
      vertex 1.114380e+01 2.376031e+01 2.284765e+01
    endloop
  endfacet
  facet normal 4.199588e-01 9.075431e-01 6.533613e-05
    outer loop
      vertex 6.274139e+00 1.323781e+01 3.629615e+01
      vertex -4.843328e+00 1.838232e+01 3.738108e+01
      vertex 1.739150e+01 8.093271e+00 3.738182e+01
    endloop
  endfacet
  facet normal 4.199588e-01 9.075431e-01 6.533613e-05
    outer loop
      vertex 7.760836e-01 1.578242e+01 3.118978e+01
      vertex -4.843328e+00 1.838232e+01 3.738108e+01
      vertex 6.274139e+00 1.323781e+01 3.629615e+01
    endloop
  endfacet
  facet normal 4.199588e-01 9.075431e-01 6.533613e-05
    outer loop
      vertex 1.739214e+01 8.093836e+00 2.597205e+01
      vertex 6.274139e+00 1.323781e+01 3.629615e+01
      vertex 1.739150e+01 8.093271e+00 3.738182e+01
    endloop
  endfacet
  facet normal 4.199576e-01 9.075438e-01 6.397489e-05
    outer loop
      vertex -4.842696e+00 1.838279e+01 2.597127e+01
      vertex -4.843328e+00 1.838232e+01 3.738108e+01
      vertex 7.760836e-01 1.578242e+01 3.118978e+01
    endloop
  endfacet
  facet normal -8.731944e-01 -4.873722e-01 -7.045992e-05
    outer loop
      vertex -9.557989e+00 -2.097718e+01 1.828697e+01
      vertex -1.170181e+01 -1.713540e+01 1.287914e+01
      vertex -9.557688e+00 -2.097696e+01 1.287905e+01
    endloop
  endfacet
  facet normal 1.936873e-01 -9.810633e-01 -3.393656e-05
    outer loop
      vertex -7.177869e+00 -2.050716e+01 1.530509e+01
      vertex -9.557989e+00 -2.097718e+01 1.828697e+01
      vertex -9.557688e+00 -2.097696e+01 1.287905e+01
    endloop
  endfacet
  facet normal -5.300389e-01 -2.958288e-01 -7.946975e-01
    outer loop
      vertex -9.557688e+00 -2.097696e+01 1.287905e+01
      vertex -1.170181e+01 -1.713540e+01 1.287914e+01
      vertex -8.016062e+00 -1.764554e+01 1.061067e+01
    endloop
  endfacet
  facet normal 1.176238e-01 -5.955305e-01 -7.946749e-01
    outer loop
      vertex -5.241643e+00 -2.012488e+01 1.287933e+01
      vertex -9.557688e+00 -2.097696e+01 1.287905e+01
      vertex -8.016062e+00 -1.764554e+01 1.061067e+01
    endloop
  endfacet
  facet normal 1.936864e-01 -9.810635e-01 -3.368008e-05
    outer loop
      vertex -7.177869e+00 -2.050716e+01 1.530509e+01
      vertex -9.557688e+00 -2.097696e+01 1.287905e+01
      vertex -5.241643e+00 -2.012488e+01 1.287933e+01
    endloop
  endfacet
  facet normal -5.300389e-01 -2.958288e-01 -7.946975e-01
    outer loop
      vertex -2.058971e+00 -4.772870e+00 1.845654e+00
      vertex -3.770121e+00 -1.707110e+00 1.845654e+00
      vertex -8.046233e-01 -2.062313e+00 0.000000e+00
    endloop
  endfacet
  facet normal 1.176238e-01 -5.955305e-01 -7.946749e-01
    outer loop
      vertex 1.385508e+00 -4.092847e+00 1.845889e+00
      vertex -2.058971e+00 -4.772870e+00 1.845654e+00
      vertex -8.046233e-01 -2.062313e+00 0.000000e+00
    endloop
  endfacet
  facet normal -4.451448e-01 4.127465e-01 -7.946612e-01
    outer loop
      vertex -8.046233e-01 -2.062313e+00 0.000000e+00
      vertex -3.770121e+00 -1.707110e+00 1.845654e+00
      vertex -1.383202e+00 8.676591e-01 1.845882e+00
    endloop
  endfacet
  facet normal 2.549849e-01 5.509706e-01 -7.946157e-01
    outer loop
      vertex -8.046233e-01 -2.062313e+00 0.000000e+00
      vertex -1.383202e+00 8.676591e-01 1.845882e+00
      vertex 1.803157e+00 -6.068020e-01 1.846026e+00
    endloop
  endfacet
  facet normal 6.027954e-01 -7.217952e-02 -7.946243e-01
    outer loop
      vertex 1.385508e+00 -4.092847e+00 1.845889e+00
      vertex -8.046233e-01 -2.062313e+00 0.000000e+00
      vertex 1.803157e+00 -6.068020e-01 1.846026e+00
    endloop
  endfacet
  facet normal -7.333508e-01 6.798505e-01 -9.984168e-06
    outer loop
      vertex -4.841961e+00 1.838341e+01 1.288113e+01
      vertex -7.832890e+00 1.515710e+01 1.288075e+01
      vertex -6.491363e+00 1.660428e+01 1.530676e+01
    endloop
  endfacet
  facet normal -4.451448e-01 4.127465e-01 -7.946612e-01
    outer loop
      vertex -4.130901e+00 1.478241e+01 1.061235e+01
      vertex -7.832890e+00 1.515710e+01 1.288075e+01
      vertex -4.841961e+00 1.838341e+01 1.288113e+01
    endloop
  endfacet
  facet normal -7.333498e-01 6.798515e-01 -1.009158e-05
    outer loop
      vertex -4.841961e+00 1.838341e+01 1.288113e+01
      vertex -6.491363e+00 1.660428e+01 1.530676e+01
      vertex -4.842273e+00 1.838320e+01 1.828900e+01
    endloop
  endfacet
  facet normal 4.199576e-01 9.075438e-01 6.397489e-05
    outer loop
      vertex -4.841961e+00 1.838341e+01 1.288113e+01
      vertex -4.842273e+00 1.838320e+01 1.828900e+01
      vertex -8.493536e-01 1.653589e+01 1.288125e+01
    endloop
  endfacet
  facet normal 2.549849e-01 5.509706e-01 -7.946157e-01
    outer loop
      vertex -4.130901e+00 1.478241e+01 1.061235e+01
      vertex -4.841961e+00 1.838341e+01 1.288113e+01
      vertex -8.493536e-01 1.653589e+01 1.288125e+01
    endloop
  endfacet
  facet normal -5.407623e-05 -4.489334e-05 1.000000e+00
    outer loop
      vertex -1.471248e+01 -9.825452e+00 3.737928e+01
      vertex -2.149963e+01 4.152188e-01 3.737935e+01
      vertex -9.559036e+00 -2.097807e+01 3.737908e+01
    endloop
  endfacet
  facet normal -5.407623e-05 -4.489334e-05 1.000000e+00
    outer loop
      vertex -8.563792e+00 -1.267071e+01 3.737945e+01
      vertex -1.471248e+01 -9.825452e+00 3.737928e+01
      vertex -9.559036e+00 -2.097807e+01 3.737908e+01
    endloop
  endfacet
  facet normal -5.407623e-05 -4.489334e-05 1.000000e+00
    outer loop
      vertex -4.843328e+00 1.838232e+01 3.738108e+01
      vertex -2.149963e+01 4.152188e-01 3.737935e+01
      vertex -1.248539e+01 8.762749e+00 3.738024e+01
    endloop
  endfacet
  facet normal -5.407623e-05 -4.489334e-05 1.000000e+00
    outer loop
      vertex -4.843328e+00 1.838232e+01 3.738108e+01
      vertex -1.248539e+01 8.762749e+00 3.738024e+01
      vertex -5.838628e+00 1.007496e+01 3.738061e+01
    endloop
  endfacet
  facet normal -5.407623e-05 -4.489334e-05 1.000000e+00
    outer loop
      vertex -1.471248e+01 -9.825452e+00 3.737928e+01
      vertex -1.248539e+01 8.762749e+00 3.738024e+01
      vertex -2.149963e+01 4.152188e-01 3.737935e+01
    endloop
  endfacet
  facet normal -5.600554e-05 -4.493292e-05 1.000000e+00
    outer loop
      vertex 2.277772e+00 -1.768751e+01 3.737987e+01
      vertex -9.559036e+00 -2.097807e+01 3.737908e+01
      vertex 1.447704e+01 -1.623272e+01 3.738063e+01
    endloop
  endfacet
  facet normal -5.600554e-05 -4.493292e-05 1.000000e+00
    outer loop
      vertex -8.563792e+00 -1.267071e+01 3.737945e+01
      vertex -9.559036e+00 -2.097807e+01 3.737908e+01
      vertex 2.277772e+00 -1.768751e+01 3.737987e+01
    endloop
  endfacet
  facet normal -5.600554e-05 -4.493292e-05 1.000000e+00
    outer loop
      vertex 1.039928e+01 -8.926908e+00 3.738072e+01
      vertex 2.277772e+00 -1.768751e+01 3.737987e+01
      vertex 1.447704e+01 -1.623272e+01 3.738063e+01
    endloop
  endfacet
  facet normal -5.700440e-05 -4.593975e-05 1.000000e+00
    outer loop
      vertex 5.881198e+00 1.238874e+01 3.738146e+01
      vertex -4.843328e+00 1.838232e+01 3.738108e+01
      vertex -7.655908e-01 1.107645e+01 3.738098e+01
    endloop
  endfacet
  facet normal -5.700440e-05 -4.593975e-05 1.000000e+00
    outer loop
      vertex 1.739150e+01 8.093271e+00 3.738182e+01
      vertex -4.843328e+00 1.838232e+01 3.738108e+01
      vertex 5.881198e+00 1.238874e+01 3.738146e+01
    endloop
  endfacet
  facet normal -5.700440e-05 -4.593975e-05 1.000000e+00
    outer loop
      vertex 1.447704e+01 -1.623272e+01 3.738063e+01
      vertex 1.739150e+01 8.093271e+00 3.738182e+01
      vertex 1.500528e+01 -3.958405e+00 3.738118e+01
    endloop
  endfacet
  facet normal -5.700440e-05 -4.593975e-05 1.000000e+00
    outer loop
      vertex 1.447704e+01 -1.623272e+01 3.738063e+01
      vertex 1.500528e+01 -3.958405e+00 3.738118e+01
      vertex 1.039928e+01 -8.926908e+00 3.738072e+01
    endloop
  endfacet
  facet normal -5.700440e-05 -4.593975e-05 1.000000e+00
    outer loop
      vertex 5.881198e+00 1.238874e+01 3.738146e+01
      vertex 1.500528e+01 -3.958405e+00 3.738118e+01
      vertex 1.739150e+01 8.093271e+00 3.738182e+01
    endloop
  endfacet
  facet normal -5.600554e-05 -4.493292e-05 1.000000e+00
    outer loop
      vertex -4.843328e+00 1.838232e+01 3.738108e+01
      vertex -5.838628e+00 1.007496e+01 3.738061e+01
      vertex -7.655908e-01 1.107645e+01 3.738098e+01
    endloop
  endfacet
  facet normal 9.928992e-01 -1.189582e-01 4.922266e-05
    outer loop
      vertex 1.593426e+01 -4.069656e+00 3.629595e+01
      vertex 1.447704e+01 -1.623272e+01 3.738063e+01
      vertex 1.447766e+01 -1.623225e+01 2.597078e+01
    endloop
  endfacet
  facet normal 9.928992e-01 -1.189582e-01 4.922266e-05
    outer loop
      vertex 1.739150e+01 8.093271e+00 3.738182e+01
      vertex 1.447704e+01 -1.623272e+01 3.738063e+01
      vertex 1.593426e+01 -4.069656e+00 3.629595e+01
    endloop
  endfacet
  facet normal 9.928992e-01 -1.189582e-01 4.922266e-05
    outer loop
      vertex 1.593426e+01 -4.069656e+00 3.629595e+01
      vertex 1.665530e+01 1.946043e+00 3.119007e+01
      vertex 1.739150e+01 8.093271e+00 3.738182e+01
    endloop
  endfacet
  facet normal 1.936864e-01 -9.810635e-01 -3.368008e-05
    outer loop
      vertex 1.447704e+01 -1.623272e+01 3.738063e+01
      vertex 8.403095e+00 -1.743160e+01 3.118872e+01
      vertex 1.447766e+01 -1.623225e+01 2.597078e+01
    endloop
  endfacet
  facet normal 1.176238e-01 -5.955305e-01 -7.946749e-01
    outer loop
      vertex 1.447831e+01 -1.623162e+01 1.288061e+01
      vertex 1.016230e+01 -1.708370e+01 1.288032e+01
      vertex 1.178662e+01 -1.373604e+01 1.061198e+01
    endloop
  endfacet
  facet normal 1.936864e-01 -9.810635e-01 -3.368008e-05
    outer loop
      vertex 1.447809e+01 -1.623184e+01 1.828851e+01
      vertex 1.016230e+01 -1.708370e+01 1.288032e+01
      vertex 1.447831e+01 -1.623162e+01 1.288061e+01
    endloop
  endfacet
  facet normal 6.027954e-01 -7.217952e-02 -7.946243e-01
    outer loop
      vertex 1.447831e+01 -1.623162e+01 1.288061e+01
      vertex 1.178662e+01 -1.373604e+01 1.061198e+01
      vertex 1.500170e+01 -1.186345e+01 1.288083e+01
    endloop
  endfacet
  facet normal 9.928992e-01 -1.189591e-01 5.034459e-05
    outer loop
      vertex 1.500170e+01 -1.186345e+01 1.288083e+01
      vertex 1.476682e+01 -1.382305e+01 1.530661e+01
      vertex 1.447831e+01 -1.623162e+01 1.288061e+01
    endloop
  endfacet
  facet normal 9.928992e-01 -1.189582e-01 4.922266e-05
    outer loop
      vertex 1.476682e+01 -1.382305e+01 1.530661e+01
      vertex 1.447809e+01 -1.623184e+01 1.828851e+01
      vertex 1.447831e+01 -1.623162e+01 1.288061e+01
    endloop
  endfacet
  facet normal 4.199576e-01 9.075438e-01 6.397489e-05
    outer loop
      vertex 1.739289e+01 8.094426e+00 1.288186e+01
      vertex 1.340020e+01 9.941991e+00 1.288174e+01
      vertex 1.519113e+01 9.113057e+00 1.530767e+01
    endloop
  endfacet
  facet normal 2.549849e-01 5.509706e-01 -7.946157e-01
    outer loop
      vertex 1.418779e+01 6.305555e+00 1.061304e+01
      vertex 1.340020e+01 9.941991e+00 1.288174e+01
      vertex 1.739289e+01 8.094426e+00 1.288186e+01
    endloop
  endfacet
  facet normal 4.199588e-01 9.075431e-01 6.533613e-05
    outer loop
      vertex 1.739289e+01 8.094426e+00 1.288186e+01
      vertex 1.519113e+01 9.113057e+00 1.530767e+01
      vertex 1.739258e+01 8.094174e+00 1.828978e+01
    endloop
  endfacet
  facet normal 9.928992e-01 -1.189591e-01 5.034459e-05
    outer loop
      vertex 1.739289e+01 8.094426e+00 1.288186e+01
      vertex 1.739258e+01 8.094174e+00 1.828978e+01
      vertex 1.686949e+01 3.726304e+00 1.288165e+01
    endloop
  endfacet
  facet normal 6.027954e-01 -7.217952e-02 -7.946243e-01
    outer loop
      vertex 1.686949e+01 3.726304e+00 1.288165e+01
      vertex 1.418779e+01 6.305555e+00 1.061304e+01
      vertex 1.739289e+01 8.094426e+00 1.288186e+01
    endloop
  endfacet
  facet normal 9.928992e-01 -1.189591e-01 5.034459e-05
    outer loop
      vertex 1.739214e+01 8.093836e+00 2.597205e+01
      vertex 1.739150e+01 8.093271e+00 3.738182e+01
      vertex 1.665530e+01 1.946043e+00 3.119007e+01
    endloop
  endfacet
  facet normal -1.588988e-01 8.046724e-01 5.720607e-01
    outer loop
      vertex -8.077491e-01 -2.064809e+00 5.585412e+01
      vertex 5.881198e+00 1.238874e+01 3.738146e+01
      vertex -7.655908e-01 1.107645e+01 3.738098e+01
    endloop
  endfacet
  facet normal -1.588988e-01 8.046724e-01 5.720607e-01
    outer loop
      vertex -1.248539e+01 8.762749e+00 3.738024e+01
      vertex -8.077491e-01 -2.064809e+00 5.585412e+01
      vertex -5.838628e+00 1.007496e+01 3.738061e+01
    endloop
  endfacet
  facet normal -1.588988e-01 8.046724e-01 5.720607e-01
    outer loop
      vertex -5.838628e+00 1.007496e+01 3.738061e+01
      vertex -8.077491e-01 -2.064809e+00 5.585412e+01
      vertex -7.655908e-01 1.107645e+01 3.738098e+01
    endloop
  endfacet
  facet normal -8.144380e-01 9.754742e-02 5.719923e-01
    outer loop
      vertex -8.077495e-01 -2.064829e+00 5.585412e+01
      vertex -8.077491e-01 -2.064809e+00 5.585412e+01
      vertex -8.077497e-01 -2.064838e+00 5.585412e+01
    endloop
  endfacet
  facet normal -8.144380e-01 9.754745e-02 5.719924e-01
    outer loop
      vertex -8.077497e-01 -2.064838e+00 5.585412e+01
      vertex -8.077491e-01 -2.064809e+00 5.585412e+01
      vertex -1.248539e+01 8.762749e+00 3.738024e+01
    endloop
  endfacet
  facet normal -8.144380e-01 9.754742e-02 5.719923e-01
    outer loop
      vertex -8.077497e-01 -2.064838e+00 5.585412e+01
      vertex -1.248539e+01 8.762749e+00 3.738024e+01
      vertex -1.471248e+01 -9.825452e+00 3.737928e+01
    endloop
  endfacet
  facet normal -3.444945e-01 -7.444211e-01 5.719797e-01
    outer loop
      vertex 2.277772e+00 -1.768751e+01 3.737987e+01
      vertex -8.077497e-01 -2.064838e+00 5.585412e+01
      vertex -8.563792e+00 -1.267071e+01 3.737945e+01
    endloop
  endfacet
  facet normal -3.444945e-01 -7.444211e-01 5.719797e-01
    outer loop
      vertex -8.563792e+00 -1.267071e+01 3.737945e+01
      vertex -8.077497e-01 -2.064838e+00 5.585412e+01
      vertex -1.471248e+01 -9.825452e+00 3.737928e+01
    endloop
  endfacet
  facet normal 6.014848e-01 -5.576599e-01 5.720415e-01
    outer loop
      vertex 2.277772e+00 -1.768751e+01 3.737987e+01
      vertex 1.039928e+01 -8.926908e+00 3.738072e+01
      vertex 1.500528e+01 -3.958405e+00 3.738118e+01
    endloop
  endfacet
  facet normal 6.014854e-01 -5.576597e-01 5.720410e-01
    outer loop
      vertex -8.077497e-01 -2.064838e+00 5.585412e+01
      vertex 2.277772e+00 -1.768751e+01 3.737987e+01
      vertex -8.077495e-01 -2.064829e+00 5.585412e+01
    endloop
  endfacet
  facet normal 6.014848e-01 -5.576603e-01 5.720410e-01
    outer loop
      vertex -8.077495e-01 -2.064829e+00 5.585412e+01
      vertex 2.277772e+00 -1.768751e+01 3.737987e+01
      vertex 1.500528e+01 -3.958405e+00 3.738118e+01
    endloop
  endfacet
  facet normal 7.161888e-01 3.997310e-01 5.720915e-01
    outer loop
      vertex -8.077495e-01 -2.064829e+00 5.585412e+01
      vertex 1.500528e+01 -3.958405e+00 3.738118e+01
      vertex 5.881198e+00 1.238874e+01 3.738146e+01
    endloop
  endfacet
  facet normal 7.161887e-01 3.997315e-01 5.720913e-01
    outer loop
      vertex -8.077491e-01 -2.064809e+00 5.585412e+01
      vertex -8.077495e-01 -2.064829e+00 5.585412e+01
      vertex 5.881198e+00 1.238874e+01 3.738146e+01
    endloop
  endfacet
endsolid Default
