solid GearT5_12
facet normal -0.0 -0.0 1.0
outer loop
vertex -4.61602540378444 5.99519052838329 2.0
vertex -5.61602540378444 7.72724133595217 2.0
vertex -5.99519052838329 4.61602540378444 2.0
endloop
endfacet
facet normal -0.0 -0.0 1.0
outer loop
vertex 2.88397459621556 6.99519052838329 2.0
vertex 1.0 9.5 2.0
vertex 1.0 7.5 2.0
endloop
endfacet
facet normal -0.0 -0.0 1.0
outer loop
vertex 5.99519052838329 4.61602540378444 2.0
vertex 5.61602540378444 7.72724133595217 2.0
vertex 4.61602540378444 5.99519052838329 2.0
endloop
endfacet
facet normal -0.0 -0.0 1.0
outer loop
vertex 7.5 1.0 2.0
vertex 8.72724133595217 3.88397459621556 2.0
vertex 6.99519052838329 2.88397459621556 2.0
endloop
endfacet
facet normal -0.0 -0.0 1.0
outer loop
vertex 8.72724133595217 3.88397459621556 2.0
vertex 7.5 1.0 2.0
vertex 9.5 1.0 2.0
endloop
endfacet
facet normal -0.0 -0.0 1.0
outer loop
vertex -11.5911099154688 -3.10582854123024 2.0
vertex -11.5911099154688 3.10582854123025 2.0
vertex -12.0 1.46957615897682e-015 2.0
endloop
endfacet
facet normal -0.0 -0.0 1.0
outer loop
vertex -11.5911099154688 3.10582854123025 2.0
vertex -11.5911099154688 -3.10582854123024 2.0
vertex -10.3923048454133 -6.0 2.0
endloop
endfacet
facet normal -0.0 -0.0 1.0
outer loop
vertex -11.5911099154688 3.10582854123025 2.0
vertex -10.3923048454133 -6.0 2.0
vertex -10.3923048454133 6.0 2.0
endloop
endfacet
facet normal -0.0 -0.0 1.0
outer loop
vertex -10.3923048454133 6.0 2.0
vertex -10.3923048454133 -6.0 2.0
vertex -9.5 -1.0 2.0
endloop
endfacet
facet normal -0.0 -0.0 1.0
outer loop
vertex -9.5 -1.0 2.0
vertex -10.3923048454133 -6.0 2.0
vertex -8.48528137423857 -8.48528137423857 2.0
endloop
endfacet
facet normal -0.0 -0.0 1.0
outer loop
vertex -10.3923048454133 6.0 2.0
vertex -9.5 -1.0 2.0
vertex -9.5 0.999999999999998 2.0
endloop
endfacet
facet normal -0.0 -0.0 1.0
outer loop
vertex -9.5 -1.0 2.0
vertex -8.48528137423857 -8.48528137423857 2.0
vertex -8.72724133595217 -3.88397459621556 2.0
endloop
endfacet
facet normal -0.0 -0.0 1.0
outer loop
vertex -8.72724133595217 -3.88397459621556 2.0
vertex -8.48528137423857 -8.48528137423857 2.0
vertex -7.72724133595217 -5.61602540378444 2.0
endloop
endfacet
facet normal -0.0 -0.0 1.0
outer loop
vertex -7.72724133595217 -5.61602540378444 2.0
vertex -8.48528137423857 -8.48528137423857 2.0
vertex -6.00000000000001 -10.3923048454133 2.0
endloop
endfacet
facet normal -0.0 -0.0 1.0
outer loop
vertex -7.72724133595217 -5.61602540378444 2.0
vertex -6.00000000000001 -10.3923048454133 2.0
vertex -5.99519052838329 -4.61602540378444 2.0
endloop
endfacet
facet normal -0.0 -0.0 1.0
outer loop
vertex -5.99519052838329 -4.61602540378444 2.0
vertex -6.00000000000001 -10.3923048454133 2.0
vertex -5.61602540378444 -7.72724133595217 2.0
endloop
endfacet
facet normal -0.0 -0.0 1.0
outer loop
vertex -5.61602540378444 -7.72724133595217 2.0
vertex -6.00000000000001 -10.3923048454133 2.0
vertex -3.10582854123026 -11.5911099154688 2.0
endloop
endfacet
facet normal -0.0 -0.0 1.0
outer loop
vertex -5.61602540378444 -7.72724133595217 2.0
vertex -3.10582854123026 -11.5911099154688 2.0
vertex -3.88397459621556 -8.72724133595217 2.0
endloop
endfacet
facet normal -0.0 -0.0 1.0
outer loop
vertex -3.88397459621556 -8.72724133595217 2.0
vertex -3.10582854123026 -11.5911099154688 2.0
vertex -2.88397459621556 -6.99519052838329 2.0
endloop
endfacet
facet normal -0.0 -0.0 1.0
outer loop
vertex -2.88397459621556 -6.99519052838329 2.0
vertex -3.10582854123026 -11.5911099154688 2.0
vertex -2.20309881449055e-015 -12.0 2.0
endloop
endfacet
facet normal -0.0 -0.0 1.0
outer loop
vertex -2.88397459621556 -6.99519052838329 2.0
vertex -2.20309881449055e-015 -12.0 2.0
vertex -0.999999999999994 -9.5 2.0
endloop
endfacet
facet normal -0.0 -0.0 1.0
outer loop
vertex -2.88397459621556 -6.99519052838329 2.0
vertex -0.999999999999994 -9.5 2.0
vertex -0.999999999999998 -7.5 2.0
endloop
endfacet
facet normal -0.0 -0.0 1.0
outer loop
vertex -0.999999999999994 -9.5 2.0
vertex -2.20309881449055e-015 -12.0 2.0
vertex 1.00000000000001 -9.5 2.0
endloop
endfacet
facet normal -0.0 -0.0 1.0
outer loop
vertex 1.00000000000001 -9.5 2.0
vertex -2.20309881449055e-015 -12.0 2.0
vertex 3.10582854123024 -11.5911099154688 2.0
endloop
endfacet
facet normal -0.0 -0.0 1.0
outer loop
vertex 1.00000000000001 -9.5 2.0
vertex 3.10582854123024 -11.5911099154688 2.0
vertex 2.88397459621557 -6.99519052838329 2.0
endloop
endfacet
facet normal -0.0 -0.0 1.0
outer loop
vertex 2.88397459621557 -6.99519052838329 2.0
vertex 3.10582854123024 -11.5911099154688 2.0
vertex 3.88397459621557 -8.72724133595216 2.0
endloop
endfacet
facet normal -0.0 -0.0 1.0
outer loop
vertex 3.88397459621557 -8.72724133595216 2.0
vertex 3.10582854123024 -11.5911099154688 2.0
vertex 5.99999999999999 -10.3923048454133 2.0
endloop
endfacet
facet normal -0.0 -0.0 1.0
outer loop
vertex 3.88397459621557 -8.72724133595216 2.0
vertex 5.99999999999999 -10.3923048454133 2.0
vertex 5.61602540378445 -7.72724133595216 2.0
endloop
endfacet
facet normal -0.0 -0.0 1.0
outer loop
vertex 5.61602540378445 -7.72724133595216 2.0
vertex 5.99999999999999 -10.3923048454133 2.0
vertex 5.99519052838329 -4.61602540378443 2.0
endloop
endfacet
facet normal -0.0 -0.0 1.0
outer loop
vertex 5.99519052838329 -4.61602540378443 2.0
vertex 5.99999999999999 -10.3923048454133 2.0
vertex 7.72724133595217 -5.61602540378444 2.0
endloop
endfacet
facet normal -0.0 -0.0 1.0
outer loop
vertex 7.72724133595217 -5.61602540378444 2.0
vertex 5.99999999999999 -10.3923048454133 2.0
vertex 8.48528137423857 -8.48528137423857 2.0
endloop
endfacet
facet normal -0.0 -0.0 1.0
outer loop
vertex 7.72724133595217 -5.61602540378444 2.0
vertex 8.48528137423857 -8.48528137423857 2.0
vertex 8.72724133595217 -3.88397459621556 2.0
endloop
endfacet
facet normal -0.0 -0.0 1.0
outer loop
vertex 8.72724133595217 -3.88397459621556 2.0
vertex 8.48528137423857 -8.48528137423857 2.0
vertex 10.3923048454133 -6.00000000000001 2.0
endloop
endfacet
facet normal -0.0 -0.0 1.0
outer loop
vertex 8.72724133595217 -3.88397459621556 2.0
vertex 10.3923048454133 -6.00000000000001 2.0
vertex 9.5 -1.0 2.0
endloop
endfacet
facet normal -0.0 -0.0 1.0
outer loop
vertex 9.5 -1.0 2.0
vertex 10.3923048454133 -6.00000000000001 2.0
vertex 9.5 1.0 2.0
endloop
endfacet
facet normal -0.0 -0.0 1.0
outer loop
vertex -9.5 0.999999999999998 2.0
vertex -8.48528137423857 8.48528137423857 2.0
vertex -10.3923048454133 6.0 2.0
endloop
endfacet
facet normal -0.0 -0.0 1.0
outer loop
vertex -8.48528137423857 8.48528137423857 2.0
vertex -9.5 0.999999999999998 2.0
vertex -8.72724133595217 3.88397459621556 2.0
endloop
endfacet
facet normal -0.0 -0.0 1.0
outer loop
vertex -8.48528137423857 8.48528137423857 2.0
vertex -8.72724133595217 3.88397459621556 2.0
vertex -7.72724133595217 5.61602540378444 2.0
endloop
endfacet
facet normal -0.0 -0.0 1.0
outer loop
vertex -8.48528137423857 8.48528137423857 2.0
vertex -7.72724133595217 5.61602540378444 2.0
vertex -6.0 10.3923048454133 2.0
endloop
endfacet
facet normal -0.0 -0.0 1.0
outer loop
vertex -6.0 10.3923048454133 2.0
vertex -7.72724133595217 5.61602540378444 2.0
vertex -5.99519052838329 4.61602540378444 2.0
endloop
endfacet
facet normal -0.0 -0.0 1.0
outer loop
vertex -6.0 10.3923048454133 2.0
vertex -5.99519052838329 4.61602540378444 2.0
vertex -5.61602540378444 7.72724133595217 2.0
endloop
endfacet
facet normal -0.0 -0.0 1.0
outer loop
vertex -6.0 10.3923048454133 2.0
vertex -5.61602540378444 7.72724133595217 2.0
vertex -3.10582854123025 11.5911099154688 2.0
endloop
endfacet
facet normal -0.0 -0.0 1.0
outer loop
vertex -3.10582854123025 11.5911099154688 2.0
vertex -5.61602540378444 7.72724133595217 2.0
vertex -3.88397459621556 8.72724133595217 2.0
endloop
endfacet
facet normal -0.0 -0.0 1.0
outer loop
vertex -3.10582854123025 11.5911099154688 2.0
vertex -3.88397459621556 8.72724133595217 2.0
vertex -2.88397459621556 6.99519052838329 2.0
endloop
endfacet
facet normal -0.0 -0.0 1.0
outer loop
vertex -3.10582854123025 11.5911099154688 2.0
vertex -2.88397459621556 6.99519052838329 2.0
vertex 7.04991620636974e-016 12.0 2.0
endloop
endfacet
facet normal -0.0 -0.0 1.0
outer loop
vertex 7.04991620636974e-016 12.0 2.0
vertex -2.88397459621556 6.99519052838329 2.0
vertex -1.0 9.5 2.0
endloop
endfacet
facet normal -0.0 -0.0 1.0
outer loop
vertex -1.0 9.5 2.0
vertex -2.88397459621556 6.99519052838329 2.0
vertex -1.0 7.5 2.0
endloop
endfacet
facet normal -0.0 -0.0 1.0
outer loop
vertex 7.04991620636974e-016 12.0 2.0
vertex -1.0 9.5 2.0
vertex 1.0 9.5 2.0
endloop
endfacet
facet normal -0.0 -0.0 1.0
outer loop
vertex 7.04991620636974e-016 12.0 2.0
vertex 1.0 9.5 2.0
vertex 3.10582854123025 11.5911099154688 2.0
endloop
endfacet
facet normal -0.0 -0.0 1.0
outer loop
vertex 3.10582854123025 11.5911099154688 2.0
vertex 1.0 9.5 2.0
vertex 2.88397459621556 6.99519052838329 2.0
endloop
endfacet
facet normal -0.0 -0.0 1.0
outer loop
vertex 3.10582854123025 11.5911099154688 2.0
vertex 2.88397459621556 6.99519052838329 2.0
vertex 3.88397459621556 8.72724133595217 2.0
endloop
endfacet
facet normal -0.0 -0.0 1.0
outer loop
vertex 3.10582854123025 11.5911099154688 2.0
vertex 3.88397459621556 8.72724133595217 2.0
vertex 6.0 10.3923048454133 2.0
endloop
endfacet
facet normal -0.0 -0.0 1.0
outer loop
vertex 6.0 10.3923048454133 2.0
vertex 3.88397459621556 8.72724133595217 2.0
vertex 5.61602540378444 7.72724133595217 2.0
endloop
endfacet
facet normal -0.0 -0.0 1.0
outer loop
vertex 6.0 10.3923048454133 2.0
vertex 5.61602540378444 7.72724133595217 2.0
vertex 5.99519052838329 4.61602540378444 2.0
endloop
endfacet
facet normal -0.0 -0.0 1.0
outer loop
vertex 6.0 10.3923048454133 2.0
vertex 5.99519052838329 4.61602540378444 2.0
vertex 7.72724133595217 5.61602540378444 2.0
endloop
endfacet
facet normal -0.0 -0.0 1.0
outer loop
vertex 6.0 10.3923048454133 2.0
vertex 7.72724133595217 5.61602540378444 2.0
vertex 8.48528137423857 8.48528137423857 2.0
endloop
endfacet
facet normal -0.0 -0.0 1.0
outer loop
vertex 8.48528137423857 8.48528137423857 2.0
vertex 7.72724133595217 5.61602540378444 2.0
vertex 8.72724133595217 3.88397459621556 2.0
endloop
endfacet
facet normal -0.0 -0.0 1.0
outer loop
vertex 8.48528137423857 8.48528137423857 2.0
vertex 8.72724133595217 3.88397459621556 2.0
vertex 10.3923048454133 6.0 2.0
endloop
endfacet
facet normal -0.0 -0.0 1.0
outer loop
vertex 10.3923048454133 6.0 2.0
vertex 8.72724133595217 3.88397459621556 2.0
vertex 9.5 1.0 2.0
endloop
endfacet
facet normal -0.0 -0.0 1.0
outer loop
vertex 10.3923048454133 6.0 2.0
vertex 9.5 1.0 2.0
vertex 10.3923048454133 -6.00000000000001 2.0
endloop
endfacet
facet normal -0.0 -0.0 1.0
outer loop
vertex 10.3923048454133 6.0 2.0
vertex 10.3923048454133 -6.00000000000001 2.0
vertex 11.5911099154688 -3.10582854123026 2.0
endloop
endfacet
facet normal -0.0 -0.0 1.0
outer loop
vertex 10.3923048454133 6.0 2.0
vertex 11.5911099154688 -3.10582854123026 2.0
vertex 11.5911099154688 3.10582854123025 2.0
endloop
endfacet
facet normal -0.0 -0.0 1.0
outer loop
vertex 11.5911099154688 3.10582854123025 2.0
vertex 11.5911099154688 -3.10582854123026 2.0
vertex 12.0 0.0 2.0
endloop
endfacet
facet normal -0.0 -0.0 1.0
outer loop
vertex 8.72724133595217 -3.88397459621556 2.0
vertex 7.5 -1.0 2.0
vertex 6.99519052838329 -2.88397459621556 2.0
endloop
endfacet
facet normal -0.0 -0.0 1.0
outer loop
vertex 7.5 -1.0 2.0
vertex 8.72724133595217 -3.88397459621556 2.0
vertex 9.5 -1.0 2.0
endloop
endfacet
facet normal -0.0 -0.0 1.0
outer loop
vertex 5.99519052838329 -4.61602540378443 2.0
vertex 4.61602540378444 -5.99519052838329 2.0
vertex 5.61602540378445 -7.72724133595216 2.0
endloop
endfacet
facet normal -0.0 -0.0 1.0
outer loop
vertex 2.88397459621557 -6.99519052838329 2.0
vertex 1.00000000000001 -7.5 2.0
vertex 1.00000000000001 -9.5 2.0
endloop
endfacet
facet normal -0.0 -0.0 1.0
outer loop
vertex -4.61602540378444 -5.99519052838329 2.0
vertex -5.99519052838329 -4.61602540378444 2.0
vertex -5.61602540378444 -7.72724133595217 2.0
endloop
endfacet
facet normal -0.0 -0.0 1.0
outer loop
vertex -8.72724133595217 -3.88397459621556 2.0
vertex -7.5 -1.0 2.0
vertex -9.5 -1.0 2.0
endloop
endfacet
facet normal -0.0 -0.0 1.0
outer loop
vertex -7.5 -1.0 2.0
vertex -8.72724133595217 -3.88397459621556 2.0
vertex -6.99519052838329 -2.88397459621556 2.0
endloop
endfacet
facet normal -0.0 -0.0 1.0
outer loop
vertex -7.5 1.0 2.0
vertex -8.72724133595217 3.88397459621556 2.0
vertex -9.5 0.999999999999998 2.0
endloop
endfacet
facet normal -0.0 -0.0 1.0
outer loop
vertex -8.72724133595217 3.88397459621556 2.0
vertex -7.5 1.0 2.0
vertex -6.99519052838329 2.88397459621556 2.0
endloop
endfacet
facet normal 0.5 0.866025403784438 -0.0
outer loop
vertex -7.72724133595217 5.61602540378444 8.5
vertex -5.99519052838329 4.61602540378444 2.0
vertex -7.72724133595217 5.61602540378444 2.0
endloop
endfacet
facet normal 0.5 0.866025403784438 -0.0
outer loop
vertex -5.99519052838329 4.61602540378444 2.0
vertex -7.72724133595217 5.61602540378444 8.5
vertex -5.99519052838329 4.61602540378444 8.5
endloop
endfacet
facet normal -0.866025403784439 0.499999999999999 -4.76047238014674e-032
outer loop
vertex -7.72724133595217 5.61602540378444 10.0000000000001
vertex -8.72724133595217 3.88397459621556 8.5
vertex -8.72724133595217 3.88397459621556 10.0000000000001
endloop
endfacet
facet normal -0.866025403784439 0.499999999999999 -4.76047238014674e-032
outer loop
vertex -8.72724133595217 3.88397459621556 8.5
vertex -7.72724133595217 5.61602540378444 10.0000000000001
vertex -8.72724133595217 3.88397459621556 2.0
endloop
endfacet
facet normal -0.866025403784439 0.499999999999999 -4.76047238014674e-032
outer loop
vertex -8.72724133595217 3.88397459621556 2.0
vertex -7.72724133595217 5.61602540378444 10.0000000000001
vertex -7.72724133595217 5.61602540378444 2.0
endloop
endfacet
facet normal -0.866025403784439 0.499999999999999 -4.76047238014674e-032
outer loop
vertex -7.72724133595217 5.61602540378444 2.0
vertex -7.72724133595217 5.61602540378444 10.0000000000001
vertex -7.72724133595217 5.61602540378444 8.5
endloop
endfacet
facet normal -1.23373533611471e-015 1.0 -0.0
outer loop
vertex -9.5 0.999999999999998 8.5
vertex -7.5 1.0 2.0
vertex -9.5 0.999999999999998 2.0
endloop
endfacet
facet normal -1.23373533611471e-015 1.0 -0.0
outer loop
vertex -7.5 1.0 2.0
vertex -9.5 0.999999999999998 8.5
vertex -7.5 1.0 8.5
endloop
endfacet
facet normal -1.0 -7.04991620636974e-016 0.0
outer loop
vertex -9.5 0.999999999999998 10.0000000000001
vertex -9.5 -1.0 8.5
vertex -9.5 -1.0 10.0000000000001
endloop
endfacet
facet normal -1.0 -7.04991620636974e-016 0.0
outer loop
vertex -9.5 -1.0 8.5
vertex -9.5 0.999999999999998 10.0000000000001
vertex -9.5 -1.0 2.0
endloop
endfacet
facet normal -1.0 -7.04991620636974e-016 0.0
outer loop
vertex -9.5 -1.0 2.0
vertex -9.5 0.999999999999998 10.0000000000001
vertex -9.5 0.999999999999998 2.0
endloop
endfacet
facet normal -1.0 -7.04991620636974e-016 0.0
outer loop
vertex -9.5 0.999999999999998 2.0
vertex -9.5 0.999999999999998 10.0000000000001
vertex -9.5 0.999999999999998 8.5
endloop
endfacet
facet normal -0.500000000000001 0.866025403784438 -0.0
outer loop
vertex -8.72724133595217 -3.88397459621556 8.5
vertex -6.99519052838329 -2.88397459621556 2.0
vertex -8.72724133595217 -3.88397459621556 2.0
endloop
endfacet
facet normal -0.500000000000001 0.866025403784438 -0.0
outer loop
vertex -6.99519052838329 -2.88397459621556 2.0
vertex -8.72724133595217 -3.88397459621556 8.5
vertex -6.99519052838329 -2.88397459621556 8.5
endloop
endfacet
facet normal -0.866025403784439 -0.5 -2.38023619007337e-032
outer loop
vertex -8.72724133595217 -3.88397459621556 10.0000000000001
vertex -7.72724133595217 -5.61602540378444 8.5
vertex -7.72724133595217 -5.61602540378444 10.0000000000001
endloop
endfacet
facet normal -0.866025403784439 -0.5 -2.38023619007337e-032
outer loop
vertex -7.72724133595217 -5.61602540378444 8.5
vertex -8.72724133595217 -3.88397459621556 10.0000000000001
vertex -7.72724133595217 -5.61602540378444 2.0
endloop
endfacet
facet normal -0.866025403784439 -0.5 -2.38023619007337e-032
outer loop
vertex -7.72724133595217 -5.61602540378444 2.0
vertex -8.72724133595217 -3.88397459621556 10.0000000000001
vertex -8.72724133595217 -3.88397459621556 2.0
endloop
endfacet
facet normal -0.866025403784439 -0.5 -2.38023619007337e-032
outer loop
vertex -8.72724133595217 -3.88397459621556 2.0
vertex -8.72724133595217 -3.88397459621556 10.0000000000001
vertex -8.72724133595217 -3.88397459621556 8.5
endloop
endfacet
facet normal 0.5 -0.866025403784439 0.0
outer loop
vertex 8.72724133595217 3.88397459621556 8.5
vertex 6.99519052838329 2.88397459621556 2.0
vertex 8.72724133595217 3.88397459621556 2.0
endloop
endfacet
facet normal 0.5 -0.866025403784439 0.0
outer loop
vertex 6.99519052838329 2.88397459621556 2.0
vertex 8.72724133595217 3.88397459621556 8.5
vertex 6.99519052838329 2.88397459621556 8.5
endloop
endfacet
facet normal 0.866025403784439 0.5 3.20105597078901e-018
outer loop
vertex 7.72724133595217 5.61602540378444 2.0
vertex 8.72724133595217 3.88397459621556 8.5
vertex 8.72724133595217 3.88397459621556 2.0
endloop
endfacet
facet normal 0.866025403784439 0.5 3.20105597078901e-018
outer loop
vertex 8.72724133595217 3.88397459621556 8.5
vertex 7.72724133595217 5.61602540378444 2.0
vertex 8.72724133595217 3.88397459621556 10.0000000000001
endloop
endfacet
facet normal 0.866025403784439 0.5 3.20105597078901e-018
outer loop
vertex 8.72724133595217 3.88397459621556 10.0000000000001
vertex 7.72724133595217 5.61602540378444 2.0
vertex 7.72724133595217 5.61602540378444 10.0000000000001
endloop
endfacet
facet normal 0.866025403784439 0.5 3.20105597078901e-018
outer loop
vertex 7.72724133595217 5.61602540378444 10.0000000000001
vertex 7.72724133595217 5.61602540378444 2.0
vertex 7.72724133595217 5.61602540378444 8.5
endloop
endfacet
facet normal 0.866025403784439 0.5 -0.0
outer loop
vertex -3.88397459621556 8.72724133595217 2.0
vertex -2.88397459621556 6.99519052838329 8.5
vertex -2.88397459621556 6.99519052838329 2.0
endloop
endfacet
facet normal 0.866025403784439 0.5 -0.0
outer loop
vertex -2.88397459621556 6.99519052838329 8.5
vertex -3.88397459621556 8.72724133595217 2.0
vertex -3.88397459621556 8.72724133595217 8.5
endloop
endfacet
facet normal -0.0 1.0 -0.0
outer loop
vertex -1.0 9.5 8.5
vertex 1.0 9.5 2.0
vertex -1.0 9.5 2.0
endloop
endfacet
facet normal -0.0 1.0 -0.0
outer loop
vertex 1.0 9.5 2.0
vertex -1.0 9.5 8.5
vertex 1.0 9.5 8.5
endloop
endfacet
facet normal -0.0 1.0 -0.0
outer loop
vertex 1.0 9.5 8.5
vertex -1.0 9.5 8.5
vertex -1.0 9.5 10.0000000000001
endloop
endfacet
facet normal -0.0 1.0 -0.0
outer loop
vertex 1.0 9.5 8.5
vertex -1.0 9.5 10.0000000000001
vertex 1.0 9.5 10.0000000000001
endloop
endfacet
facet normal 0.5 0.866025403784439 -0.0
outer loop
vertex 6.99519052838329 -2.88397459621556 8.5
vertex 8.72724133595217 -3.88397459621556 2.0
vertex 6.99519052838329 -2.88397459621556 2.0
endloop
endfacet
facet normal 0.5 0.866025403784439 -0.0
outer loop
vertex 8.72724133595217 -3.88397459621556 2.0
vertex 6.99519052838329 -2.88397459621556 8.5
vertex 8.72724133595217 -3.88397459621556 8.5
endloop
endfacet
facet normal 0.866025403784439 -0.499999999999998 3.61896873859966e-018
outer loop
vertex 8.72724133595217 -3.88397459621556 2.0
vertex 7.72724133595217 -5.61602540378444 8.5
vertex 7.72724133595217 -5.61602540378444 2.0
endloop
endfacet
facet normal 0.866025403784439 -0.499999999999998 3.61896873859966e-018
outer loop
vertex 7.72724133595217 -5.61602540378444 8.5
vertex 8.72724133595217 -3.88397459621556 2.0
vertex 7.72724133595217 -5.61602540378444 10.0
endloop
endfacet
facet normal 0.866025403784439 -0.499999999999998 3.61896873859966e-018
outer loop
vertex 7.72724133595217 -5.61602540378444 10.0
vertex 8.72724133595217 -3.88397459621556 2.0
vertex 8.72724133595217 -3.88397459621556 10.0
endloop
endfacet
facet normal 0.866025403784439 -0.499999999999998 3.61896873859966e-018
outer loop
vertex 8.72724133595217 -3.88397459621556 10.0
vertex 8.72724133595217 -3.88397459621556 2.0
vertex 8.72724133595217 -3.88397459621556 8.5
endloop
endfacet
facet normal -0.5 -0.866025403784438 0.0
outer loop
vertex 7.72724133595217 -5.61602540378444 8.5
vertex 5.99519052838329 -4.61602540378443 2.0
vertex 7.72724133595217 -5.61602540378444 2.0
endloop
endfacet
facet normal -0.5 -0.866025403784438 0.0
outer loop
vertex 5.99519052838329 -4.61602540378443 2.0
vertex 7.72724133595217 -5.61602540378444 8.5
vertex 5.99519052838329 -4.61602540378443 8.5
endloop
endfacet
facet normal 0.707106781186548 -0.707106781186547 -0.0
outer loop
vertex 5.99519052838329 -4.61602540378443 2.0
vertex 4.61602540378444 -5.99519052838329 8.5
vertex 4.61602540378444 -5.99519052838329 2.0
endloop
endfacet
facet normal 0.707106781186548 -0.707106781186547 -0.0
outer loop
vertex 4.61602540378444 -5.99519052838329 8.5
vertex 5.99519052838329 -4.61602540378443 2.0
vertex 5.99519052838329 -4.61602540378443 8.5
endloop
endfacet
facet normal 0.866025403784438 0.5 -0.0
outer loop
vertex 4.61602540378444 -5.99519052838329 2.0
vertex 5.61602540378445 -7.72724133595216 8.5
vertex 5.61602540378445 -7.72724133595216 2.0
endloop
endfacet
facet normal 0.866025403784438 0.5 -0.0
outer loop
vertex 5.61602540378445 -7.72724133595216 8.5
vertex 4.61602540378444 -5.99519052838329 2.0
vertex 4.61602540378444 -5.99519052838329 8.5
endloop
endfacet
facet normal 0.5 -0.866025403784439 4.17574053663875e-018
outer loop
vertex 5.61602540378445 -7.72724133595216 8.5
vertex 3.88397459621557 -8.72724133595216 2.0
vertex 5.61602540378445 -7.72724133595216 2.0
endloop
endfacet
facet normal 0.5 -0.866025403784439 4.17574053663875e-018
outer loop
vertex 3.88397459621557 -8.72724133595216 2.0
vertex 5.61602540378445 -7.72724133595216 8.5
vertex 3.88397459621557 -8.72724133595216 8.5
endloop
endfacet
facet normal 0.5 -0.866025403784439 4.17574053663875e-018
outer loop
vertex 3.88397459621557 -8.72724133595216 8.5
vertex 5.61602540378445 -7.72724133595216 8.5
vertex 5.61602540378445 -7.72724133595216 10.0
endloop
endfacet
facet normal 0.5 -0.866025403784439 4.17574053663875e-018
outer loop
vertex 3.88397459621557 -8.72724133595216 8.5
vertex 5.61602540378445 -7.72724133595216 10.0
vertex 3.88397459621557 -8.72724133595216 10.0000000000001
endloop
endfacet
facet normal -0.866025403784438 -0.500000000000001 0.0
outer loop
vertex 2.88397459621557 -6.99519052838329 8.5
vertex 3.88397459621557 -8.72724133595216 2.0
vertex 3.88397459621557 -8.72724133595216 8.5
endloop
endfacet
facet normal -0.866025403784438 -0.500000000000001 0.0
outer loop
vertex 3.88397459621557 -8.72724133595216 2.0
vertex 2.88397459621557 -6.99519052838329 8.5
vertex 2.88397459621557 -6.99519052838329 2.0
endloop
endfacet
facet normal -0.5 0.866025403784439 -2.38023619007337e-032
outer loop
vertex -5.61602540378444 7.72724133595217 8.5
vertex -3.88397459621556 8.72724133595217 2.0
vertex -5.61602540378444 7.72724133595217 2.0
endloop
endfacet
facet normal -0.5 0.866025403784439 -2.38023619007337e-032
outer loop
vertex -3.88397459621556 8.72724133595217 2.0
vertex -5.61602540378444 7.72724133595217 8.5
vertex -3.88397459621556 8.72724133595217 8.5
endloop
endfacet
facet normal -0.5 0.866025403784439 -2.38023619007337e-032
outer loop
vertex -3.88397459621556 8.72724133595217 8.5
vertex -5.61602540378444 7.72724133595217 8.5
vertex -5.61602540378444 7.72724133595217 10.0000000000001
endloop
endfacet
facet normal -0.5 0.866025403784439 -2.38023619007337e-032
outer loop
vertex -3.88397459621556 8.72724133595217 8.5
vertex -5.61602540378444 7.72724133595217 10.0000000000001
vertex -3.88397459621556 8.72724133595217 10.0000000000001
endloop
endfacet
facet normal 0.965925826289068 0.258819045102521 -0.0
outer loop
vertex 6.99519052838329 2.88397459621556 2.0
vertex 7.5 1.0 8.5
vertex 7.5 1.0 2.0
endloop
endfacet
facet normal 0.965925826289068 0.258819045102521 -0.0
outer loop
vertex 7.5 1.0 8.5
vertex 6.99519052838329 2.88397459621556 2.0
vertex 6.99519052838329 2.88397459621556 8.5
endloop
endfacet
facet normal -0.0 1.0 -0.0
outer loop
vertex 7.5 1.0 8.5
vertex 9.5 1.0 2.0
vertex 7.5 1.0 2.0
endloop
endfacet
facet normal -0.0 1.0 -0.0
outer loop
vertex 9.5 1.0 2.0
vertex 7.5 1.0 8.5
vertex 9.5 1.0 8.5
endloop
endfacet
facet normal 1.0 -0.0 -0.0
outer loop
vertex 9.5 1.0 2.0
vertex 9.5 -1.0 8.5
vertex 9.5 -1.0 2.0
endloop
endfacet
facet normal 1.0 -0.0 -0.0
outer loop
vertex 9.5 -1.0 8.5
vertex 9.5 1.0 2.0
vertex 9.5 -1.0 10.0
endloop
endfacet
facet normal 1.0 -0.0 -0.0
outer loop
vertex 9.5 -1.0 10.0
vertex 9.5 1.0 2.0
vertex 9.5 1.0 10.0000000000001
endloop
endfacet
facet normal 1.0 -0.0 -0.0
outer loop
vertex 9.5 1.0 10.0000000000001
vertex 9.5 1.0 2.0
vertex 9.5 1.0 8.5
endloop
endfacet
facet normal 0.0 -1.0 0.0
outer loop
vertex 9.5 -1.0 8.5
vertex 7.5 -1.0 2.0
vertex 9.5 -1.0 2.0
endloop
endfacet
facet normal 0.0 -1.0 0.0
outer loop
vertex 7.5 -1.0 2.0
vertex 9.5 -1.0 8.5
vertex 7.5 -1.0 8.5
endloop
endfacet
facet normal 0.965925826289068 -0.258819045102521 -0.0
outer loop
vertex 7.5 -1.0 2.0
vertex 6.99519052838329 -2.88397459621556 8.5
vertex 6.99519052838329 -2.88397459621556 2.0
endloop
endfacet
facet normal 0.965925826289068 -0.258819045102521 -0.0
outer loop
vertex 6.99519052838329 -2.88397459621556 8.5
vertex 7.5 -1.0 2.0
vertex 7.5 -1.0 8.5
endloop
endfacet
facet normal 1.40998324127395e-015 -1.0 0.0
outer loop
vertex 1.00000000000001 -9.5 8.5
vertex -0.999999999999994 -9.5 2.0
vertex 1.00000000000001 -9.5 2.0
endloop
endfacet
facet normal 1.40998324127395e-015 -1.0 0.0
outer loop
vertex -0.999999999999994 -9.5 2.0
vertex 1.00000000000001 -9.5 8.5
vertex -0.999999999999994 -9.5 8.5
endloop
endfacet
facet normal 1.40998324127395e-015 -1.0 0.0
outer loop
vertex -0.999999999999994 -9.5 8.5
vertex 1.00000000000001 -9.5 8.5
vertex 1.00000000000001 -9.5 10.0000000000001
endloop
endfacet
facet normal 1.40998324127395e-015 -1.0 0.0
outer loop
vertex -0.999999999999994 -9.5 8.5
vertex 1.00000000000001 -9.5 10.0000000000001
vertex -0.999999999999994 -9.5 10.0000000000001
endloop
endfacet
facet normal -1.0 -1.93872695675168e-015 0.0
outer loop
vertex -0.999999999999998 -7.5 8.5
vertex -0.999999999999994 -9.5 2.0
vertex -0.999999999999994 -9.5 8.5
endloop
endfacet
facet normal -1.0 -1.93872695675168e-015 0.0
outer loop
vertex -0.999999999999994 -9.5 2.0
vertex -0.999999999999998 -7.5 8.5
vertex -0.999999999999998 -7.5 2.0
endloop
endfacet
facet normal -0.499999999999999 -0.866025403784439 -3.608999108783e-018
outer loop
vertex -3.88397459621556 -8.72724133595217 8.5
vertex -5.61602540378444 -7.72724133595217 2.0
vertex -3.88397459621556 -8.72724133595217 2.0
endloop
endfacet
facet normal -0.499999999999999 -0.866025403784439 -3.608999108783e-018
outer loop
vertex -5.61602540378444 -7.72724133595217 2.0
vertex -3.88397459621556 -8.72724133595217 8.5
vertex -5.61602540378444 -7.72724133595217 8.5
endloop
endfacet
facet normal -0.499999999999999 -0.866025403784439 -3.608999108783e-018
outer loop
vertex -5.61602540378444 -7.72724133595217 8.5
vertex -3.88397459621556 -8.72724133595217 8.5
vertex -3.88397459621556 -8.72724133595217 10.0000000000001
endloop
endfacet
facet normal -0.499999999999999 -0.866025403784439 -3.608999108783e-018
outer loop
vertex -5.61602540378444 -7.72724133595217 8.5
vertex -3.88397459621556 -8.72724133595217 10.0000000000001
vertex -5.61602540378444 -7.72724133595217 10.0000000000001
endloop
endfacet
facet normal -0.866025403784438 0.5 0.0
outer loop
vertex -4.61602540378444 -5.99519052838329 8.5
vertex -5.61602540378444 -7.72724133595217 2.0
vertex -5.61602540378444 -7.72724133595217 8.5
endloop
endfacet
facet normal -0.866025403784438 0.5 0.0
outer loop
vertex -5.61602540378444 -7.72724133595217 2.0
vertex -4.61602540378444 -5.99519052838329 8.5
vertex -4.61602540378444 -5.99519052838329 2.0
endloop
endfacet
facet normal 1.0 -1.76247905159244e-016 -0.0
outer loop
vertex 1.0 9.5 2.0
vertex 1.0 7.5 8.5
vertex 1.0 7.5 2.0
endloop
endfacet
facet normal 1.0 -1.76247905159244e-016 -0.0
outer loop
vertex 1.0 7.5 8.5
vertex 1.0 9.5 2.0
vertex 1.0 9.5 8.5
endloop
endfacet
facet normal 0.499999999999999 0.866025403784439 -4.76047238014674e-032
outer loop
vertex 3.88397459621556 8.72724133595217 8.5
vertex 5.61602540378444 7.72724133595217 2.0
vertex 3.88397459621556 8.72724133595217 2.0
endloop
endfacet
facet normal 0.499999999999999 0.866025403784439 -4.76047238014674e-032
outer loop
vertex 5.61602540378444 7.72724133595217 2.0
vertex 3.88397459621556 8.72724133595217 8.5
vertex 5.61602540378444 7.72724133595217 8.5
endloop
endfacet
facet normal 0.499999999999999 0.866025403784439 -4.76047238014674e-032
outer loop
vertex 5.61602540378444 7.72724133595217 8.5
vertex 3.88397459621556 8.72724133595217 8.5
vertex 3.88397459621556 8.72724133595217 10.0000000000001
endloop
endfacet
facet normal 0.499999999999999 0.866025403784439 -4.76047238014674e-032
outer loop
vertex 5.61602540378444 7.72724133595217 8.5
vertex 3.88397459621556 8.72724133595217 10.0000000000001
vertex 5.61602540378444 7.72724133595217 10.0000000000001
endloop
endfacet
facet normal 0.866025403784438 -0.5 -0.0
outer loop
vertex 5.61602540378444 7.72724133595217 2.0
vertex 4.61602540378444 5.99519052838329 8.5
vertex 4.61602540378444 5.99519052838329 2.0
endloop
endfacet
facet normal 0.866025403784438 -0.5 -0.0
outer loop
vertex 4.61602540378444 5.99519052838329 8.5
vertex 5.61602540378444 7.72724133595217 2.0
vertex 5.61602540378444 7.72724133595217 8.5
endloop
endfacet
facet normal 0.923879532511287 0.38268343236509 -0.0
outer loop
vertex 10.3923048454133 6.0 0.0
vertex 11.5911099154688 3.10582854123025 2.0
vertex 11.5911099154688 3.10582854123025 0.0
endloop
endfacet
facet normal 0.923879532511287 0.38268343236509 -0.0
outer loop
vertex 11.5911099154688 3.10582854123025 2.0
vertex 10.3923048454133 6.0 0.0
vertex 10.3923048454133 6.0 2.0
endloop
endfacet
facet normal 0.99144486137381 0.130526192220051 -0.0
outer loop
vertex 11.5911099154688 3.10582854123025 0.0
vertex 12.0 0.0 2.0
vertex 12.0 0.0 0.0
endloop
endfacet
facet normal 0.99144486137381 0.130526192220051 -0.0
outer loop
vertex 12.0 0.0 2.0
vertex 11.5911099154688 3.10582854123025 0.0
vertex 11.5911099154688 3.10582854123025 2.0
endloop
endfacet
facet normal 0.99144486137381 -0.130526192220052 -0.0
outer loop
vertex 12.0 0.0 0.0
vertex 11.5911099154688 -3.10582854123026 2.0
vertex 11.5911099154688 -3.10582854123026 0.0
endloop
endfacet
facet normal 0.99144486137381 -0.130526192220052 -0.0
outer loop
vertex 11.5911099154688 -3.10582854123026 2.0
vertex 12.0 0.0 0.0
vertex 12.0 0.0 2.0
endloop
endfacet
facet normal 0.923879532511287 -0.38268343236509 -0.0
outer loop
vertex 11.5911099154688 -3.10582854123026 0.0
vertex 10.3923048454133 -6.00000000000001 2.0
vertex 10.3923048454133 -6.00000000000001 0.0
endloop
endfacet
facet normal 0.923879532511287 -0.38268343236509 -0.0
outer loop
vertex 10.3923048454133 -6.00000000000001 2.0
vertex 11.5911099154688 -3.10582854123026 0.0
vertex 11.5911099154688 -3.10582854123026 2.0
endloop
endfacet
facet normal 0.793353340291235 -0.608761429008721 -0.0
outer loop
vertex 10.3923048454133 -6.00000000000001 0.0
vertex 8.48528137423857 -8.48528137423857 2.0
vertex 8.48528137423857 -8.48528137423857 0.0
endloop
endfacet
facet normal 0.793353340291235 -0.608761429008721 -0.0
outer loop
vertex 8.48528137423857 -8.48528137423857 2.0
vertex 10.3923048454133 -6.00000000000001 0.0
vertex 10.3923048454133 -6.00000000000001 2.0
endloop
endfacet
facet normal 0.60876142900872 -0.793353340291236 0.0
outer loop
vertex 8.48528137423857 -8.48528137423857 2.0
vertex 5.99999999999999 -10.3923048454133 0.0
vertex 8.48528137423857 -8.48528137423857 0.0
endloop
endfacet
facet normal 0.60876142900872 -0.793353340291236 0.0
outer loop
vertex 5.99999999999999 -10.3923048454133 0.0
vertex 8.48528137423857 -8.48528137423857 2.0
vertex 5.99999999999999 -10.3923048454133 2.0
endloop
endfacet
facet normal 0.382683432365089 -0.923879532511287 0.0
outer loop
vertex 5.99999999999999 -10.3923048454133 2.0
vertex 3.10582854123024 -11.5911099154688 0.0
vertex 5.99999999999999 -10.3923048454133 0.0
endloop
endfacet
facet normal 0.382683432365089 -0.923879532511287 0.0
outer loop
vertex 3.10582854123024 -11.5911099154688 0.0
vertex 5.99999999999999 -10.3923048454133 2.0
vertex 3.10582854123024 -11.5911099154688 2.0
endloop
endfacet
facet normal 0.130526192220051 -0.99144486137381 0.0
outer loop
vertex 3.10582854123024 -11.5911099154688 2.0
vertex -2.20309881449055e-015 -12.0 0.0
vertex 3.10582854123024 -11.5911099154688 0.0
endloop
endfacet
facet normal 0.130526192220051 -0.99144486137381 0.0
outer loop
vertex -2.20309881449055e-015 -12.0 0.0
vertex 3.10582854123024 -11.5911099154688 2.0
vertex -2.20309881449055e-015 -12.0 2.0
endloop
endfacet
facet normal -0.130526192220052 -0.99144486137381 0.0
outer loop
vertex -2.20309881449055e-015 -12.0 2.0
vertex -3.10582854123026 -11.5911099154688 0.0
vertex -2.20309881449055e-015 -12.0 0.0
endloop
endfacet
facet normal -0.130526192220052 -0.99144486137381 0.0
outer loop
vertex -3.10582854123026 -11.5911099154688 0.0
vertex -2.20309881449055e-015 -12.0 2.0
vertex -3.10582854123026 -11.5911099154688 2.0
endloop
endfacet
facet normal -0.38268343236509 -0.923879532511287 0.0
outer loop
vertex -3.10582854123026 -11.5911099154688 2.0
vertex -6.00000000000001 -10.3923048454133 0.0
vertex -3.10582854123026 -11.5911099154688 0.0
endloop
endfacet
facet normal -0.38268343236509 -0.923879532511287 0.0
outer loop
vertex -6.00000000000001 -10.3923048454133 0.0
vertex -3.10582854123026 -11.5911099154688 2.0
vertex -6.00000000000001 -10.3923048454133 2.0
endloop
endfacet
facet normal -0.608761429008721 -0.793353340291235 0.0
outer loop
vertex -6.00000000000001 -10.3923048454133 2.0
vertex -8.48528137423857 -8.48528137423857 0.0
vertex -6.00000000000001 -10.3923048454133 0.0
endloop
endfacet
facet normal -0.608761429008721 -0.793353340291235 0.0
outer loop
vertex -8.48528137423857 -8.48528137423857 0.0
vertex -6.00000000000001 -10.3923048454133 2.0
vertex -8.48528137423857 -8.48528137423857 2.0
endloop
endfacet
facet normal -0.793353340291236 -0.60876142900872 0.0
outer loop
vertex -10.3923048454133 -6.0 2.0
vertex -8.48528137423857 -8.48528137423857 0.0
vertex -8.48528137423857 -8.48528137423857 2.0
endloop
endfacet
facet normal -0.793353340291236 -0.60876142900872 0.0
outer loop
vertex -8.48528137423857 -8.48528137423857 0.0
vertex -10.3923048454133 -6.0 2.0
vertex -10.3923048454133 -6.0 0.0
endloop
endfacet
facet normal -0.923879532511287 -0.382683432365089 0.0
outer loop
vertex -11.5911099154688 -3.10582854123024 2.0
vertex -10.3923048454133 -6.0 0.0
vertex -10.3923048454133 -6.0 2.0
endloop
endfacet
facet normal -0.923879532511287 -0.382683432365089 0.0
outer loop
vertex -10.3923048454133 -6.0 0.0
vertex -11.5911099154688 -3.10582854123024 2.0
vertex -11.5911099154688 -3.10582854123024 0.0
endloop
endfacet
facet normal -0.99144486137381 -0.130526192220051 0.0
outer loop
vertex -12.0 1.46957615897682e-015 2.0
vertex -11.5911099154688 -3.10582854123024 0.0
vertex -11.5911099154688 -3.10582854123024 2.0
endloop
endfacet
facet normal -0.99144486137381 -0.130526192220051 0.0
outer loop
vertex -11.5911099154688 -3.10582854123024 0.0
vertex -12.0 1.46957615897682e-015 2.0
vertex -12.0 1.46957615897682e-015 0.0
endloop
endfacet
facet normal -0.99144486137381 0.130526192220052 0.0
outer loop
vertex -11.5911099154688 3.10582854123025 2.0
vertex -12.0 1.46957615897682e-015 0.0
vertex -12.0 1.46957615897682e-015 2.0
endloop
endfacet
facet normal -0.99144486137381 0.130526192220052 0.0
outer loop
vertex -12.0 1.46957615897682e-015 0.0
vertex -11.5911099154688 3.10582854123025 2.0
vertex -11.5911099154688 3.10582854123025 0.0
endloop
endfacet
facet normal -0.923879532511287 0.38268343236509 0.0
outer loop
vertex -10.3923048454133 6.0 2.0
vertex -11.5911099154688 3.10582854123025 0.0
vertex -11.5911099154688 3.10582854123025 2.0
endloop
endfacet
facet normal -0.923879532511287 0.38268343236509 0.0
outer loop
vertex -11.5911099154688 3.10582854123025 0.0
vertex -10.3923048454133 6.0 2.0
vertex -10.3923048454133 6.0 0.0
endloop
endfacet
facet normal -0.793353340291235 0.608761429008721 0.0
outer loop
vertex -8.48528137423857 8.48528137423857 2.0
vertex -10.3923048454133 6.0 0.0
vertex -10.3923048454133 6.0 2.0
endloop
endfacet
facet normal -0.793353340291235 0.608761429008721 0.0
outer loop
vertex -10.3923048454133 6.0 0.0
vertex -8.48528137423857 8.48528137423857 2.0
vertex -8.48528137423857 8.48528137423857 0.0
endloop
endfacet
facet normal -0.60876142900872 0.793353340291236 -0.0
outer loop
vertex -8.48528137423857 8.48528137423857 2.0
vertex -6.0 10.3923048454133 0.0
vertex -8.48528137423857 8.48528137423857 0.0
endloop
endfacet
facet normal -0.60876142900872 0.793353340291236 -0.0
outer loop
vertex -6.0 10.3923048454133 0.0
vertex -8.48528137423857 8.48528137423857 2.0
vertex -6.0 10.3923048454133 2.0
endloop
endfacet
facet normal -0.38268343236509 0.923879532511287 -0.0
outer loop
vertex -6.0 10.3923048454133 2.0
vertex -3.10582854123025 11.5911099154688 0.0
vertex -6.0 10.3923048454133 0.0
endloop
endfacet
facet normal -0.38268343236509 0.923879532511287 -0.0
outer loop
vertex -3.10582854123025 11.5911099154688 0.0
vertex -6.0 10.3923048454133 2.0
vertex -3.10582854123025 11.5911099154688 2.0
endloop
endfacet
facet normal -0.130526192220051 0.99144486137381 -0.0
outer loop
vertex -3.10582854123025 11.5911099154688 2.0
vertex 7.04991620636974e-016 12.0 0.0
vertex -3.10582854123025 11.5911099154688 0.0
endloop
endfacet
facet normal -0.130526192220051 0.99144486137381 -0.0
outer loop
vertex 7.04991620636974e-016 12.0 0.0
vertex -3.10582854123025 11.5911099154688 2.0
vertex 7.04991620636974e-016 12.0 2.0
endloop
endfacet
facet normal 0.130526192220052 0.99144486137381 -0.0
outer loop
vertex 7.04991620636974e-016 12.0 2.0
vertex 3.10582854123025 11.5911099154688 0.0
vertex 7.04991620636974e-016 12.0 0.0
endloop
endfacet
facet normal 0.130526192220052 0.99144486137381 -0.0
outer loop
vertex 3.10582854123025 11.5911099154688 0.0
vertex 7.04991620636974e-016 12.0 2.0
vertex 3.10582854123025 11.5911099154688 2.0
endloop
endfacet
facet normal 0.38268343236509 0.923879532511287 -0.0
outer loop
vertex 3.10582854123025 11.5911099154688 2.0
vertex 6.0 10.3923048454133 0.0
vertex 3.10582854123025 11.5911099154688 0.0
endloop
endfacet
facet normal 0.38268343236509 0.923879532511287 -0.0
outer loop
vertex 6.0 10.3923048454133 0.0
vertex 3.10582854123025 11.5911099154688 2.0
vertex 6.0 10.3923048454133 2.0
endloop
endfacet
facet normal 0.608761429008721 0.793353340291235 -0.0
outer loop
vertex 6.0 10.3923048454133 2.0
vertex 8.48528137423857 8.48528137423857 0.0
vertex 6.0 10.3923048454133 0.0
endloop
endfacet
facet normal 0.608761429008721 0.793353340291235 -0.0
outer loop
vertex 8.48528137423857 8.48528137423857 0.0
vertex 6.0 10.3923048454133 2.0
vertex 8.48528137423857 8.48528137423857 2.0
endloop
endfacet
facet normal 0.793353340291235 0.60876142900872 -0.0
outer loop
vertex 8.48528137423857 8.48528137423857 0.0
vertex 10.3923048454133 6.0 2.0
vertex 10.3923048454133 6.0 0.0
endloop
endfacet
facet normal 0.793353340291235 0.60876142900872 -0.0
outer loop
vertex 10.3923048454133 6.0 2.0
vertex 8.48528137423857 8.48528137423857 0.0
vertex 8.48528137423857 8.48528137423857 2.0
endloop
endfacet
facet normal 0.866025403784438 -0.5 -0.0
outer loop
vertex -2.88397459621556 -6.99519052838329 2.0
vertex -3.88397459621556 -8.72724133595217 8.5
vertex -3.88397459621556 -8.72724133595217 2.0
endloop
endfacet
facet normal 0.866025403784438 -0.5 -0.0
outer loop
vertex -3.88397459621556 -8.72724133595217 8.5
vertex -2.88397459621556 -6.99519052838329 2.0
vertex -2.88397459621556 -6.99519052838329 8.5
endloop
endfacet
facet normal 0.965925826289068 -0.258819045102521 5.7171767994946e-032
outer loop
vertex 9.5 -1.0 8.5
vertex 8.72724133595217 -3.88397459621556 10.0
vertex 8.72724133595217 -3.88397459621556 8.5
endloop
endfacet
facet normal 0.965925826289068 -0.258819045102521 5.7171767994946e-032
outer loop
vertex 8.72724133595217 -3.88397459621556 10.0
vertex 9.5 -1.0 8.5
vertex 9.5 -1.0 10.0
endloop
endfacet
facet normal 0.965925826289068 0.258819045102521 1.50144341907463e-017
outer loop
vertex 8.72724133595217 3.88397459621556 8.5
vertex 9.5 1.0 10.0000000000001
vertex 9.5 1.0 8.5
endloop
endfacet
facet normal 0.965925826289068 0.258819045102521 1.50144341907463e-017
outer loop
vertex 9.5 1.0 10.0000000000001
vertex 8.72724133595217 3.88397459621556 8.5
vertex 8.72724133595217 3.88397459621556 10.0000000000001
endloop
endfacet
facet normal 0.0 0.0 -1.0
outer loop
vertex 8.72724133595217 3.88397459621556 8.5
vertex 7.5 1.0 8.5
vertex 6.99519052838329 2.88397459621556 8.5
endloop
endfacet
facet normal 0.0 0.0 -1.0
outer loop
vertex 7.5 1.0 8.5
vertex 8.72724133595217 3.88397459621556 8.5
vertex 9.5 1.0 8.5
endloop
endfacet
facet normal 0.0 0.0 -1.0
outer loop
vertex 7.5 -1.0 8.5
vertex 8.72724133595217 -3.88397459621556 8.5
vertex 6.99519052838329 -2.88397459621556 8.5
endloop
endfacet
facet normal 0.0 0.0 -1.0
outer loop
vertex 8.72724133595217 -3.88397459621556 8.5
vertex 7.5 -1.0 8.5
vertex 9.5 -1.0 8.5
endloop
endfacet
facet normal 0.0 0.0 -1.0
outer loop
vertex -1.0 9.5 8.5
vertex -2.88397459621556 6.99519052838329 8.5
vertex -3.88397459621556 8.72724133595217 8.5
endloop
endfacet
facet normal 0.0 0.0 -1.0
outer loop
vertex -2.88397459621556 6.99519052838329 8.5
vertex -1.0 9.5 8.5
vertex -1.0 7.5 8.5
endloop
endfacet
facet normal 0.0 0.0 -1.0
outer loop
vertex -8.72724133595217 3.88397459621556 8.5
vertex -7.5 1.0 8.5
vertex -9.5 0.999999999999998 8.5
endloop
endfacet
facet normal 0.0 0.0 -1.0
outer loop
vertex -7.5 1.0 8.5
vertex -8.72724133595217 3.88397459621556 8.5
vertex -6.99519052838329 2.88397459621556 8.5
endloop
endfacet
facet normal 0.0 0.0 -1.0
outer loop
vertex -7.5 -1.0 8.5
vertex -8.72724133595217 -3.88397459621556 8.5
vertex -9.5 -1.0 8.5
endloop
endfacet
facet normal 0.0 0.0 -1.0
outer loop
vertex -8.72724133595217 -3.88397459621556 8.5
vertex -7.5 -1.0 8.5
vertex -6.99519052838329 -2.88397459621556 8.5
endloop
endfacet
facet normal 0.0 0.0 -1.0
outer loop
vertex -5.61602540378444 7.72724133595217 8.5
vertex -5.99519052838329 4.61602540378444 8.5
vertex -7.72724133595217 5.61602540378444 8.5
endloop
endfacet
facet normal 0.0 0.0 -1.0
outer loop
vertex -5.99519052838329 4.61602540378444 8.5
vertex -5.61602540378444 7.72724133595217 8.5
vertex -4.61602540378444 5.99519052838329 8.5
endloop
endfacet
facet normal 0.0 0.0 -1.0
outer loop
vertex 1.0 9.5 8.5
vertex 2.88397459621556 6.99519052838329 8.5
vertex 1.0 7.5 8.5
endloop
endfacet
facet normal 0.0 0.0 -1.0
outer loop
vertex 2.88397459621556 6.99519052838329 8.5
vertex 1.0 9.5 8.5
vertex 3.88397459621556 8.72724133595217 8.5
endloop
endfacet
facet normal 0.0 0.0 -1.0
outer loop
vertex 5.61602540378444 7.72724133595217 8.5
vertex 5.99519052838329 4.61602540378444 8.5
vertex 4.61602540378444 5.99519052838329 8.5
endloop
endfacet
facet normal 0.0 0.0 -1.0
outer loop
vertex 5.99519052838329 4.61602540378444 8.5
vertex 5.61602540378444 7.72724133595217 8.5
vertex 7.72724133595217 5.61602540378444 8.5
endloop
endfacet
facet normal 0.0 0.0 -1.0
outer loop
vertex -5.99519052838329 -4.61602540378444 8.5
vertex -5.61602540378444 -7.72724133595217 8.5
vertex -7.72724133595217 -5.61602540378444 8.5
endloop
endfacet
facet normal 0.0 0.0 -1.0
outer loop
vertex -5.61602540378444 -7.72724133595217 8.5
vertex -5.99519052838329 -4.61602540378444 8.5
vertex -4.61602540378444 -5.99519052838329 8.5
endloop
endfacet
facet normal 0.0 0.0 -1.0
outer loop
vertex -2.88397459621556 -6.99519052838329 8.5
vertex -0.999999999999994 -9.5 8.5
vertex -3.88397459621556 -8.72724133595217 8.5
endloop
endfacet
facet normal 0.0 0.0 -1.0
outer loop
vertex -0.999999999999994 -9.5 8.5
vertex -2.88397459621556 -6.99519052838329 8.5
vertex -0.999999999999998 -7.5 8.5
endloop
endfacet
facet normal 0.0 0.0 -1.0
outer loop
vertex 2.88397459621557 -6.99519052838329 8.5
vertex 1.00000000000001 -9.5 8.5
vertex 1.00000000000001 -7.5 8.5
endloop
endfacet
facet normal 0.0 0.0 -1.0
outer loop
vertex 1.00000000000001 -9.5 8.5
vertex 2.88397459621557 -6.99519052838329 8.5
vertex 3.88397459621557 -8.72724133595216 8.5
endloop
endfacet
facet normal 0.0 0.0 -1.0
outer loop
vertex 5.99519052838329 -4.61602540378443 8.5
vertex 5.61602540378445 -7.72724133595216 8.5
vertex 4.61602540378444 -5.99519052838329 8.5
endloop
endfacet
facet normal 0.0 0.0 -1.0
outer loop
vertex 5.61602540378445 -7.72724133595216 8.5
vertex 5.99519052838329 -4.61602540378443 8.5
vertex 7.72724133595217 -5.61602540378444 8.5
endloop
endfacet
facet normal 0.707106781186548 -0.707106781186547 -4.39653146981086e-017
outer loop
vertex 7.72724133595217 -5.61602540378444 8.5
vertex 5.61602540378445 -7.72724133595216 10.0
vertex 5.61602540378445 -7.72724133595216 8.5
endloop
endfacet
facet normal 0.707106781186548 -0.707106781186547 -4.39653146981086e-017
outer loop
vertex 5.61602540378445 -7.72724133595216 10.0
vertex 7.72724133595217 -5.61602540378444 8.5
vertex 7.72724133595217 -5.61602540378444 10.0
endloop
endfacet
facet normal 0.258819045102522 -0.965925826289068 0.0
outer loop
vertex 2.88397459621557 -6.99519052838329 8.5
vertex 1.00000000000001 -7.5 2.0
vertex 2.88397459621557 -6.99519052838329 2.0
endloop
endfacet
facet normal 0.258819045102522 -0.965925826289068 0.0
outer loop
vertex 1.00000000000001 -7.5 2.0
vertex 2.88397459621557 -6.99519052838329 8.5
vertex 1.00000000000001 -7.5 8.5
endloop
endfacet
facet normal 0.258819045102522 -0.965925826289068 -8.53471771662638e-031
outer loop
vertex 3.88397459621557 -8.72724133595216 10.0000000000001
vertex 1.00000000000001 -9.5 8.5
vertex 3.88397459621557 -8.72724133595216 8.5
endloop
endfacet
facet normal 0.258819045102522 -0.965925826289068 -8.53471771662638e-031
outer loop
vertex 1.00000000000001 -9.5 8.5
vertex 3.88397459621557 -8.72724133595216 10.0000000000001
vertex 1.00000000000001 -9.5 10.0000000000001
endloop
endfacet
facet normal 0.258819045102521 0.965925826289068 -0.0
outer loop
vertex 1.0 7.5 8.5
vertex 2.88397459621556 6.99519052838329 2.0
vertex 1.0 7.5 2.0
endloop
endfacet
facet normal 0.258819045102521 0.965925826289068 -0.0
outer loop
vertex 2.88397459621556 6.99519052838329 2.0
vertex 1.0 7.5 8.5
vertex 2.88397459621556 6.99519052838329 8.5
endloop
endfacet
facet normal 1.0 7.04991620636975e-016 -0.0
outer loop
vertex 1.00000000000001 -7.5 2.0
vertex 1.00000000000001 -9.5 8.5
vertex 1.00000000000001 -9.5 2.0
endloop
endfacet
facet normal 1.0 7.04991620636975e-016 -0.0
outer loop
vertex 1.00000000000001 -9.5 8.5
vertex 1.00000000000001 -7.5 2.0
vertex 1.00000000000001 -7.5 8.5
endloop
endfacet
facet normal -0.866025403784438 0.500000000000001 0.0
outer loop
vertex 3.88397459621556 8.72724133595217 8.5
vertex 2.88397459621556 6.99519052838329 2.0
vertex 2.88397459621556 6.99519052838329 8.5
endloop
endfacet
facet normal -0.866025403784438 0.500000000000001 0.0
outer loop
vertex 2.88397459621556 6.99519052838329 2.0
vertex 3.88397459621556 8.72724133595217 8.5
vertex 3.88397459621556 8.72724133595217 2.0
endloop
endfacet
facet normal -0.258819045102521 -0.965925826289068 0.0
outer loop
vertex -0.999999999999994 -9.5 10.0000000000001
vertex -3.88397459621556 -8.72724133595217 8.5
vertex -0.999999999999994 -9.5 8.5
endloop
endfacet
facet normal -0.258819045102521 -0.965925826289068 0.0
outer loop
vertex -3.88397459621556 -8.72724133595217 8.5
vertex -0.999999999999994 -9.5 10.0000000000001
vertex -3.88397459621556 -8.72724133595217 10.0000000000001
endloop
endfacet
facet normal -0.258819045102521 -0.965925826289068 0.0
outer loop
vertex -0.999999999999998 -7.5 8.5
vertex -2.88397459621556 -6.99519052838329 2.0
vertex -0.999999999999998 -7.5 2.0
endloop
endfacet
facet normal -0.258819045102521 -0.965925826289068 0.0
outer loop
vertex -2.88397459621556 -6.99519052838329 2.0
vertex -0.999999999999998 -7.5 8.5
vertex -2.88397459621556 -6.99519052838329 8.5
endloop
endfacet
facet normal 0.707106781186548 0.707106781186547 4.39653146981025e-017
outer loop
vertex 5.61602540378444 7.72724133595217 8.5
vertex 7.72724133595217 5.61602540378444 10.0000000000001
vertex 7.72724133595217 5.61602540378444 8.5
endloop
endfacet
facet normal 0.707106781186548 0.707106781186547 4.39653146981025e-017
outer loop
vertex 7.72724133595217 5.61602540378444 10.0000000000001
vertex 5.61602540378444 7.72724133595217 8.5
vertex 5.61602540378444 7.72724133595217 10.0000000000001
endloop
endfacet
facet normal 0.707106781186547 0.707106781186548 -0.0
outer loop
vertex 4.61602540378444 5.99519052838329 8.5
vertex 5.99519052838329 4.61602540378444 2.0
vertex 4.61602540378444 5.99519052838329 2.0
endloop
endfacet
facet normal 0.707106781186547 0.707106781186548 -0.0
outer loop
vertex 5.99519052838329 4.61602540378444 2.0
vertex 4.61602540378444 5.99519052838329 8.5
vertex 5.99519052838329 4.61602540378444 8.5
endloop
endfacet
facet normal -0.5 0.866025403784439 -0.0
outer loop
vertex 5.99519052838329 4.61602540378444 8.5
vertex 7.72724133595217 5.61602540378444 2.0
vertex 5.99519052838329 4.61602540378444 2.0
endloop
endfacet
facet normal -0.5 0.866025403784439 -0.0
outer loop
vertex 7.72724133595217 5.61602540378444 2.0
vertex 5.99519052838329 4.61602540378444 8.5
vertex 7.72724133595217 5.61602540378444 8.5
endloop
endfacet
facet normal 2.89257746210269e-015 -1.35364064843533e-015 1.0
outer loop
vertex -3.88397459621556 -8.72724133595217 10.0000000000001
vertex -4.0 4.89858719658941e-016 10.0
vertex -5.61602540378444 -7.72724133595217 10.0000000000001
endloop
endfacet
facet normal 2.89257746210269e-015 -1.35364064843533e-015 1.0
outer loop
vertex -4.0 4.89858719658941e-016 10.0
vertex -3.88397459621556 -8.72724133595217 10.0000000000001
vertex -3.86370330515627 -1.03527618041008 10.0
endloop
endfacet
facet normal 2.89257746210269e-015 -1.35364064843533e-015 1.0
outer loop
vertex -3.86370330515627 -1.03527618041008 10.0
vertex -3.88397459621556 -8.72724133595217 10.0000000000001
vertex -0.999999999999994 -9.5 10.0000000000001
endloop
endfacet
facet normal 2.89257746210269e-015 -1.35364064843533e-015 1.0
outer loop
vertex -3.86370330515627 -1.03527618041008 10.0
vertex -0.999999999999994 -9.5 10.0000000000001
vertex -3.46410161513775 -2.0 10.0
endloop
endfacet
facet normal 2.89257746210269e-015 -1.35364064843533e-015 1.0
outer loop
vertex -3.46410161513775 -2.0 10.0
vertex -0.999999999999994 -9.5 10.0000000000001
vertex -2.82842712474619 -2.82842712474619 10.0
endloop
endfacet
facet normal 2.89257746210269e-015 -1.35364064843533e-015 1.0
outer loop
vertex -2.82842712474619 -2.82842712474619 10.0
vertex -0.999999999999994 -9.5 10.0000000000001
vertex -2.0 -3.46410161513775 10.0
endloop
endfacet
facet normal 2.89257746210269e-015 -1.35364064843533e-015 1.0
outer loop
vertex -2.0 -3.46410161513775 10.0
vertex -0.999999999999994 -9.5 10.0000000000001
vertex -1.03527618041009 -3.86370330515627 10.0
endloop
endfacet
facet normal 2.89257746210269e-015 -1.35364064843533e-015 1.0
outer loop
vertex -1.03527618041009 -3.86370330515627 10.0
vertex -0.999999999999994 -9.5 10.0000000000001
vertex -7.04991620636974e-016 -4.0 10.0
endloop
endfacet
facet normal 2.89257746210269e-015 -1.35364064843533e-015 1.0
outer loop
vertex -7.04991620636974e-016 -4.0 10.0
vertex -0.999999999999994 -9.5 10.0000000000001
vertex 1.00000000000001 -9.5 10.0000000000001
endloop
endfacet
facet normal 2.89257746210269e-015 -1.35364064843533e-015 1.0
outer loop
vertex -7.04991620636974e-016 -4.0 10.0
vertex 1.00000000000001 -9.5 10.0000000000001
vertex 1.03527618041008 -3.86370330515627 10.0
endloop
endfacet
facet normal 2.89257746210269e-015 -1.35364064843533e-015 1.0
outer loop
vertex 1.03527618041008 -3.86370330515627 10.0
vertex 1.00000000000001 -9.5 10.0000000000001
vertex 3.88397459621557 -8.72724133595216 10.0000000000001
endloop
endfacet
facet normal 2.89257746210269e-015 -1.35364064843533e-015 1.0
outer loop
vertex 1.03527618041008 -3.86370330515627 10.0
vertex 3.88397459621557 -8.72724133595216 10.0000000000001
vertex 2.0 -3.46410161513776 10.0
endloop
endfacet
facet normal 2.89257746210269e-015 -1.35364064843533e-015 1.0
outer loop
vertex 2.0 -3.46410161513776 10.0
vertex 3.88397459621557 -8.72724133595216 10.0000000000001
vertex 2.82842712474619 -2.82842712474619 10.0
endloop
endfacet
facet normal 2.89257746210269e-015 -1.35364064843533e-015 1.0
outer loop
vertex 2.82842712474619 -2.82842712474619 10.0
vertex 3.88397459621557 -8.72724133595216 10.0000000000001
vertex 3.46410161513775 -2.0 10.0
endloop
endfacet
facet normal 2.89257746210269e-015 -1.35364064843533e-015 1.0
outer loop
vertex 3.46410161513775 -2.0 10.0
vertex 3.88397459621557 -8.72724133595216 10.0000000000001
vertex 3.86370330515627 -1.03527618041009 10.0
endloop
endfacet
facet normal 2.89257746210269e-015 -1.35364064843533e-015 1.0
outer loop
vertex 3.86370330515627 -1.03527618041009 10.0
vertex 3.88397459621557 -8.72724133595216 10.0000000000001
vertex 4.0 0.0 10.0
endloop
endfacet
facet normal 2.89257746210269e-015 -1.35364064843533e-015 1.0
outer loop
vertex 4.0 0.0 10.0
vertex 3.88397459621557 -8.72724133595216 10.0000000000001
vertex 5.61602540378445 -7.72724133595216 10.0
endloop
endfacet
facet normal 2.89257746210269e-015 -1.35364064843533e-015 1.0
outer loop
vertex 4.0 0.0 10.0
vertex 5.61602540378445 -7.72724133595216 10.0
vertex 5.61602540378444 7.72724133595217 10.0000000000001
endloop
endfacet
facet normal 2.89257746210269e-015 -1.35364064843533e-015 1.0
outer loop
vertex 5.61602540378444 7.72724133595217 10.0000000000001
vertex 5.61602540378445 -7.72724133595216 10.0
vertex 7.72724133595217 5.61602540378444 10.0000000000001
endloop
endfacet
facet normal 2.89257746210269e-015 -1.35364064843533e-015 1.0
outer loop
vertex 7.72724133595217 5.61602540378444 10.0000000000001
vertex 5.61602540378445 -7.72724133595216 10.0
vertex 7.72724133595217 -5.61602540378444 10.0
endloop
endfacet
facet normal 2.89257746210269e-015 -1.35364064843533e-015 1.0
outer loop
vertex 7.72724133595217 5.61602540378444 10.0000000000001
vertex 7.72724133595217 -5.61602540378444 10.0
vertex 8.72724133595217 3.88397459621556 10.0000000000001
endloop
endfacet
facet normal 2.89257746210269e-015 -1.35364064843533e-015 1.0
outer loop
vertex 8.72724133595217 3.88397459621556 10.0000000000001
vertex 7.72724133595217 -5.61602540378444 10.0
vertex 8.72724133595217 -3.88397459621556 10.0
endloop
endfacet
facet normal 2.89257746210269e-015 -1.35364064843533e-015 1.0
outer loop
vertex 8.72724133595217 3.88397459621556 10.0000000000001
vertex 8.72724133595217 -3.88397459621556 10.0
vertex 9.5 1.0 10.0000000000001
endloop
endfacet
facet normal 2.89257746210269e-015 -1.35364064843533e-015 1.0
outer loop
vertex 9.5 1.0 10.0000000000001
vertex 8.72724133595217 -3.88397459621556 10.0
vertex 9.5 -1.0 10.0
endloop
endfacet
facet normal 2.89257746210269e-015 -1.35364064843533e-015 1.0
outer loop
vertex -9.5 -1.0 10.0000000000001
vertex -8.72724133595217 3.88397459621556 10.0000000000001
vertex -9.5 0.999999999999998 10.0000000000001
endloop
endfacet
facet normal 2.89257746210269e-015 -1.35364064843533e-015 1.0
outer loop
vertex -8.72724133595217 3.88397459621556 10.0000000000001
vertex -9.5 -1.0 10.0000000000001
vertex -8.72724133595217 -3.88397459621556 10.0000000000001
endloop
endfacet
facet normal 2.89257746210269e-015 -1.35364064843533e-015 1.0
outer loop
vertex -8.72724133595217 3.88397459621556 10.0000000000001
vertex -8.72724133595217 -3.88397459621556 10.0000000000001
vertex -7.72724133595217 5.61602540378444 10.0000000000001
endloop
endfacet
facet normal 2.89257746210269e-015 -1.35364064843533e-015 1.0
outer loop
vertex -7.72724133595217 5.61602540378444 10.0000000000001
vertex -8.72724133595217 -3.88397459621556 10.0000000000001
vertex -7.72724133595217 -5.61602540378444 10.0000000000001
endloop
endfacet
facet normal 2.89257746210269e-015 -1.35364064843533e-015 1.0
outer loop
vertex -7.72724133595217 5.61602540378444 10.0000000000001
vertex -7.72724133595217 -5.61602540378444 10.0000000000001
vertex -5.61602540378444 7.72724133595217 10.0000000000001
endloop
endfacet
facet normal 2.89257746210269e-015 -1.35364064843533e-015 1.0
outer loop
vertex -5.61602540378444 7.72724133595217 10.0000000000001
vertex -7.72724133595217 -5.61602540378444 10.0000000000001
vertex -5.61602540378444 -7.72724133595217 10.0000000000001
endloop
endfacet
facet normal 2.89257746210269e-015 -1.35364064843533e-015 1.0
outer loop
vertex -5.61602540378444 7.72724133595217 10.0000000000001
vertex -5.61602540378444 -7.72724133595217 10.0000000000001
vertex -3.88397459621556 8.72724133595217 10.0000000000001
endloop
endfacet
facet normal 2.89257746210269e-015 -1.35364064843533e-015 1.0
outer loop
vertex -3.88397459621556 8.72724133595217 10.0000000000001
vertex -5.61602540378444 -7.72724133595217 10.0000000000001
vertex -4.0 4.89858719658941e-016 10.0
endloop
endfacet
facet normal 2.89257746210269e-015 -1.35364064843533e-015 1.0
outer loop
vertex -3.88397459621556 8.72724133595217 10.0000000000001
vertex -4.0 4.89858719658941e-016 10.0
vertex -3.86370330515627 1.03527618041008 10.0
endloop
endfacet
facet normal 2.89257746210269e-015 -1.35364064843533e-015 1.0
outer loop
vertex -3.88397459621556 8.72724133595217 10.0000000000001
vertex -3.86370330515627 1.03527618041008 10.0
vertex -1.0 9.5 10.0000000000001
endloop
endfacet
facet normal 2.89257746210269e-015 -1.35364064843533e-015 1.0
outer loop
vertex -1.0 9.5 10.0000000000001
vertex -3.86370330515627 1.03527618041008 10.0
vertex -3.46410161513775 2.0 10.0
endloop
endfacet
facet normal 2.89257746210269e-015 -1.35364064843533e-015 1.0
outer loop
vertex -1.0 9.5 10.0000000000001
vertex -3.46410161513775 2.0 10.0
vertex -2.82842712474619 2.82842712474619 10.0
endloop
endfacet
facet normal 2.89257746210269e-015 -1.35364064843533e-015 1.0
outer loop
vertex -1.0 9.5 10.0000000000001
vertex -2.82842712474619 2.82842712474619 10.0
vertex -2.0 3.46410161513775 10.0
endloop
endfacet
facet normal 2.89257746210269e-015 -1.35364064843533e-015 1.0
outer loop
vertex -1.0 9.5 10.0000000000001
vertex -2.0 3.46410161513775 10.0
vertex -1.03527618041008 3.86370330515627 10.0
endloop
endfacet
facet normal 2.89257746210269e-015 -1.35364064843533e-015 1.0
outer loop
vertex -1.0 9.5 10.0000000000001
vertex -1.03527618041008 3.86370330515627 10.0
vertex 2.64371857738865e-016 4.0 10.0
endloop
endfacet
facet normal 2.89257746210269e-015 -1.35364064843533e-015 1.0
outer loop
vertex -1.0 9.5 10.0000000000001
vertex 2.64371857738865e-016 4.0 10.0
vertex 1.0 9.5 10.0000000000001
endloop
endfacet
facet normal 2.89257746210269e-015 -1.35364064843533e-015 1.0
outer loop
vertex 1.0 9.5 10.0000000000001
vertex 2.64371857738865e-016 4.0 10.0
vertex 1.03527618041008 3.86370330515627 10.0
endloop
endfacet
facet normal 2.89257746210269e-015 -1.35364064843533e-015 1.0
outer loop
vertex 1.0 9.5 10.0000000000001
vertex 1.03527618041008 3.86370330515627 10.0
vertex 3.88397459621556 8.72724133595217 10.0000000000001
endloop
endfacet
facet normal 2.89257746210269e-015 -1.35364064843533e-015 1.0
outer loop
vertex 3.88397459621556 8.72724133595217 10.0000000000001
vertex 1.03527618041008 3.86370330515627 10.0
vertex 2.0 3.46410161513775 10.0
endloop
endfacet
facet normal 2.89257746210269e-015 -1.35364064843533e-015 1.0
outer loop
vertex 3.88397459621556 8.72724133595217 10.0000000000001
vertex 2.0 3.46410161513775 10.0
vertex 2.82842712474619 2.82842712474619 10.0
endloop
endfacet
facet normal 2.89257746210269e-015 -1.35364064843533e-015 1.0
outer loop
vertex 3.88397459621556 8.72724133595217 10.0000000000001
vertex 2.82842712474619 2.82842712474619 10.0
vertex 3.46410161513775 2.0 10.0
endloop
endfacet
facet normal 2.89257746210269e-015 -1.35364064843533e-015 1.0
outer loop
vertex 3.88397459621556 8.72724133595217 10.0000000000001
vertex 3.46410161513775 2.0 10.0
vertex 3.86370330515627 1.03527618041008 10.0
endloop
endfacet
facet normal 2.89257746210269e-015 -1.35364064843533e-015 1.0
outer loop
vertex 3.88397459621556 8.72724133595217 10.0000000000001
vertex 3.86370330515627 1.03527618041008 10.0
vertex 4.0 0.0 10.0
endloop
endfacet
facet normal 2.89257746210269e-015 -1.35364064843533e-015 1.0
outer loop
vertex 3.88397459621556 8.72724133595217 10.0000000000001
vertex 4.0 0.0 10.0
vertex 5.61602540378444 7.72724133595217 10.0000000000001
endloop
endfacet
facet normal -0.707106781186547 -0.707106781186547 0.0
outer loop
vertex -7.72724133595217 -5.61602540378444 10.0000000000001
vertex -5.61602540378444 -7.72724133595217 8.5
vertex -5.61602540378444 -7.72724133595217 10.0000000000001
endloop
endfacet
facet normal -0.707106781186547 -0.707106781186547 0.0
outer loop
vertex -5.61602540378444 -7.72724133595217 8.5
vertex -7.72724133595217 -5.61602540378444 10.0000000000001
vertex -7.72724133595217 -5.61602540378444 8.5
endloop
endfacet
facet normal -0.707106781186547 -0.707106781186548 0.0
outer loop
vertex -4.61602540378444 -5.99519052838329 8.5
vertex -5.99519052838329 -4.61602540378444 2.0
vertex -4.61602540378444 -5.99519052838329 2.0
endloop
endfacet
facet normal -0.707106781186547 -0.707106781186548 0.0
outer loop
vertex -5.99519052838329 -4.61602540378444 2.0
vertex -4.61602540378444 -5.99519052838329 8.5
vertex -5.99519052838329 -4.61602540378444 8.5
endloop
endfacet
facet normal 0.5 -0.866025403784438 0.0
outer loop
vertex -5.99519052838329 -4.61602540378444 8.5
vertex -7.72724133595217 -5.61602540378444 2.0
vertex -5.99519052838329 -4.61602540378444 2.0
endloop
endfacet
facet normal 0.5 -0.866025403784438 0.0
outer loop
vertex -7.72724133595217 -5.61602540378444 2.0
vertex -5.99519052838329 -4.61602540378444 8.5
vertex -7.72724133595217 -5.61602540378444 8.5
endloop
endfacet
facet normal -0.965925826289068 -0.258819045102521 0.0
outer loop
vertex -7.5 -1.0 8.5
vertex -6.99519052838329 -2.88397459621556 2.0
vertex -6.99519052838329 -2.88397459621556 8.5
endloop
endfacet
facet normal -0.965925826289068 -0.258819045102521 0.0
outer loop
vertex -6.99519052838329 -2.88397459621556 2.0
vertex -7.5 -1.0 8.5
vertex -7.5 -1.0 2.0
endloop
endfacet
facet normal 0.0 -1.0 0.0
outer loop
vertex -7.5 -1.0 8.5
vertex -9.5 -1.0 2.0
vertex -7.5 -1.0 2.0
endloop
endfacet
facet normal 0.0 -1.0 0.0
outer loop
vertex -9.5 -1.0 2.0
vertex -7.5 -1.0 8.5
vertex -9.5 -1.0 8.5
endloop
endfacet
facet normal -0.965925826289068 -0.258819045102521 0.0
outer loop
vertex -9.5 -1.0 10.0000000000001
vertex -8.72724133595217 -3.88397459621556 8.5
vertex -8.72724133595217 -3.88397459621556 10.0000000000001
endloop
endfacet
facet normal -0.965925826289068 -0.258819045102521 0.0
outer loop
vertex -8.72724133595217 -3.88397459621556 8.5
vertex -9.5 -1.0 10.0000000000001
vertex -9.5 -1.0 8.5
endloop
endfacet
facet normal -0.965925826289068 0.258819045102521 -1.50144341907447e-017
outer loop
vertex -8.72724133595217 3.88397459621556 10.0000000000001
vertex -9.5 0.999999999999998 8.5
vertex -9.5 0.999999999999998 10.0000000000001
endloop
endfacet
facet normal -0.965925826289068 0.258819045102521 -1.50144341907447e-017
outer loop
vertex -9.5 0.999999999999998 8.5
vertex -8.72724133595217 3.88397459621556 10.0000000000001
vertex -8.72724133595217 3.88397459621556 8.5
endloop
endfacet
facet normal -0.965925826289068 0.258819045102521 0.0
outer loop
vertex -6.99519052838329 2.88397459621556 8.5
vertex -7.5 1.0 2.0
vertex -7.5 1.0 8.5
endloop
endfacet
facet normal -0.965925826289068 0.258819045102521 0.0
outer loop
vertex -7.5 1.0 2.0
vertex -6.99519052838329 2.88397459621556 8.5
vertex -6.99519052838329 2.88397459621556 2.0
endloop
endfacet
facet normal -0.500000000000001 -0.866025403784438 0.0
outer loop
vertex -6.99519052838329 2.88397459621556 8.5
vertex -8.72724133595217 3.88397459621556 2.0
vertex -6.99519052838329 2.88397459621556 2.0
endloop
endfacet
facet normal -0.500000000000001 -0.866025403784438 0.0
outer loop
vertex -8.72724133595217 3.88397459621556 2.0
vertex -6.99519052838329 2.88397459621556 8.5
vertex -8.72724133595217 3.88397459621556 8.5
endloop
endfacet
facet normal -0.707106781186547 0.707106781186548 4.39653146981031e-017
outer loop
vertex -7.72724133595217 5.61602540378444 10.0000000000001
vertex -5.61602540378444 7.72724133595217 8.5
vertex -7.72724133595217 5.61602540378444 8.5
endloop
endfacet
facet normal -0.707106781186547 0.707106781186548 4.39653146981031e-017
outer loop
vertex -5.61602540378444 7.72724133595217 8.5
vertex -7.72724133595217 5.61602540378444 10.0000000000001
vertex -5.61602540378444 7.72724133595217 10.0000000000001
endloop
endfacet
facet normal -0.707106781186547 0.707106781186547 -0.0
outer loop
vertex -4.61602540378444 5.99519052838329 8.5
vertex -5.99519052838329 4.61602540378444 2.0
vertex -5.99519052838329 4.61602540378444 8.5
endloop
endfacet
facet normal -0.707106781186547 0.707106781186547 -0.0
outer loop
vertex -5.99519052838329 4.61602540378444 2.0
vertex -4.61602540378444 5.99519052838329 8.5
vertex -4.61602540378444 5.99519052838329 2.0
endloop
endfacet
facet normal -0.866025403784439 -0.5 0.0
outer loop
vertex -5.61602540378444 7.72724133595217 8.5
vertex -4.61602540378444 5.99519052838329 2.0
vertex -4.61602540378444 5.99519052838329 8.5
endloop
endfacet
facet normal -0.866025403784439 -0.5 0.0
outer loop
vertex -4.61602540378444 5.99519052838329 2.0
vertex -5.61602540378444 7.72724133595217 8.5
vertex -5.61602540378444 7.72724133595217 2.0
endloop
endfacet
facet normal -0.258819045102521 0.965925826289068 1.50144341907456e-017
outer loop
vertex -3.88397459621556 8.72724133595217 10.0000000000001
vertex -1.0 9.5 8.5
vertex -3.88397459621556 8.72724133595217 8.5
endloop
endfacet
facet normal -0.258819045102521 0.965925826289068 1.50144341907456e-017
outer loop
vertex -1.0 9.5 8.5
vertex -3.88397459621556 8.72724133595217 10.0000000000001
vertex -1.0 9.5 10.0000000000001
endloop
endfacet
facet normal -0.258819045102521 0.965925826289068 -0.0
outer loop
vertex -2.88397459621556 6.99519052838329 8.5
vertex -1.0 7.5 2.0
vertex -2.88397459621556 6.99519052838329 2.0
endloop
endfacet
facet normal -0.258819045102521 0.965925826289068 -0.0
outer loop
vertex -1.0 7.5 2.0
vertex -2.88397459621556 6.99519052838329 8.5
vertex -1.0 7.5 8.5
endloop
endfacet
facet normal -1.0 0.0 0.0
outer loop
vertex -1.0 9.5 8.5
vertex -1.0 7.5 2.0
vertex -1.0 7.5 8.5
endloop
endfacet
facet normal -1.0 0.0 0.0
outer loop
vertex -1.0 7.5 2.0
vertex -1.0 9.5 8.5
vertex -1.0 9.5 2.0
endloop
endfacet
facet normal 0.258819045102521 0.965925826289068 -1.50144341907447e-017
outer loop
vertex 1.0 9.5 10.0000000000001
vertex 3.88397459621556 8.72724133595217 8.5
vertex 1.0 9.5 8.5
endloop
endfacet
facet normal 0.258819045102521 0.965925826289068 -1.50144341907447e-017
outer loop
vertex 3.88397459621556 8.72724133595217 8.5
vertex 1.0 9.5 10.0000000000001
vertex 3.88397459621556 8.72724133595217 10.0000000000001
endloop
endfacet
facet normal -0.99144486137381 -0.130526192220052 0.0
outer loop
vertex 3.86370330515627 1.03527618041008 10.0
vertex 4.0 0.0 8.0
vertex 4.0 0.0 10.0
endloop
endfacet
facet normal -0.99144486137381 -0.130526192220052 0.0
outer loop
vertex 4.0 0.0 8.0
vertex 3.86370330515627 1.03527618041008 10.0
vertex 3.86370330515627 1.03527618041008 8.0
endloop
endfacet
facet normal -0.99144486137381 0.130526192220052 2.46380584235094e-031
outer loop
vertex 4.0 0.0 10.0
vertex 3.86370330515627 -1.03527618041009 8.0
vertex 3.86370330515627 -1.03527618041009 10.0
endloop
endfacet
facet normal -0.99144486137381 0.130526192220052 2.46380584235094e-031
outer loop
vertex 3.86370330515627 -1.03527618041009 8.0
vertex 4.0 0.0 10.0
vertex 4.0 0.0 8.0
endloop
endfacet
facet normal -0.923879532511287 0.382683432365091 -4.75496779077324e-032
outer loop
vertex 3.86370330515627 -1.03527618041009 10.0
vertex 3.46410161513775 -2.0 8.0
vertex 3.46410161513775 -2.0 10.0
endloop
endfacet
facet normal -0.923879532511287 0.382683432365091 -4.75496779077324e-032
outer loop
vertex 3.46410161513775 -2.0 8.0
vertex 3.86370330515627 -1.03527618041009 10.0
vertex 3.86370330515627 -1.03527618041009 8.0
endloop
endfacet
facet normal -0.793353340291235 0.608761429008721 0.0
outer loop
vertex 3.46410161513775 -2.0 10.0
vertex 2.82842712474619 -2.82842712474619 8.0
vertex 2.82842712474619 -2.82842712474619 10.0
endloop
endfacet
facet normal -0.793353340291235 0.608761429008721 0.0
outer loop
vertex 2.82842712474619 -2.82842712474619 8.0
vertex 3.46410161513775 -2.0 10.0
vertex 3.46410161513775 -2.0 8.0
endloop
endfacet
facet normal -0.60876142900872 0.793353340291235 -2.29361534457089e-032
outer loop
vertex 2.0 -3.46410161513776 10.0
vertex 2.82842712474619 -2.82842712474619 8.0
vertex 2.0 -3.46410161513776 8.0
endloop
endfacet
facet normal -0.60876142900872 0.793353340291235 -2.29361534457089e-032
outer loop
vertex 2.82842712474619 -2.82842712474619 8.0
vertex 2.0 -3.46410161513776 10.0
vertex 2.82842712474619 -2.82842712474619 10.0
endloop
endfacet
facet normal -0.382683432365089 0.923879532511287 -0.0
outer loop
vertex 1.03527618041008 -3.86370330515627 10.0
vertex 2.0 -3.46410161513776 8.0
vertex 1.03527618041008 -3.86370330515627 8.0
endloop
endfacet
facet normal -0.382683432365089 0.923879532511287 -0.0
outer loop
vertex 2.0 -3.46410161513776 8.0
vertex 1.03527618041008 -3.86370330515627 10.0
vertex 2.0 -3.46410161513776 10.0
endloop
endfacet
facet normal -0.130526192220051 0.99144486137381 2.46380584235094e-031
outer loop
vertex -7.04991620636974e-016 -4.0 10.0
vertex 1.03527618041008 -3.86370330515627 8.0
vertex -7.04991620636974e-016 -4.0 8.0
endloop
endfacet
facet normal -0.130526192220051 0.99144486137381 2.46380584235094e-031
outer loop
vertex 1.03527618041008 -3.86370330515627 8.0
vertex -7.04991620636974e-016 -4.0 10.0
vertex 1.03527618041008 -3.86370330515627 10.0
endloop
endfacet
facet normal 0.130526192220052 0.99144486137381 -2.46380584235094e-031
outer loop
vertex -1.03527618041009 -3.86370330515627 10.0
vertex -7.04991620636974e-016 -4.0 8.0
vertex -1.03527618041009 -3.86370330515627 8.0
endloop
endfacet
facet normal 0.130526192220052 0.99144486137381 -2.46380584235094e-031
outer loop
vertex -7.04991620636974e-016 -4.0 8.0
vertex -1.03527618041009 -3.86370330515627 10.0
vertex -7.04991620636974e-016 -4.0 10.0
endloop
endfacet
facet normal 0.382683432365091 0.923879532511287 -0.0
outer loop
vertex -2.0 -3.46410161513775 10.0
vertex -1.03527618041009 -3.86370330515627 8.0
vertex -2.0 -3.46410161513775 8.0
endloop
endfacet
facet normal 0.382683432365091 0.923879532511287 -0.0
outer loop
vertex -1.03527618041009 -3.86370330515627 8.0
vertex -2.0 -3.46410161513775 10.0
vertex -1.03527618041009 -3.86370330515627 10.0
endloop
endfacet
facet normal -0.0 -0.0 1.0
outer loop
vertex -3.86370330515627 -1.03527618041008 8.0
vertex -3.86370330515627 1.03527618041008 8.0
vertex -4.0 4.89858719658941e-016 8.0
endloop
endfacet
facet normal -0.0 -0.0 1.0
outer loop
vertex -3.86370330515627 1.03527618041008 8.0
vertex -3.86370330515627 -1.03527618041008 8.0
vertex -3.46410161513775 -2.0 8.0
endloop
endfacet
facet normal -0.0 -0.0 1.0
outer loop
vertex -3.86370330515627 1.03527618041008 8.0
vertex -3.46410161513775 -2.0 8.0
vertex -3.46410161513775 2.0 8.0
endloop
endfacet
facet normal -0.0 -0.0 1.0
outer loop
vertex -3.46410161513775 2.0 8.0
vertex -3.46410161513775 -2.0 8.0
vertex -2.82842712474619 -2.82842712474619 8.0
endloop
endfacet
facet normal -0.0 -0.0 1.0
outer loop
vertex -3.46410161513775 2.0 8.0
vertex -2.82842712474619 -2.82842712474619 8.0
vertex -2.82842712474619 2.82842712474619 8.0
endloop
endfacet
facet normal -0.0 -0.0 1.0
outer loop
vertex -2.82842712474619 2.82842712474619 8.0
vertex -2.82842712474619 -2.82842712474619 8.0
vertex -2.0 -3.46410161513775 8.0
endloop
endfacet
facet normal -0.0 -0.0 1.0
outer loop
vertex -2.82842712474619 2.82842712474619 8.0
vertex -2.0 -3.46410161513775 8.0
vertex -2.0 3.46410161513775 8.0
endloop
endfacet
facet normal -0.0 -0.0 1.0
outer loop
vertex -2.0 3.46410161513775 8.0
vertex -2.0 -3.46410161513775 8.0
vertex -1.5 -1.97323176246635 8.0
endloop
endfacet
facet normal -0.0 -0.0 1.0
outer loop
vertex -1.5 -1.97323176246635 8.0
vertex -2.0 -3.46410161513775 8.0
vertex -1.03527618041009 -3.86370330515627 8.0
endloop
endfacet
facet normal -0.0 -0.0 1.0
outer loop
vertex -1.5 -1.97323176246635 8.0
vertex -1.03527618041009 -3.86370330515627 8.0
vertex -1.24999999999999 -2.1650635094611 8.0
endloop
endfacet
facet normal -0.0 -0.0 1.0
outer loop
vertex -1.24999999999999 -2.1650635094611 8.0
vertex -1.03527618041009 -3.86370330515627 8.0
vertex -0.647047612756304 -2.41481456572267 8.0
endloop
endfacet
facet normal -0.0 -0.0 1.0
outer loop
vertex -0.647047612756304 -2.41481456572267 8.0
vertex -1.03527618041009 -3.86370330515627 8.0
vertex -7.04991620636974e-016 -4.0 8.0
endloop
endfacet
facet normal -0.0 -0.0 1.0
outer loop
vertex -0.647047612756304 -2.41481456572267 8.0
vertex -7.04991620636974e-016 -4.0 8.0
vertex -2.8199664825479e-015 -2.5 8.0
endloop
endfacet
facet normal -0.0 -0.0 1.0
outer loop
vertex -2.8199664825479e-015 -2.5 8.0
vertex -7.04991620636974e-016 -4.0 8.0
vertex 0.647047612756298 -2.41481456572267 8.0
endloop
endfacet
facet normal -0.0 -0.0 1.0
outer loop
vertex 0.647047612756298 -2.41481456572267 8.0
vertex -7.04991620636974e-016 -4.0 8.0
vertex 1.03527618041008 -3.86370330515627 8.0
endloop
endfacet
facet normal -0.0 -0.0 1.0
outer loop
vertex 0.647047612756298 -2.41481456572267 8.0
vertex 1.03527618041008 -3.86370330515627 8.0
vertex 1.25 -2.1650635094611 8.0
endloop
endfacet
facet normal -0.0 -0.0 1.0
outer loop
vertex 1.25 -2.1650635094611 8.0
vertex 1.03527618041008 -3.86370330515627 8.0
vertex 2.0 -3.46410161513776 8.0
endloop
endfacet
facet normal -0.0 -0.0 1.0
outer loop
vertex 1.25 -2.1650635094611 8.0
vertex 2.0 -3.46410161513776 8.0
vertex 1.5 -1.97323176246635 8.0
endloop
endfacet
facet normal -0.0 -0.0 1.0
outer loop
vertex 1.5 -1.97323176246635 8.0
vertex 2.0 -3.46410161513776 8.0
vertex 1.5 1.97323176246635 8.0
endloop
endfacet
facet normal -0.0 -0.0 1.0
outer loop
vertex -2.0 3.46410161513775 8.0
vertex -1.5 1.97323176246635 8.0
vertex -1.03527618041008 3.86370330515627 8.0
endloop
endfacet
facet normal -0.0 -0.0 1.0
outer loop
vertex -1.5 1.97323176246635 8.0
vertex -2.0 3.46410161513775 8.0
vertex -1.5 -1.97323176246635 8.0
endloop
endfacet
facet normal -0.0 -0.0 1.0
outer loop
vertex -1.03527618041008 3.86370330515627 8.0
vertex -1.5 1.97323176246635 8.0
vertex -1.24999999999999 2.1650635094611 8.0
endloop
endfacet
facet normal -0.0 -0.0 1.0
outer loop
vertex -1.03527618041008 3.86370330515627 8.0
vertex -1.24999999999999 2.1650635094611 8.0
vertex -0.647047612756304 2.41481456572267 8.0
endloop
endfacet
facet normal -0.0 -0.0 1.0
outer loop
vertex -1.03527618041008 3.86370330515627 8.0
vertex -0.647047612756304 2.41481456572267 8.0
vertex 2.64371857738865e-016 4.0 8.0
endloop
endfacet
facet normal -0.0 -0.0 1.0
outer loop
vertex 2.64371857738865e-016 4.0 8.0
vertex -0.647047612756304 2.41481456572267 8.0
vertex -2.8199664825479e-015 2.5 8.0
endloop
endfacet
facet normal -0.0 -0.0 1.0
outer loop
vertex 2.64371857738865e-016 4.0 8.0
vertex -2.8199664825479e-015 2.5 8.0
vertex 0.647047612756298 2.41481456572267 8.0
endloop
endfacet
facet normal -0.0 -0.0 1.0
outer loop
vertex 2.64371857738865e-016 4.0 8.0
vertex 0.647047612756298 2.41481456572267 8.0
vertex 1.03527618041008 3.86370330515627 8.0
endloop
endfacet
facet normal -0.0 -0.0 1.0
outer loop
vertex 1.03527618041008 3.86370330515627 8.0
vertex 0.647047612756298 2.41481456572267 8.0
vertex 1.25 2.1650635094611 8.0
endloop
endfacet
facet normal -0.0 -0.0 1.0
outer loop
vertex 1.03527618041008 3.86370330515627 8.0
vertex 1.25 2.1650635094611 8.0
vertex 2.0 3.46410161513775 8.0
endloop
endfacet
facet normal -0.0 -0.0 1.0
outer loop
vertex 2.0 3.46410161513775 8.0
vertex 1.25 2.1650635094611 8.0
vertex 1.5 1.97323176246635 8.0
endloop
endfacet
facet normal -0.0 -0.0 1.0
outer loop
vertex 2.0 3.46410161513775 8.0
vertex 1.5 1.97323176246635 8.0
vertex 2.0 -3.46410161513776 8.0
endloop
endfacet
facet normal -0.0 -0.0 1.0
outer loop
vertex 2.0 3.46410161513775 8.0
vertex 2.0 -3.46410161513776 8.0
vertex 2.82842712474619 -2.82842712474619 8.0
endloop
endfacet
facet normal -0.0 -0.0 1.0
outer loop
vertex 2.0 3.46410161513775 8.0
vertex 2.82842712474619 -2.82842712474619 8.0
vertex 2.82842712474619 2.82842712474619 8.0
endloop
endfacet
facet normal -0.0 -0.0 1.0
outer loop
vertex 2.82842712474619 2.82842712474619 8.0
vertex 2.82842712474619 -2.82842712474619 8.0
vertex 3.46410161513775 -2.0 8.0
endloop
endfacet
facet normal -0.0 -0.0 1.0
outer loop
vertex 2.82842712474619 2.82842712474619 8.0
vertex 3.46410161513775 -2.0 8.0
vertex 3.46410161513775 2.0 8.0
endloop
endfacet
facet normal -0.0 -0.0 1.0
outer loop
vertex 3.46410161513775 2.0 8.0
vertex 3.46410161513775 -2.0 8.0
vertex 3.86370330515627 -1.03527618041009 8.0
endloop
endfacet
facet normal -0.0 -0.0 1.0
outer loop
vertex 3.46410161513775 2.0 8.0
vertex 3.86370330515627 -1.03527618041009 8.0
vertex 3.86370330515627 1.03527618041008 8.0
endloop
endfacet
facet normal -0.0 -0.0 1.0
outer loop
vertex 3.86370330515627 1.03527618041008 8.0
vertex 3.86370330515627 -1.03527618041009 8.0
vertex 4.0 0.0 8.0
endloop
endfacet
facet normal -0.923879532511287 -0.38268343236509 2.29590154582639e-031
outer loop
vertex 3.46410161513775 2.0 10.0
vertex 3.86370330515627 1.03527618041008 8.0
vertex 3.86370330515627 1.03527618041008 10.0
endloop
endfacet
facet normal -0.923879532511287 -0.38268343236509 2.29590154582639e-031
outer loop
vertex 3.86370330515627 1.03527618041008 8.0
vertex 3.46410161513775 2.0 10.0
vertex 3.46410161513775 2.0 8.0
endloop
endfacet
facet normal 0.608761429008721 0.793353340291235 1.74217381865338e-031
outer loop
vertex -2.82842712474619 -2.82842712474619 10.0
vertex -2.0 -3.46410161513775 8.0
vertex -2.82842712474619 -2.82842712474619 8.0
endloop
endfacet
facet normal 0.608761429008721 0.793353340291235 1.74217381865338e-031
outer loop
vertex -2.0 -3.46410161513775 8.0
vertex -2.82842712474619 -2.82842712474619 10.0
vertex -2.0 -3.46410161513775 10.0
endloop
endfacet
facet normal 0.793353340291235 0.60876142900872 9.85767676555237e-032
outer loop
vertex -3.46410161513775 -2.0 8.0
vertex -2.82842712474619 -2.82842712474619 10.0
vertex -2.82842712474619 -2.82842712474619 8.0
endloop
endfacet
facet normal 0.793353340291235 0.60876142900872 9.85767676555237e-032
outer loop
vertex -2.82842712474619 -2.82842712474619 10.0
vertex -3.46410161513775 -2.0 8.0
vertex -3.46410161513775 -2.0 10.0
endloop
endfacet
facet normal 0.923879532511287 0.382683432365089 -6.69202224083931e-018
outer loop
vertex -3.86370330515627 -1.03527618041008 8.0
vertex -3.46410161513775 -2.0 10.0
vertex -3.46410161513775 -2.0 8.0
endloop
endfacet
facet normal 0.923879532511287 0.382683432365089 -6.69202224083931e-018
outer loop
vertex -3.46410161513775 -2.0 10.0
vertex -3.86370330515627 -1.03527618041008 8.0
vertex -3.86370330515627 -1.03527618041008 10.0
endloop
endfacet
facet normal 0.99144486137381 0.130526192220051 2.28252416351068e-018
outer loop
vertex -4.0 4.89858719658941e-016 8.0
vertex -3.86370330515627 -1.03527618041008 10.0
vertex -3.86370330515627 -1.03527618041008 8.0
endloop
endfacet
facet normal 0.99144486137381 0.130526192220051 2.28252416351068e-018
outer loop
vertex -3.86370330515627 -1.03527618041008 10.0
vertex -4.0 4.89858719658941e-016 8.0
vertex -4.0 4.89858719658941e-016 10.0
endloop
endfacet
facet normal 0.99144486137381 -0.130526192220052 -0.0
outer loop
vertex -3.86370330515627 1.03527618041008 8.0
vertex -4.0 4.89858719658941e-016 10.0
vertex -4.0 4.89858719658941e-016 8.0
endloop
endfacet
facet normal 0.99144486137381 -0.130526192220052 -0.0
outer loop
vertex -4.0 4.89858719658941e-016 10.0
vertex -3.86370330515627 1.03527618041008 8.0
vertex -3.86370330515627 1.03527618041008 10.0
endloop
endfacet
facet normal 0.923879532511287 -0.38268343236509 -0.0
outer loop
vertex -3.46410161513775 2.0 8.0
vertex -3.86370330515627 1.03527618041008 10.0
vertex -3.86370330515627 1.03527618041008 8.0
endloop
endfacet
facet normal 0.923879532511287 -0.38268343236509 -0.0
outer loop
vertex -3.86370330515627 1.03527618041008 10.0
vertex -3.46410161513775 2.0 8.0
vertex -3.46410161513775 2.0 10.0
endloop
endfacet
facet normal 0.793353340291235 -0.608761429008721 -0.0
outer loop
vertex -2.82842712474619 2.82842712474619 8.0
vertex -3.46410161513775 2.0 10.0
vertex -3.46410161513775 2.0 8.0
endloop
endfacet
facet normal 0.793353340291235 -0.608761429008721 -0.0
outer loop
vertex -3.46410161513775 2.0 10.0
vertex -2.82842712474619 2.82842712474619 8.0
vertex -2.82842712474619 2.82842712474619 10.0
endloop
endfacet
facet normal 0.60876142900872 -0.793353340291236 1.97153535311047e-031
outer loop
vertex -2.0 3.46410161513775 10.0
vertex -2.82842712474619 2.82842712474619 8.0
vertex -2.0 3.46410161513775 8.0
endloop
endfacet
facet normal 0.60876142900872 -0.793353340291236 1.97153535311047e-031
outer loop
vertex -2.82842712474619 2.82842712474619 8.0
vertex -2.0 3.46410161513775 10.0
vertex -2.82842712474619 2.82842712474619 10.0
endloop
endfacet
facet normal 0.38268343236509 -0.923879532511287 -2.77139832490371e-031
outer loop
vertex -1.03527618041008 3.86370330515627 10.0
vertex -2.0 3.46410161513775 8.0
vertex -1.03527618041008 3.86370330515627 8.0
endloop
endfacet
facet normal 0.38268343236509 -0.923879532511287 -2.77139832490371e-031
outer loop
vertex -2.0 3.46410161513775 8.0
vertex -1.03527618041008 3.86370330515627 10.0
vertex -2.0 3.46410161513775 10.0
endloop
endfacet
facet normal 0.130526192220052 -0.99144486137381 -2.28252416351094e-018
outer loop
vertex 2.64371857738865e-016 4.0 10.0
vertex -1.03527618041008 3.86370330515627 8.0
vertex 2.64371857738865e-016 4.0 8.0
endloop
endfacet
facet normal 0.130526192220052 -0.99144486137381 -2.28252416351094e-018
outer loop
vertex -1.03527618041008 3.86370330515627 8.0
vertex 2.64371857738865e-016 4.0 10.0
vertex -1.03527618041008 3.86370330515627 10.0
endloop
endfacet
facet normal -0.793353340291236 -0.60876142900872 0.0
outer loop
vertex 2.82842712474619 2.82842712474619 10.0
vertex 3.46410161513775 2.0 8.0
vertex 3.46410161513775 2.0 10.0
endloop
endfacet
facet normal -0.793353340291236 -0.60876142900872 0.0
outer loop
vertex 3.46410161513775 2.0 8.0
vertex 2.82842712474619 2.82842712474619 10.0
vertex 2.82842712474619 2.82842712474619 8.0
endloop
endfacet
facet normal -0.60876142900872 -0.793353340291235 -9.85767676555237e-032
outer loop
vertex 2.82842712474619 2.82842712474619 10.0
vertex 2.0 3.46410161513775 8.0
vertex 2.82842712474619 2.82842712474619 8.0
endloop
endfacet
facet normal -0.60876142900872 -0.793353340291235 -9.85767676555237e-032
outer loop
vertex 2.0 3.46410161513775 8.0
vertex 2.82842712474619 2.82842712474619 10.0
vertex 2.0 3.46410161513775 10.0
endloop
endfacet
facet normal -0.38268343236509 -0.923879532511287 0.0
outer loop
vertex 2.0 3.46410161513775 10.0
vertex 1.03527618041008 3.86370330515627 8.0
vertex 2.0 3.46410161513775 8.0
endloop
endfacet
facet normal -0.38268343236509 -0.923879532511287 0.0
outer loop
vertex 1.03527618041008 3.86370330515627 8.0
vertex 2.0 3.46410161513775 10.0
vertex 1.03527618041008 3.86370330515627 10.0
endloop
endfacet
facet normal -0.130526192220052 -0.99144486137381 -4.05457740894899e-033
outer loop
vertex 1.03527618041008 3.86370330515627 10.0
vertex 2.64371857738865e-016 4.0 8.0
vertex 1.03527618041008 3.86370330515627 8.0
endloop
endfacet
facet normal -0.130526192220052 -0.99144486137381 -4.05457740894899e-033
outer loop
vertex 2.64371857738865e-016 4.0 8.0
vertex 1.03527618041008 3.86370330515627 10.0
vertex 2.64371857738865e-016 4.0 10.0
endloop
endfacet
facet normal 0.382683432365093 0.923879532511285 -0.0
outer loop
vertex -1.24999999999999 -2.1650635094611 8.0
vertex -0.647047612756304 -2.41481456572267 0.0
vertex -1.24999999999999 -2.1650635094611 0.0
endloop
endfacet
facet normal 0.382683432365093 0.923879532511285 -0.0
outer loop
vertex -0.647047612756304 -2.41481456572267 0.0
vertex -1.24999999999999 -2.1650635094611 8.0
vertex -0.647047612756304 -2.41481456572267 8.0
endloop
endfacet
facet normal 0.0 0.0 -1.0
outer loop
vertex 7.04991620636974e-016 12.0 0.0
vertex -1.5 1.97323176246635 0.0
vertex -3.10582854123025 11.5911099154688 0.0
endloop
endfacet
facet normal 0.0 0.0 -1.0
outer loop
vertex -1.5 1.97323176246635 0.0
vertex 7.04991620636974e-016 12.0 0.0
vertex -1.24999999999999 2.1650635094611 0.0
endloop
endfacet
facet normal 0.0 0.0 -1.0
outer loop
vertex -1.24999999999999 2.1650635094611 0.0
vertex 7.04991620636974e-016 12.0 0.0
vertex -0.647047612756304 2.41481456572267 0.0
endloop
endfacet
facet normal 0.0 0.0 -1.0
outer loop
vertex -0.647047612756304 2.41481456572267 0.0
vertex 7.04991620636974e-016 12.0 0.0
vertex -2.8199664825479e-015 2.5 0.0
endloop
endfacet
facet normal 0.0 0.0 -1.0
outer loop
vertex -2.8199664825479e-015 2.5 0.0
vertex 7.04991620636974e-016 12.0 0.0
vertex 0.647047612756298 2.41481456572267 0.0
endloop
endfacet
facet normal 0.0 0.0 -1.0
outer loop
vertex 0.647047612756298 2.41481456572267 0.0
vertex 7.04991620636974e-016 12.0 0.0
vertex 3.10582854123025 11.5911099154688 0.0
endloop
endfacet
facet normal 0.0 0.0 -1.0
outer loop
vertex 0.647047612756298 2.41481456572267 0.0
vertex 3.10582854123025 11.5911099154688 0.0
vertex 1.25 2.1650635094611 0.0
endloop
endfacet
facet normal 0.0 0.0 -1.0
outer loop
vertex 1.25 2.1650635094611 0.0
vertex 3.10582854123025 11.5911099154688 0.0
vertex 1.5 1.97323176246635 0.0
endloop
endfacet
facet normal 0.0 0.0 -1.0
outer loop
vertex 1.5 1.97323176246635 0.0
vertex 3.10582854123025 11.5911099154688 0.0
vertex 1.5 -1.97323176246635 0.0
endloop
endfacet
facet normal 0.0 0.0 -1.0
outer loop
vertex 1.5 -1.97323176246635 0.0
vertex 3.10582854123025 11.5911099154688 0.0
vertex 3.10582854123024 -11.5911099154688 0.0
endloop
endfacet
facet normal 0.0 0.0 -1.0
outer loop
vertex 3.10582854123024 -11.5911099154688 0.0
vertex 3.10582854123025 11.5911099154688 0.0
vertex 5.99999999999999 -10.3923048454133 0.0
endloop
endfacet
facet normal 0.0 0.0 -1.0
outer loop
vertex 5.99999999999999 -10.3923048454133 0.0
vertex 3.10582854123025 11.5911099154688 0.0
vertex 6.0 10.3923048454133 0.0
endloop
endfacet
facet normal 0.0 0.0 -1.0
outer loop
vertex 5.99999999999999 -10.3923048454133 0.0
vertex 6.0 10.3923048454133 0.0
vertex 8.48528137423857 -8.48528137423857 0.0
endloop
endfacet
facet normal 0.0 0.0 -1.0
outer loop
vertex 8.48528137423857 -8.48528137423857 0.0
vertex 6.0 10.3923048454133 0.0
vertex 8.48528137423857 8.48528137423857 0.0
endloop
endfacet
facet normal 0.0 0.0 -1.0
outer loop
vertex 8.48528137423857 -8.48528137423857 0.0
vertex 8.48528137423857 8.48528137423857 0.0
vertex 10.3923048454133 -6.00000000000001 0.0
endloop
endfacet
facet normal 0.0 0.0 -1.0
outer loop
vertex 10.3923048454133 -6.00000000000001 0.0
vertex 8.48528137423857 8.48528137423857 0.0
vertex 10.3923048454133 6.0 0.0
endloop
endfacet
facet normal 0.0 0.0 -1.0
outer loop
vertex 10.3923048454133 -6.00000000000001 0.0
vertex 10.3923048454133 6.0 0.0
vertex 11.5911099154688 -3.10582854123026 0.0
endloop
endfacet
facet normal 0.0 0.0 -1.0
outer loop
vertex 11.5911099154688 -3.10582854123026 0.0
vertex 10.3923048454133 6.0 0.0
vertex 11.5911099154688 3.10582854123025 0.0
endloop
endfacet
facet normal 0.0 0.0 -1.0
outer loop
vertex 11.5911099154688 -3.10582854123026 0.0
vertex 11.5911099154688 3.10582854123025 0.0
vertex 12.0 0.0 0.0
endloop
endfacet
facet normal 0.0 0.0 -1.0
outer loop
vertex -11.5911099154688 3.10582854123025 0.0
vertex -11.5911099154688 -3.10582854123024 0.0
vertex -12.0 1.46957615897682e-015 0.0
endloop
endfacet
facet normal 0.0 0.0 -1.0
outer loop
vertex -11.5911099154688 -3.10582854123024 0.0
vertex -11.5911099154688 3.10582854123025 0.0
vertex -10.3923048454133 -6.0 0.0
endloop
endfacet
facet normal 0.0 0.0 -1.0
outer loop
vertex -10.3923048454133 -6.0 0.0
vertex -11.5911099154688 3.10582854123025 0.0
vertex -10.3923048454133 6.0 0.0
endloop
endfacet
facet normal 0.0 0.0 -1.0
outer loop
vertex -10.3923048454133 -6.0 0.0
vertex -10.3923048454133 6.0 0.0
vertex -8.48528137423857 -8.48528137423857 0.0
endloop
endfacet
facet normal 0.0 0.0 -1.0
outer loop
vertex -8.48528137423857 -8.48528137423857 0.0
vertex -10.3923048454133 6.0 0.0
vertex -8.48528137423857 8.48528137423857 0.0
endloop
endfacet
facet normal 0.0 0.0 -1.0
outer loop
vertex -8.48528137423857 -8.48528137423857 0.0
vertex -8.48528137423857 8.48528137423857 0.0
vertex -6.00000000000001 -10.3923048454133 0.0
endloop
endfacet
facet normal 0.0 0.0 -1.0
outer loop
vertex -6.00000000000001 -10.3923048454133 0.0
vertex -8.48528137423857 8.48528137423857 0.0
vertex -6.0 10.3923048454133 0.0
endloop
endfacet
facet normal 0.0 0.0 -1.0
outer loop
vertex -6.00000000000001 -10.3923048454133 0.0
vertex -6.0 10.3923048454133 0.0
vertex -3.10582854123026 -11.5911099154688 0.0
endloop
endfacet
facet normal 0.0 0.0 -1.0
outer loop
vertex -3.10582854123026 -11.5911099154688 0.0
vertex -6.0 10.3923048454133 0.0
vertex -3.10582854123025 11.5911099154688 0.0
endloop
endfacet
facet normal 0.0 0.0 -1.0
outer loop
vertex -3.10582854123026 -11.5911099154688 0.0
vertex -3.10582854123025 11.5911099154688 0.0
vertex -1.5 -1.97323176246635 0.0
endloop
endfacet
facet normal 0.0 0.0 -1.0
outer loop
vertex -3.10582854123026 -11.5911099154688 0.0
vertex -1.5 -1.97323176246635 0.0
vertex -2.20309881449055e-015 -12.0 0.0
endloop
endfacet
facet normal 0.0 0.0 -1.0
outer loop
vertex -1.5 -1.97323176246635 0.0
vertex -3.10582854123025 11.5911099154688 0.0
vertex -1.5 1.97323176246635 0.0
endloop
endfacet
facet normal 0.0 0.0 -1.0
outer loop
vertex -2.20309881449055e-015 -12.0 0.0
vertex -1.5 -1.97323176246635 0.0
vertex -1.24999999999999 -2.1650635094611 0.0
endloop
endfacet
facet normal 0.0 0.0 -1.0
outer loop
vertex -2.20309881449055e-015 -12.0 0.0
vertex -1.24999999999999 -2.1650635094611 0.0
vertex -0.647047612756304 -2.41481456572267 0.0
endloop
endfacet
facet normal 0.0 0.0 -1.0
outer loop
vertex -2.20309881449055e-015 -12.0 0.0
vertex -0.647047612756304 -2.41481456572267 0.0
vertex -2.8199664825479e-015 -2.5 0.0
endloop
endfacet
facet normal 0.0 0.0 -1.0
outer loop
vertex -2.20309881449055e-015 -12.0 0.0
vertex -2.8199664825479e-015 -2.5 0.0
vertex 0.647047612756298 -2.41481456572267 0.0
endloop
endfacet
facet normal 0.0 0.0 -1.0
outer loop
vertex -2.20309881449055e-015 -12.0 0.0
vertex 0.647047612756298 -2.41481456572267 0.0
vertex 3.10582854123024 -11.5911099154688 0.0
endloop
endfacet
facet normal 0.0 0.0 -1.0
outer loop
vertex 3.10582854123024 -11.5911099154688 0.0
vertex 0.647047612756298 -2.41481456572267 0.0
vertex 1.25 -2.1650635094611 0.0
endloop
endfacet
facet normal 0.0 0.0 -1.0
outer loop
vertex 3.10582854123024 -11.5911099154688 0.0
vertex 1.25 -2.1650635094611 0.0
vertex 1.5 -1.97323176246635 0.0
endloop
endfacet
facet normal 0.608761429008713 0.793353340291241 -0.0
outer loop
vertex -1.5 -1.97323176246635 8.0
vertex -1.24999999999999 -2.1650635094611 0.0
vertex -1.5 -1.97323176246635 0.0
endloop
endfacet
facet normal 0.608761429008713 0.793353340291241 -0.0
outer loop
vertex -1.24999999999999 -2.1650635094611 0.0
vertex -1.5 -1.97323176246635 8.0
vertex -1.24999999999999 -2.1650635094611 8.0
endloop
endfacet
facet normal 1.0 -0.0 -0.0
outer loop
vertex -1.5 1.97323176246635 0.0
vertex -1.5 -1.97323176246635 8.0
vertex -1.5 -1.97323176246635 0.0
endloop
endfacet
facet normal 1.0 -0.0 -0.0
outer loop
vertex -1.5 -1.97323176246635 8.0
vertex -1.5 1.97323176246635 0.0
vertex -1.5 1.97323176246635 8.0
endloop
endfacet
facet normal 0.130526192220056 0.99144486137381 -0.0
outer loop
vertex -0.647047612756304 -2.41481456572267 8.0
vertex -2.8199664825479e-015 -2.5 0.0
vertex -0.647047612756304 -2.41481456572267 0.0
endloop
endfacet
facet normal 0.130526192220056 0.99144486137381 -0.0
outer loop
vertex -2.8199664825479e-015 -2.5 0.0
vertex -0.647047612756304 -2.41481456572267 8.0
vertex -2.8199664825479e-015 -2.5 8.0
endloop
endfacet
facet normal -0.130526192220056 0.99144486137381 -0.0
outer loop
vertex -2.8199664825479e-015 -2.5 8.0
vertex 0.647047612756298 -2.41481456572267 0.0
vertex -2.8199664825479e-015 -2.5 0.0
endloop
endfacet
facet normal -0.130526192220056 0.99144486137381 -0.0
outer loop
vertex 0.647047612756298 -2.41481456572267 0.0
vertex -2.8199664825479e-015 -2.5 8.0
vertex 0.647047612756298 -2.41481456572267 8.0
endloop
endfacet
facet normal -0.382683432365088 0.923879532511288 -0.0
outer loop
vertex 0.647047612756298 -2.41481456572267 8.0
vertex 1.25 -2.1650635094611 0.0
vertex 0.647047612756298 -2.41481456572267 0.0
endloop
endfacet
facet normal -0.382683432365088 0.923879532511288 -0.0
outer loop
vertex 1.25 -2.1650635094611 0.0
vertex 0.647047612756298 -2.41481456572267 8.0
vertex 1.25 -2.1650635094611 8.0
endloop
endfacet
facet normal -0.608761429008726 0.793353340291231 -0.0
outer loop
vertex 1.25 -2.1650635094611 8.0
vertex 1.5 -1.97323176246635 0.0
vertex 1.25 -2.1650635094611 0.0
endloop
endfacet
facet normal -0.608761429008726 0.793353340291231 -0.0
outer loop
vertex 1.5 -1.97323176246635 0.0
vertex 1.25 -2.1650635094611 8.0
vertex 1.5 -1.97323176246635 8.0
endloop
endfacet
facet normal -1.0 0.0 0.0
outer loop
vertex 1.5 1.97323176246635 8.0
vertex 1.5 -1.97323176246635 0.0
vertex 1.5 -1.97323176246635 8.0
endloop
endfacet
facet normal -1.0 0.0 0.0
outer loop
vertex 1.5 -1.97323176246635 0.0
vertex 1.5 1.97323176246635 8.0
vertex 1.5 1.97323176246635 0.0
endloop
endfacet
facet normal -0.608761429008726 -0.793353340291231 0.0
outer loop
vertex 1.5 1.97323176246635 8.0
vertex 1.25 2.1650635094611 0.0
vertex 1.5 1.97323176246635 0.0
endloop
endfacet
facet normal -0.608761429008726 -0.793353340291231 0.0
outer loop
vertex 1.25 2.1650635094611 0.0
vertex 1.5 1.97323176246635 8.0
vertex 1.25 2.1650635094611 8.0
endloop
endfacet
facet normal -0.382683432365095 -0.923879532511285 0.0
outer loop
vertex 1.25 2.1650635094611 8.0
vertex 0.647047612756298 2.41481456572267 0.0
vertex 1.25 2.1650635094611 0.0
endloop
endfacet
facet normal -0.382683432365095 -0.923879532511285 0.0
outer loop
vertex 0.647047612756298 2.41481456572267 0.0
vertex 1.25 2.1650635094611 8.0
vertex 0.647047612756298 2.41481456572267 8.0
endloop
endfacet
facet normal -0.130526192220039 -0.991444861373812 0.0
outer loop
vertex 0.647047612756298 2.41481456572267 8.0
vertex -2.8199664825479e-015 2.5 0.0
vertex 0.647047612756298 2.41481456572267 0.0
endloop
endfacet
facet normal -0.130526192220039 -0.991444861373812 0.0
outer loop
vertex -2.8199664825479e-015 2.5 0.0
vertex 0.647047612756298 2.41481456572267 8.0
vertex -2.8199664825479e-015 2.5 8.0
endloop
endfacet
facet normal 0.130526192220048 -0.991444861373811 0.0
outer loop
vertex -2.8199664825479e-015 2.5 8.0
vertex -0.647047612756304 2.41481456572267 0.0
vertex -2.8199664825479e-015 2.5 0.0
endloop
endfacet
facet normal 0.130526192220048 -0.991444861373811 0.0
outer loop
vertex -0.647047612756304 2.41481456572267 0.0
vertex -2.8199664825479e-015 2.5 8.0
vertex -0.647047612756304 2.41481456572267 8.0
endloop
endfacet
facet normal 0.382683432365093 -0.923879532511285 0.0
outer loop
vertex -0.647047612756304 2.41481456572267 8.0
vertex -1.24999999999999 2.1650635094611 0.0
vertex -0.647047612756304 2.41481456572267 0.0
endloop
endfacet
facet normal 0.382683432365093 -0.923879532511285 0.0
outer loop
vertex -1.24999999999999 2.1650635094611 0.0
vertex -0.647047612756304 2.41481456572267 8.0
vertex -1.24999999999999 2.1650635094611 8.0
endloop
endfacet
facet normal 0.608761429008713 -0.793353340291241 0.0
outer loop
vertex -1.24999999999999 2.1650635094611 8.0
vertex -1.5 1.97323176246635 0.0
vertex -1.24999999999999 2.1650635094611 0.0
endloop
endfacet
facet normal 0.608761429008713 -0.793353340291241 0.0
outer loop
vertex -1.5 1.97323176246635 0.0
vertex -1.24999999999999 2.1650635094611 8.0
vertex -1.5 1.97323176246635 8.0
endloop
endfacet
endsolid GearT5_12
